%TF.GenerationSoftware,KiCad,Pcbnew,(6.0.0)*%
%TF.CreationDate,2022-01-13T20:13:22-06:00*%
%TF.ProjectId,DieHardSAO,44696548-6172-4645-9341-4f2e6b696361,rev?*%
%TF.SameCoordinates,Original*%
%TF.FileFunction,Copper,L2,Bot*%
%TF.FilePolarity,Positive*%
%FSLAX46Y46*%
G04 Gerber Fmt 4.6, Leading zero omitted, Abs format (unit mm)*
G04 Created by KiCad (PCBNEW (6.0.0)) date 2022-01-13 20:13:22*
%MOMM*%
%LPD*%
G01*
G04 APERTURE LIST*
G04 Aperture macros list*
%AMFreePoly0*
4,1,20,0.000000,0.744959,0.073905,0.744508,0.209726,0.703889,0.328688,0.626782,0.421226,0.519385,0.479903,0.390333,0.500000,0.250000,0.500000,-0.250000,0.499851,-0.262216,0.476331,-0.402017,0.414519,-0.529596,0.319384,-0.634700,0.198574,-0.708877,0.061801,-0.746166,0.000000,-0.745033,0.000000,-0.750000,-0.500000,-0.750000,-0.500000,0.750000,0.000000,0.750000,0.000000,0.744959,
0.000000,0.744959,$1*%
%AMFreePoly1*
4,1,22,0.500000,-0.750000,0.000000,-0.750000,0.000000,-0.745033,-0.079941,-0.743568,-0.215256,-0.701293,-0.333266,-0.622738,-0.424486,-0.514219,-0.481581,-0.384460,-0.499164,-0.250000,-0.500000,-0.250000,-0.500000,0.250000,-0.499164,0.250000,-0.499963,0.256109,-0.478152,0.396186,-0.417904,0.524511,-0.324060,0.630769,-0.204165,0.706417,-0.067858,0.745374,0.000000,0.744959,0.000000,0.750000,
0.500000,0.750000,0.500000,-0.750000,0.500000,-0.750000,$1*%
G04 Aperture macros list end*
%TA.AperFunction,SMDPad,CuDef*%
%ADD10R,0.797560X1.198880*%
%TD*%
%TA.AperFunction,ComponentPad*%
%ADD11C,1.800000*%
%TD*%
%TA.AperFunction,ComponentPad*%
%ADD12R,1.800000X1.800000*%
%TD*%
%TA.AperFunction,SMDPad,CuDef*%
%ADD13FreePoly0,0.000000*%
%TD*%
%TA.AperFunction,SMDPad,CuDef*%
%ADD14FreePoly1,0.000000*%
%TD*%
%TA.AperFunction,ComponentPad*%
%ADD15C,1.727200*%
%TD*%
%TA.AperFunction,ComponentPad*%
%ADD16O,1.727200X1.727200*%
%TD*%
%TA.AperFunction,ComponentPad*%
%ADD17R,1.727200X1.727200*%
%TD*%
%TA.AperFunction,Conductor*%
%ADD18C,0.300000*%
%TD*%
G04 APERTURE END LIST*
D10*
%TO.P,R1,2,2*%
%TO.N,Net-(D1-Pad2)*%
X115899160Y-103000000D03*
%TO.P,R1,1,1*%
%TO.N,Net-(X1-Pad1)*%
X114100840Y-103000000D03*
%TD*%
D11*
%TO.P,D1,2,A*%
%TO.N,Net-(D1-Pad2)*%
X122015000Y-106000000D03*
D12*
%TO.P,D1,1,C*%
%TO.N,Net-(X1-Pad2)*%
X119475000Y-106000000D03*
%TD*%
D13*
%TO.P,JP1,2,2*%
%TO.N,Net-(D1-Pad2)*%
X115400000Y-100250000D03*
D14*
%TO.P,JP1,1,1*%
%TO.N,Net-(X1-Pad1)*%
X114100000Y-100250000D03*
%TD*%
D15*
%TO.P,X1,6,GPIO2*%
%TO.N,unconnected-(X1-Pad6)*%
X111680200Y-109438400D03*
%TO.P,X1,5,GPIO1*%
%TO.N,unconnected-(X1-Pad5)*%
X111680200Y-106898400D03*
D16*
%TO.P,X1,4,SCL*%
%TO.N,unconnected-(X1-Pad4)*%
X109140200Y-109438400D03*
%TO.P,X1,3,SDA*%
%TO.N,unconnected-(X1-Pad3)*%
X109140200Y-106898400D03*
D17*
%TO.P,X1,2,GND*%
%TO.N,Net-(X1-Pad2)*%
X106600200Y-109438400D03*
D16*
%TO.P,X1,1,VCC*%
%TO.N,Net-(X1-Pad1)*%
X106600200Y-106898400D03*
%TD*%
D18*
%TO.N,Net-(X1-Pad2)*%
X113098489Y-110651511D02*
X117750000Y-106000000D01*
X117750000Y-106000000D02*
X119475000Y-106000000D01*
X106600200Y-110600200D02*
X106651511Y-110651511D01*
X106600200Y-109438400D02*
X106600200Y-110600200D01*
X106651511Y-110651511D02*
X113098489Y-110651511D01*
%TO.N,Net-(D1-Pad2)*%
X122015000Y-103765000D02*
X122015000Y-106000000D01*
X121250000Y-103000000D02*
X122015000Y-103765000D01*
X115899160Y-103000000D02*
X121250000Y-103000000D01*
X115899160Y-100399160D02*
X115899160Y-103000000D01*
X115750000Y-100250000D02*
X115899160Y-100399160D01*
X115400000Y-100250000D02*
X115750000Y-100250000D01*
%TO.N,Net-(X1-Pad1)*%
X114100840Y-103000000D02*
X114100840Y-100250840D01*
X114100840Y-100250840D02*
X114100000Y-100250000D01*
X108750000Y-103000000D02*
X114100840Y-103000000D01*
X106600200Y-106898400D02*
X106600200Y-105149800D01*
X106600200Y-105149800D02*
X108750000Y-103000000D01*
%TD*%
M02*
