%TF.GenerationSoftware,KiCad,Pcbnew,(6.0.0)*%
%TF.CreationDate,2022-01-13T20:13:23-06:00*%
%TF.ProjectId,DieHardSAO,44696548-6172-4645-9341-4f2e6b696361,rev?*%
%TF.SameCoordinates,Original*%
%TF.FileFunction,Soldermask,Bot*%
%TF.FilePolarity,Negative*%
%FSLAX46Y46*%
G04 Gerber Fmt 4.6, Leading zero omitted, Abs format (unit mm)*
G04 Created by KiCad (PCBNEW (6.0.0)) date 2022-01-13 20:13:23*
%MOMM*%
%LPD*%
G01*
G04 APERTURE LIST*
G04 Aperture macros list*
%AMRoundRect*
0 Rectangle with rounded corners*
0 $1 Rounding radius*
0 $2 $3 $4 $5 $6 $7 $8 $9 X,Y pos of 4 corners*
0 Add a 4 corners polygon primitive as box body*
4,1,4,$2,$3,$4,$5,$6,$7,$8,$9,$2,$3,0*
0 Add four circle primitives for the rounded corners*
1,1,$1+$1,$2,$3*
1,1,$1+$1,$4,$5*
1,1,$1+$1,$6,$7*
1,1,$1+$1,$8,$9*
0 Add four rect primitives between the rounded corners*
20,1,$1+$1,$2,$3,$4,$5,0*
20,1,$1+$1,$4,$5,$6,$7,0*
20,1,$1+$1,$6,$7,$8,$9,0*
20,1,$1+$1,$8,$9,$2,$3,0*%
%AMFreePoly0*
4,1,20,0.000000,0.744959,0.073905,0.744508,0.209726,0.703889,0.328688,0.626782,0.421226,0.519385,0.479903,0.390333,0.500000,0.250000,0.500000,-0.250000,0.499851,-0.262216,0.476331,-0.402017,0.414519,-0.529596,0.319384,-0.634700,0.198574,-0.708877,0.061801,-0.746166,0.000000,-0.745033,0.000000,-0.750000,-0.500000,-0.750000,-0.500000,0.750000,0.000000,0.750000,0.000000,0.744959,
0.000000,0.744959,$1*%
%AMFreePoly1*
4,1,22,0.500000,-0.750000,0.000000,-0.750000,0.000000,-0.745033,-0.079941,-0.743568,-0.215256,-0.701293,-0.333266,-0.622738,-0.424486,-0.514219,-0.481581,-0.384460,-0.499164,-0.250000,-0.500000,-0.250000,-0.500000,0.250000,-0.499164,0.250000,-0.499963,0.256109,-0.478152,0.396186,-0.417904,0.524511,-0.324060,0.630769,-0.204165,0.706417,-0.067858,0.745374,0.000000,0.744959,0.000000,0.750000,
0.500000,0.750000,0.500000,-0.750000,0.500000,-0.750000,$1*%
G04 Aperture macros list end*
%ADD10C,0.100000*%
%ADD11RoundRect,0.101600X-0.398780X-0.599440X0.398780X-0.599440X0.398780X0.599440X-0.398780X0.599440X0*%
%ADD12C,1.800000*%
%ADD13R,1.800000X1.800000*%
%ADD14FreePoly0,0.000000*%
%ADD15FreePoly1,0.000000*%
%ADD16C,1.727200*%
%ADD17O,1.727200X1.727200*%
%ADD18R,1.727200X1.727200*%
G04 APERTURE END LIST*
D10*
X122500000Y-88250000D02*
X122500000Y-88750000D01*
X122500000Y-88750000D02*
X122250000Y-89500000D01*
X122250000Y-89500000D02*
X122250000Y-90500000D01*
X122250000Y-90500000D02*
X122750000Y-91250000D01*
X122750000Y-91250000D02*
X123000000Y-91750000D01*
X123000000Y-91750000D02*
X122750000Y-92750000D01*
X122750000Y-92750000D02*
X121750000Y-93750000D01*
X121750000Y-93750000D02*
X119750000Y-93750000D01*
X119750000Y-93750000D02*
X119000000Y-93000000D01*
X119000000Y-93000000D02*
X118750000Y-92000000D01*
X118750000Y-92000000D02*
X119250000Y-91000000D01*
X119250000Y-91000000D02*
X119750000Y-90500000D01*
X119750000Y-90500000D02*
X120250000Y-90250000D01*
X120250000Y-90250000D02*
X120500000Y-89500000D01*
X120500000Y-89500000D02*
X120750000Y-88500000D01*
X120750000Y-88500000D02*
X121500000Y-87750000D01*
X121500000Y-87750000D02*
X122500000Y-88250000D01*
G36*
X122500000Y-88250000D02*
G01*
X122500000Y-88750000D01*
X122250000Y-89500000D01*
X122250000Y-90500000D01*
X122750000Y-91250000D01*
X123000000Y-91750000D01*
X122750000Y-92750000D01*
X121750000Y-93750000D01*
X119750000Y-93750000D01*
X119000000Y-93000000D01*
X118750000Y-92000000D01*
X119250000Y-91000000D01*
X119750000Y-90500000D01*
X120250000Y-90250000D01*
X120500000Y-89500000D01*
X120750000Y-88500000D01*
X121500000Y-87750000D01*
X122500000Y-88250000D01*
G37*
X122500000Y-88250000D02*
X122500000Y-88750000D01*
X122250000Y-89500000D01*
X122250000Y-90500000D01*
X122750000Y-91250000D01*
X123000000Y-91750000D01*
X122750000Y-92750000D01*
X121750000Y-93750000D01*
X119750000Y-93750000D01*
X119000000Y-93000000D01*
X118750000Y-92000000D01*
X119250000Y-91000000D01*
X119750000Y-90500000D01*
X120250000Y-90250000D01*
X120500000Y-89500000D01*
X120750000Y-88500000D01*
X121500000Y-87750000D01*
X122500000Y-88250000D01*
D11*
%TO.C,R1*%
X115899160Y-103000000D03*
X114100840Y-103000000D03*
%TD*%
D12*
%TO.C,D1*%
X122015000Y-106000000D03*
D13*
X119475000Y-106000000D03*
%TD*%
D14*
%TO.C,JP1*%
X115400000Y-100250000D03*
D15*
X114100000Y-100250000D03*
%TD*%
D16*
%TO.C,X1*%
X111680200Y-109438400D03*
X111680200Y-106898400D03*
D17*
X109140200Y-109438400D03*
X109140200Y-106898400D03*
D18*
X106600200Y-109438400D03*
D17*
X106600200Y-106898400D03*
%TD*%
M02*
