%TF.GenerationSoftware,KiCad,Pcbnew,(6.0.0)*%
%TF.CreationDate,2022-01-13T20:13:23-06:00*%
%TF.ProjectId,DieHardSAO,44696548-6172-4645-9341-4f2e6b696361,rev?*%
%TF.SameCoordinates,Original*%
%TF.FileFunction,Soldermask,Top*%
%TF.FilePolarity,Negative*%
%FSLAX46Y46*%
G04 Gerber Fmt 4.6, Leading zero omitted, Abs format (unit mm)*
G04 Created by KiCad (PCBNEW (6.0.0)) date 2022-01-13 20:13:23*
%MOMM*%
%LPD*%
G01*
G04 APERTURE LIST*
%ADD10C,0.100000*%
%ADD11C,0.120000*%
%ADD12C,0.010000*%
%ADD13C,1.800000*%
%ADD14R,1.800000X1.800000*%
%ADD15C,1.727200*%
%ADD16O,1.727200X1.727200*%
%ADD17R,1.727200X1.727200*%
G04 APERTURE END LIST*
D10*
X135500000Y-114750000D02*
X122500000Y-120250000D01*
X122500000Y-120250000D02*
X95250000Y-107000000D01*
X95250000Y-107000000D02*
X97250000Y-107000000D01*
X97250000Y-107000000D02*
X97500000Y-107750000D01*
X97500000Y-107750000D02*
X98000000Y-108250000D01*
X98000000Y-108250000D02*
X99250000Y-108250000D01*
X99250000Y-108250000D02*
X100000000Y-107500000D01*
X100000000Y-107500000D02*
X100000000Y-106750000D01*
X100000000Y-106750000D02*
X99750000Y-105500000D01*
X99750000Y-105500000D02*
X99750000Y-105000000D01*
X99750000Y-105000000D02*
X100000000Y-105000000D01*
X100000000Y-105000000D02*
X101750000Y-105750000D01*
X101750000Y-105750000D02*
X103250000Y-106250000D01*
X103250000Y-106250000D02*
X122250000Y-115750000D01*
X122250000Y-115750000D02*
X132500000Y-112000000D01*
X132500000Y-112000000D02*
X139500000Y-75250000D01*
X139500000Y-75250000D02*
X143750000Y-75250000D01*
X143750000Y-75250000D02*
X135500000Y-114750000D01*
G36*
X135500000Y-114750000D02*
G01*
X122500000Y-120250000D01*
X95250000Y-107000000D01*
X97250000Y-107000000D01*
X97500000Y-107750000D01*
X98000000Y-108250000D01*
X99250000Y-108250000D01*
X100000000Y-107500000D01*
X100000000Y-106750000D01*
X99750000Y-105500000D01*
X99750000Y-105000000D01*
X100000000Y-105000000D01*
X101750000Y-105750000D01*
X103250000Y-106250000D01*
X122250000Y-115750000D01*
X132500000Y-112000000D01*
X139500000Y-75250000D01*
X143750000Y-75250000D01*
X135500000Y-114750000D01*
G37*
X135500000Y-114750000D02*
X122500000Y-120250000D01*
X95250000Y-107000000D01*
X97250000Y-107000000D01*
X97500000Y-107750000D01*
X98000000Y-108250000D01*
X99250000Y-108250000D01*
X100000000Y-107500000D01*
X100000000Y-106750000D01*
X99750000Y-105500000D01*
X99750000Y-105000000D01*
X100000000Y-105000000D01*
X101750000Y-105750000D01*
X103250000Y-106250000D01*
X122250000Y-115750000D01*
X132500000Y-112000000D01*
X139500000Y-75250000D01*
X143750000Y-75250000D01*
X135500000Y-114750000D01*
X143500000Y-76000000D02*
X140000000Y-76000000D01*
X140000000Y-76000000D02*
X131750000Y-72500000D01*
X131750000Y-72500000D02*
X116500000Y-72250000D01*
X116500000Y-72250000D02*
X116500000Y-72000000D01*
X116500000Y-72000000D02*
X116250000Y-71250000D01*
X116250000Y-71250000D02*
X116250000Y-70000000D01*
X116250000Y-70000000D02*
X116500000Y-69500000D01*
X116500000Y-69500000D02*
X116000000Y-69250000D01*
X116000000Y-69250000D02*
X116000000Y-68000000D01*
X116000000Y-68000000D02*
X115500000Y-68000000D01*
X115500000Y-68000000D02*
X114500000Y-67000000D01*
X114500000Y-67000000D02*
X114250000Y-66000000D01*
X114250000Y-66000000D02*
X143500000Y-66000000D01*
X143500000Y-66000000D02*
X143500000Y-76000000D01*
G36*
X143500000Y-76000000D02*
G01*
X140000000Y-76000000D01*
X131750000Y-72500000D01*
X116500000Y-72250000D01*
X116500000Y-72000000D01*
X116250000Y-71250000D01*
X116250000Y-70000000D01*
X116500000Y-69500000D01*
X116000000Y-69250000D01*
X116000000Y-68000000D01*
X115500000Y-68000000D01*
X114500000Y-67000000D01*
X114250000Y-66000000D01*
X143500000Y-66000000D01*
X143500000Y-76000000D01*
G37*
X143500000Y-76000000D02*
X140000000Y-76000000D01*
X131750000Y-72500000D01*
X116500000Y-72250000D01*
X116500000Y-72000000D01*
X116250000Y-71250000D01*
X116250000Y-70000000D01*
X116500000Y-69500000D01*
X116000000Y-69250000D01*
X116000000Y-68000000D01*
X115500000Y-68000000D01*
X114500000Y-67000000D01*
X114250000Y-66000000D01*
X143500000Y-66000000D01*
X143500000Y-76000000D01*
D11*
X115250000Y-65000000D02*
X116500000Y-66250000D01*
X116500000Y-66250000D02*
X110454138Y-66038951D01*
X110454138Y-66038951D02*
X110006707Y-66065271D01*
X110006707Y-66065271D02*
X110006707Y-65920514D01*
X110006707Y-65920514D02*
X110230422Y-65709958D01*
X110230422Y-65709958D02*
X110230422Y-65486243D01*
X110230422Y-65486243D02*
X110111985Y-65459924D01*
X110111985Y-65459924D02*
X110105405Y-65111191D01*
X110105405Y-65111191D02*
X110006707Y-65051972D01*
X110006707Y-65051972D02*
X110000127Y-64834837D01*
X110000127Y-64834837D02*
X110118565Y-64716926D01*
X110118565Y-64716926D02*
X110618634Y-64697186D01*
X110618634Y-64697186D02*
X110612055Y-64539269D01*
X110612055Y-64539269D02*
X110118565Y-64552429D01*
X110118565Y-64552429D02*
X110092245Y-64427412D01*
X110092245Y-64427412D02*
X108993408Y-64453731D01*
X108993408Y-64453731D02*
X108986828Y-64177377D01*
X108986828Y-64177377D02*
X108355162Y-64177377D01*
X108355162Y-64177377D02*
X108348582Y-63999721D01*
X108348582Y-63999721D02*
X108611776Y-63762846D01*
X108611776Y-63762846D02*
X108611776Y-63611509D01*
X108611776Y-63611509D02*
X107868252Y-63624668D01*
X107868252Y-63624668D02*
X107841932Y-63387793D01*
X107841932Y-63387793D02*
X107703755Y-63387793D01*
X107703755Y-63387793D02*
X107611637Y-63203557D01*
X107611637Y-63203557D02*
X107302384Y-63223297D01*
X107302384Y-63223297D02*
X107256325Y-63381214D01*
X107256325Y-63381214D02*
X106973390Y-63400953D01*
X106973390Y-63400953D02*
X106966811Y-63111439D01*
X106966811Y-63111439D02*
X107006290Y-63032481D01*
X107006290Y-63032481D02*
X107039189Y-62848245D01*
X107039189Y-62848245D02*
X105696897Y-62907463D01*
X105696897Y-62907463D02*
X104795456Y-63525971D01*
X104795456Y-63525971D02*
X104690178Y-63550118D01*
X104690178Y-63550118D02*
X104624380Y-63398782D01*
X104624380Y-63398782D02*
X104315126Y-63385622D01*
X104315126Y-63385622D02*
X104315126Y-63833052D01*
X104315126Y-63833052D02*
X103841376Y-63912011D01*
X103841376Y-63912011D02*
X103808477Y-64346282D01*
X103808477Y-64346282D02*
X103025473Y-65260883D01*
X103025473Y-65260883D02*
X102597782Y-65333261D01*
X102597782Y-65333261D02*
X102466185Y-65524077D01*
X102466185Y-65524077D02*
X102288528Y-65556976D01*
X102288528Y-65556976D02*
X101821358Y-65504338D01*
X101821358Y-65504338D02*
X101709500Y-65767532D01*
X101709500Y-65767532D02*
X101834518Y-65984668D01*
X101834518Y-65984668D02*
X101926636Y-66168904D01*
X101926636Y-66168904D02*
X101762139Y-66557116D01*
X101762139Y-66557116D02*
X101638593Y-66575685D01*
X101638593Y-66575685D02*
X101572795Y-66483566D01*
X101572795Y-66483566D02*
X101474097Y-66358549D01*
X101474097Y-66358549D02*
X101289861Y-66345389D01*
X101289861Y-66345389D02*
X100875329Y-66707282D01*
X100875329Y-66707282D02*
X100723992Y-66740181D01*
X100723992Y-66740181D02*
X100730572Y-66437507D01*
X100730572Y-66437507D02*
X100427899Y-66404608D01*
X100427899Y-66404608D02*
X100355520Y-66490146D01*
X100355520Y-66490146D02*
X100144964Y-66582264D01*
X100144964Y-66582264D02*
X100145139Y-67158603D01*
X100145139Y-67158603D02*
X99987222Y-67355998D01*
X99987222Y-67355998D02*
X99849045Y-67316519D01*
X99849045Y-67316519D02*
X99842465Y-67105964D01*
X99842465Y-67105964D02*
X99237118Y-67125703D01*
X99237118Y-67125703D02*
X99243698Y-68402197D01*
X99243698Y-68402197D02*
X99085781Y-68356138D01*
X99085781Y-68356138D02*
X98908125Y-68139002D01*
X98908125Y-68139002D02*
X98533073Y-68191641D01*
X98533073Y-68191641D02*
X98269878Y-68389037D01*
X98269878Y-68389037D02*
X98243559Y-68540374D01*
X98243559Y-68540374D02*
X98329097Y-68599593D01*
X98329097Y-68599593D02*
X98394896Y-68632492D01*
X98394896Y-68632492D02*
X98421215Y-68783829D01*
X98421215Y-68783829D02*
X97842187Y-68810148D01*
X97842187Y-68810148D02*
X97605312Y-68908846D01*
X97605312Y-68908846D02*
X97414496Y-69033863D01*
X97414496Y-69033863D02*
X97394756Y-69204940D01*
X97394756Y-69204940D02*
X97559253Y-69178620D01*
X97559253Y-69178620D02*
X97763229Y-69540513D01*
X97763229Y-69540513D02*
X97888246Y-69593152D01*
X97888246Y-69593152D02*
X97894826Y-69947082D01*
X97894826Y-69947082D02*
X97539513Y-69960242D01*
X97539513Y-69960242D02*
X97532934Y-70716926D01*
X97532934Y-70716926D02*
X97098663Y-70716926D01*
X97098663Y-70716926D02*
X97111822Y-71249895D01*
X97111822Y-71249895D02*
X97361857Y-71486770D01*
X97361857Y-71486770D02*
X97473715Y-71592048D01*
X97473715Y-71592048D02*
X97401336Y-71763124D01*
X97401336Y-71763124D02*
X97227649Y-72110534D01*
X97227649Y-72110534D02*
X97085329Y-72299644D01*
X97085329Y-72299644D02*
X97044387Y-72677865D01*
X97044387Y-72677865D02*
X97212052Y-72736352D01*
X97212052Y-72736352D02*
X97214002Y-72806538D01*
X97214002Y-72806538D02*
X96849429Y-72804588D01*
X96849429Y-72804588D02*
X96750000Y-72750000D01*
X96750000Y-72750000D02*
X96000000Y-72500000D01*
X96000000Y-72500000D02*
X96000000Y-59500000D01*
X96000000Y-59500000D02*
X115000000Y-59250000D01*
X115000000Y-59250000D02*
X115250000Y-65000000D01*
G36*
X115250000Y-65000000D02*
G01*
X116500000Y-66250000D01*
X110454138Y-66038951D01*
X110006707Y-66065271D01*
X110006707Y-65920514D01*
X110230422Y-65709958D01*
X110230422Y-65486243D01*
X110111985Y-65459924D01*
X110105405Y-65111191D01*
X110006707Y-65051972D01*
X110000127Y-64834837D01*
X110118565Y-64716926D01*
X110618634Y-64697186D01*
X110612055Y-64539269D01*
X110118565Y-64552429D01*
X110092245Y-64427412D01*
X108993408Y-64453731D01*
X108986828Y-64177377D01*
X108355162Y-64177377D01*
X108348582Y-63999721D01*
X108611776Y-63762846D01*
X108611776Y-63611509D01*
X107868252Y-63624668D01*
X107841932Y-63387793D01*
X107703755Y-63387793D01*
X107611637Y-63203557D01*
X107302384Y-63223297D01*
X107256325Y-63381214D01*
X106973390Y-63400953D01*
X106966811Y-63111439D01*
X107006290Y-63032481D01*
X107039189Y-62848245D01*
X105696897Y-62907463D01*
X104795456Y-63525971D01*
X104690178Y-63550118D01*
X104624380Y-63398782D01*
X104315126Y-63385622D01*
X104315126Y-63833052D01*
X103841376Y-63912011D01*
X103808477Y-64346282D01*
X103025473Y-65260883D01*
X102597782Y-65333261D01*
X102466185Y-65524077D01*
X102288528Y-65556976D01*
X101821358Y-65504338D01*
X101709500Y-65767532D01*
X101834518Y-65984668D01*
X101926636Y-66168904D01*
X101762139Y-66557116D01*
X101638593Y-66575685D01*
X101572795Y-66483566D01*
X101474097Y-66358549D01*
X101289861Y-66345389D01*
X100875329Y-66707282D01*
X100723992Y-66740181D01*
X100730572Y-66437507D01*
X100427899Y-66404608D01*
X100355520Y-66490146D01*
X100144964Y-66582264D01*
X100145139Y-67158603D01*
X99987222Y-67355998D01*
X99849045Y-67316519D01*
X99842465Y-67105964D01*
X99237118Y-67125703D01*
X99243698Y-68402197D01*
X99085781Y-68356138D01*
X98908125Y-68139002D01*
X98533073Y-68191641D01*
X98269878Y-68389037D01*
X98243559Y-68540374D01*
X98329097Y-68599593D01*
X98394896Y-68632492D01*
X98421215Y-68783829D01*
X97842187Y-68810148D01*
X97605312Y-68908846D01*
X97414496Y-69033863D01*
X97394756Y-69204940D01*
X97559253Y-69178620D01*
X97763229Y-69540513D01*
X97888246Y-69593152D01*
X97894826Y-69947082D01*
X97539513Y-69960242D01*
X97532934Y-70716926D01*
X97098663Y-70716926D01*
X97111822Y-71249895D01*
X97361857Y-71486770D01*
X97473715Y-71592048D01*
X97401336Y-71763124D01*
X97227649Y-72110534D01*
X97085329Y-72299644D01*
X97044387Y-72677865D01*
X97212052Y-72736352D01*
X97214002Y-72806538D01*
X96849429Y-72804588D01*
X96750000Y-72750000D01*
X96000000Y-72500000D01*
X96000000Y-59500000D01*
X115000000Y-59250000D01*
X115250000Y-65000000D01*
G37*
X115250000Y-65000000D02*
X116500000Y-66250000D01*
X110454138Y-66038951D01*
X110006707Y-66065271D01*
X110006707Y-65920514D01*
X110230422Y-65709958D01*
X110230422Y-65486243D01*
X110111985Y-65459924D01*
X110105405Y-65111191D01*
X110006707Y-65051972D01*
X110000127Y-64834837D01*
X110118565Y-64716926D01*
X110618634Y-64697186D01*
X110612055Y-64539269D01*
X110118565Y-64552429D01*
X110092245Y-64427412D01*
X108993408Y-64453731D01*
X108986828Y-64177377D01*
X108355162Y-64177377D01*
X108348582Y-63999721D01*
X108611776Y-63762846D01*
X108611776Y-63611509D01*
X107868252Y-63624668D01*
X107841932Y-63387793D01*
X107703755Y-63387793D01*
X107611637Y-63203557D01*
X107302384Y-63223297D01*
X107256325Y-63381214D01*
X106973390Y-63400953D01*
X106966811Y-63111439D01*
X107006290Y-63032481D01*
X107039189Y-62848245D01*
X105696897Y-62907463D01*
X104795456Y-63525971D01*
X104690178Y-63550118D01*
X104624380Y-63398782D01*
X104315126Y-63385622D01*
X104315126Y-63833052D01*
X103841376Y-63912011D01*
X103808477Y-64346282D01*
X103025473Y-65260883D01*
X102597782Y-65333261D01*
X102466185Y-65524077D01*
X102288528Y-65556976D01*
X101821358Y-65504338D01*
X101709500Y-65767532D01*
X101834518Y-65984668D01*
X101926636Y-66168904D01*
X101762139Y-66557116D01*
X101638593Y-66575685D01*
X101572795Y-66483566D01*
X101474097Y-66358549D01*
X101289861Y-66345389D01*
X100875329Y-66707282D01*
X100723992Y-66740181D01*
X100730572Y-66437507D01*
X100427899Y-66404608D01*
X100355520Y-66490146D01*
X100144964Y-66582264D01*
X100145139Y-67158603D01*
X99987222Y-67355998D01*
X99849045Y-67316519D01*
X99842465Y-67105964D01*
X99237118Y-67125703D01*
X99243698Y-68402197D01*
X99085781Y-68356138D01*
X98908125Y-68139002D01*
X98533073Y-68191641D01*
X98269878Y-68389037D01*
X98243559Y-68540374D01*
X98329097Y-68599593D01*
X98394896Y-68632492D01*
X98421215Y-68783829D01*
X97842187Y-68810148D01*
X97605312Y-68908846D01*
X97414496Y-69033863D01*
X97394756Y-69204940D01*
X97559253Y-69178620D01*
X97763229Y-69540513D01*
X97888246Y-69593152D01*
X97894826Y-69947082D01*
X97539513Y-69960242D01*
X97532934Y-70716926D01*
X97098663Y-70716926D01*
X97111822Y-71249895D01*
X97361857Y-71486770D01*
X97473715Y-71592048D01*
X97401336Y-71763124D01*
X97227649Y-72110534D01*
X97085329Y-72299644D01*
X97044387Y-72677865D01*
X97212052Y-72736352D01*
X97214002Y-72806538D01*
X96849429Y-72804588D01*
X96750000Y-72750000D01*
X96000000Y-72500000D01*
X96000000Y-59500000D01*
X115000000Y-59250000D01*
X115250000Y-65000000D01*
D10*
X97000001Y-72000000D02*
X96750000Y-72500000D01*
X96750000Y-72500000D02*
X92822784Y-72485703D01*
X92822784Y-72485703D02*
X92821484Y-72614375D01*
X92821484Y-72614375D02*
X92061145Y-72618275D01*
X92061145Y-72618275D02*
X92057246Y-72714454D01*
X92057246Y-72714454D02*
X92042949Y-72736550D01*
X92042949Y-72736550D02*
X91962366Y-72739149D01*
X91962366Y-72739149D02*
X91936371Y-72763844D01*
X91936371Y-72763844D02*
X91929872Y-72957503D01*
X91929872Y-72957503D02*
X91923374Y-72974399D01*
X91923374Y-72974399D02*
X91909077Y-72989996D01*
X91909077Y-72989996D02*
X91803799Y-72991296D01*
X91803799Y-72991296D02*
X91811786Y-74026319D01*
X91811786Y-74026319D02*
X91677265Y-74032168D01*
X91677265Y-74032168D02*
X91678948Y-78941079D01*
X91678948Y-78941079D02*
X91552441Y-78941945D01*
X91552441Y-78941945D02*
X91559915Y-84616629D01*
X91559915Y-84616629D02*
X91454637Y-84619554D01*
X91454637Y-84619554D02*
X91448788Y-91320982D01*
X91448788Y-91320982D02*
X91320115Y-91320982D01*
X91320115Y-91320982D02*
X91320609Y-98686097D01*
X91320609Y-98686097D02*
X91200710Y-98689021D01*
X91200710Y-98689021D02*
X91200710Y-100625285D01*
X91200710Y-100625285D02*
X91300139Y-100634058D01*
X91300139Y-100634058D02*
X91314761Y-100680848D01*
X91314761Y-100680848D02*
X91335231Y-100862160D01*
X91335231Y-100862160D02*
X91361551Y-100879706D01*
X91361551Y-100879706D02*
X91420038Y-100876782D01*
X91420038Y-100876782D02*
X91434660Y-100891404D01*
X91434660Y-100891404D02*
X91437585Y-100926496D01*
X91437585Y-100926496D02*
X91452207Y-100990833D01*
X91452207Y-100990833D02*
X91498997Y-101002530D01*
X91498997Y-101002530D02*
X91537014Y-101014228D01*
X91537014Y-101014228D02*
X91548711Y-101066867D01*
X91548711Y-101066867D02*
X91566257Y-101107808D01*
X91566257Y-101107808D02*
X91592577Y-101131203D01*
X91592577Y-101131203D02*
X91779737Y-101134127D01*
X91779737Y-101134127D02*
X91788511Y-101134127D01*
X91788511Y-101134127D02*
X91803133Y-101154598D01*
X91803133Y-101154598D02*
X91803133Y-101189691D01*
X91803133Y-101189691D02*
X91808981Y-101227708D01*
X91808981Y-101227708D02*
X91835301Y-101254027D01*
X91835301Y-101254027D02*
X91873318Y-101251103D01*
X91873318Y-101251103D02*
X91896713Y-101251103D01*
X91896713Y-101251103D02*
X91911335Y-101256951D01*
X91911335Y-101256951D02*
X91923032Y-101277422D01*
X91923032Y-101277422D02*
X91923032Y-101312515D01*
X91923032Y-101312515D02*
X91925957Y-101397322D01*
X91925957Y-101397322D02*
X91934108Y-101412918D01*
X91934108Y-101412918D02*
X92151162Y-101411618D01*
X92151162Y-101411618D02*
X92171958Y-101419416D01*
X92171958Y-101419416D02*
X92186255Y-101433713D01*
X92186255Y-101433713D02*
X92184955Y-101461008D01*
X92184955Y-101461008D02*
X92191454Y-101507798D01*
X92191454Y-101507798D02*
X92209650Y-101533792D01*
X92209650Y-101533792D02*
X92249941Y-101538991D01*
X92249941Y-101538991D02*
X92287633Y-101537692D01*
X92287633Y-101537692D02*
X92311028Y-101549389D01*
X92311028Y-101549389D02*
X92314928Y-101588381D01*
X92314928Y-101588381D02*
X92311028Y-101662465D01*
X92311028Y-101662465D02*
X92338323Y-101666364D01*
X92338323Y-101666364D02*
X92694257Y-101663765D01*
X92694257Y-101663765D02*
X92695990Y-101752146D01*
X92695990Y-101752146D02*
X92699456Y-101765144D01*
X92699456Y-101765144D02*
X92715053Y-101782473D01*
X92715053Y-101782473D02*
X92739314Y-101787672D01*
X92739314Y-101787672D02*
X92760110Y-101790272D01*
X92760110Y-101790272D02*
X92810366Y-101791138D01*
X92810366Y-101791138D02*
X92893548Y-101794604D01*
X92893548Y-101794604D02*
X92925608Y-101798936D01*
X92925608Y-101798936D02*
X92938606Y-101804135D01*
X92938606Y-101804135D02*
X92945537Y-101817133D01*
X92945537Y-101817133D02*
X92948137Y-101866522D01*
X92948137Y-101866522D02*
X92954202Y-101889917D01*
X92954202Y-101889917D02*
X92968932Y-101904648D01*
X92968932Y-101904648D02*
X92990440Y-101915676D01*
X92990440Y-101915676D02*
X93020767Y-101920009D01*
X93020767Y-101920009D02*
X93134277Y-101926940D01*
X93134277Y-101926940D02*
X93183666Y-101936472D01*
X93183666Y-101936472D02*
X93197530Y-101968532D01*
X93197530Y-101968532D02*
X93203595Y-102003191D01*
X93203595Y-102003191D02*
X93224391Y-102036117D01*
X93224391Y-102036117D02*
X93289377Y-102046515D01*
X93289377Y-102046515D02*
X93304974Y-102045649D01*
X93304974Y-102045649D02*
X93324037Y-102060379D01*
X93324037Y-102060379D02*
X93326636Y-102089839D01*
X93326636Y-102089839D02*
X93330969Y-102136630D01*
X93330969Y-102136630D02*
X93345699Y-102163491D01*
X93345699Y-102163491D02*
X93389889Y-102173022D01*
X93389889Y-102173022D02*
X93436680Y-102174755D01*
X93436680Y-102174755D02*
X93433924Y-103460244D01*
X93433924Y-103460244D02*
X93444322Y-103468043D01*
X93444322Y-103468043D02*
X93540502Y-103467176D01*
X93540502Y-103467176D02*
X93556099Y-103483639D01*
X93556099Y-103483639D02*
X93560431Y-103531296D01*
X93560431Y-103531296D02*
X93565630Y-103663868D01*
X93565630Y-103663868D02*
X93574295Y-103703726D01*
X93574295Y-103703726D02*
X93597690Y-103717590D01*
X93597690Y-103717590D02*
X93687804Y-103717590D01*
X93687804Y-103717590D02*
X93689752Y-103985505D01*
X93689752Y-103985505D02*
X93694951Y-103992436D01*
X93694951Y-103992436D02*
X93816836Y-103993014D01*
X93816836Y-103993014D02*
X93816836Y-104368872D01*
X93816836Y-104368872D02*
X93822035Y-104373493D01*
X93822035Y-104373493D02*
X93905218Y-104374071D01*
X93905218Y-104374071D02*
X93923703Y-104374648D01*
X93923703Y-104374648D02*
X93936411Y-104387934D01*
X93936411Y-104387934D02*
X93943921Y-104423749D01*
X93943921Y-104423749D02*
X93945960Y-104576285D01*
X93945960Y-104576285D02*
X93955202Y-104610367D01*
X93955202Y-104610367D02*
X93973687Y-104624808D01*
X93973687Y-104624808D02*
X94071889Y-104625963D01*
X94071889Y-104625963D02*
X94070601Y-105004403D01*
X94070601Y-105004403D02*
X94072911Y-105009024D01*
X94072911Y-105009024D02*
X94168802Y-105008447D01*
X94168802Y-105008447D02*
X94194219Y-105026354D01*
X94194219Y-105026354D02*
X94199996Y-105103760D01*
X94199996Y-105103760D02*
X94219636Y-105130332D01*
X94219636Y-105130332D02*
X94300508Y-105137264D01*
X94300508Y-105137264D02*
X94321303Y-105151705D01*
X94321303Y-105151705D02*
X94326687Y-105229556D01*
X94326687Y-105229556D02*
X94346327Y-105254973D01*
X94346327Y-105254973D02*
X94435286Y-105265371D01*
X94435286Y-105265371D02*
X94448573Y-105283278D01*
X94448573Y-105283278D02*
X94450883Y-105331801D01*
X94450883Y-105331801D02*
X94450883Y-105404586D01*
X94450883Y-105404586D02*
X94452418Y-105408809D01*
X94452418Y-105408809D02*
X94456012Y-105410178D01*
X94456012Y-105410178D02*
X94663768Y-105412061D01*
X94663768Y-105412061D02*
X94694063Y-105418907D01*
X94694063Y-105418907D02*
X94703819Y-105435338D01*
X94703819Y-105435338D02*
X94707413Y-105503938D01*
X94707413Y-105503938D02*
X94725898Y-105531323D01*
X94725898Y-105531323D02*
X94770738Y-105536287D01*
X94770738Y-105536287D02*
X94805140Y-105538683D01*
X94805140Y-105538683D02*
X94827733Y-105554087D01*
X94827733Y-105554087D02*
X94832524Y-105596797D01*
X94832524Y-105596797D02*
X94834236Y-105630515D01*
X94834236Y-105630515D02*
X94851865Y-105656874D01*
X94851865Y-105656874D02*
X94853748Y-105658414D01*
X94853748Y-105658414D02*
X94860423Y-105659441D01*
X94860423Y-105659441D02*
X94933158Y-105666161D01*
X94933158Y-105666161D02*
X94954553Y-105680709D01*
X94954553Y-105680709D02*
X94959859Y-105724012D01*
X94959859Y-105724012D02*
X94962259Y-105758598D01*
X94962259Y-105758598D02*
X94980231Y-105786326D01*
X94980231Y-105786326D02*
X95021309Y-105790434D01*
X95021309Y-105790434D02*
X95060332Y-105792744D01*
X95060332Y-105792744D02*
X95082155Y-105807635D01*
X95082155Y-105807635D02*
X95087290Y-105853334D01*
X95087290Y-105853334D02*
X95087803Y-105878494D01*
X95087803Y-105878494D02*
X95102951Y-105908532D01*
X95102951Y-105908532D02*
X95106311Y-105912329D01*
X95106311Y-105912329D02*
X95165617Y-105920031D01*
X95165617Y-105920031D02*
X95186926Y-105933382D01*
X95186926Y-105933382D02*
X95194115Y-106011686D01*
X95194115Y-106011686D02*
X95212857Y-106040020D01*
X95212857Y-106040020D02*
X95249313Y-106043871D01*
X95249313Y-106043871D02*
X95291675Y-106047208D01*
X95291675Y-106047208D02*
X95314011Y-106060815D01*
X95314011Y-106060815D02*
X95321777Y-106137779D01*
X95321777Y-106137779D02*
X95339492Y-106165764D01*
X95339492Y-106165764D02*
X95419593Y-106173466D01*
X95419593Y-106173466D02*
X95441673Y-106188100D01*
X95441673Y-106188100D02*
X95447667Y-106240345D01*
X95447667Y-106240345D02*
X95448181Y-106265249D01*
X95448181Y-106265249D02*
X95467950Y-106294260D01*
X95467950Y-106294260D02*
X95546768Y-106300678D01*
X95546768Y-106300678D02*
X95568077Y-106315826D01*
X95568077Y-106315826D02*
X95573581Y-106362586D01*
X95573581Y-106362586D02*
X95575379Y-106392110D01*
X95575379Y-106392110D02*
X95594377Y-106420351D01*
X95594377Y-106420351D02*
X95641616Y-106425743D01*
X95641616Y-106425743D02*
X95700409Y-106425743D01*
X95700409Y-106425743D02*
X95700800Y-106694289D01*
X95700800Y-106694289D02*
X95701313Y-106699681D01*
X95701313Y-106699681D02*
X95706448Y-106701478D01*
X95706448Y-106701478D02*
X95800670Y-106702762D01*
X95800670Y-106702762D02*
X95822493Y-106717909D01*
X95822493Y-106717909D02*
X95826511Y-106759339D01*
X95826511Y-106759339D02*
X95830618Y-106801957D01*
X95830618Y-106801957D02*
X95848847Y-106821212D01*
X95848847Y-106821212D02*
X95888641Y-106826860D01*
X95888641Y-106826860D02*
X96039342Y-106829543D01*
X96039342Y-106829543D02*
X96068610Y-106835962D01*
X96068610Y-106835962D02*
X96080419Y-106851623D01*
X96080419Y-106851623D02*
X96081190Y-106985218D01*
X96081190Y-106985218D02*
X89500000Y-103750000D01*
X89500000Y-103750000D02*
X89500000Y-70750000D01*
X89500000Y-70750000D02*
X97000000Y-70750000D01*
X97000000Y-70750000D02*
X97000001Y-72000000D01*
G36*
X97000001Y-72000000D02*
G01*
X96750000Y-72500000D01*
X92822784Y-72485703D01*
X92821484Y-72614375D01*
X92061145Y-72618275D01*
X92057246Y-72714454D01*
X92042949Y-72736550D01*
X91962366Y-72739149D01*
X91936371Y-72763844D01*
X91929872Y-72957503D01*
X91923374Y-72974399D01*
X91909077Y-72989996D01*
X91803799Y-72991296D01*
X91811786Y-74026319D01*
X91677265Y-74032168D01*
X91678948Y-78941079D01*
X91552441Y-78941945D01*
X91559915Y-84616629D01*
X91454637Y-84619554D01*
X91448788Y-91320982D01*
X91320115Y-91320982D01*
X91320609Y-98686097D01*
X91200710Y-98689021D01*
X91200710Y-100625285D01*
X91300139Y-100634058D01*
X91314761Y-100680848D01*
X91335231Y-100862160D01*
X91361551Y-100879706D01*
X91420038Y-100876782D01*
X91434660Y-100891404D01*
X91437585Y-100926496D01*
X91452207Y-100990833D01*
X91498997Y-101002530D01*
X91537014Y-101014228D01*
X91548711Y-101066867D01*
X91566257Y-101107808D01*
X91592577Y-101131203D01*
X91779737Y-101134127D01*
X91788511Y-101134127D01*
X91803133Y-101154598D01*
X91803133Y-101189691D01*
X91808981Y-101227708D01*
X91835301Y-101254027D01*
X91873318Y-101251103D01*
X91896713Y-101251103D01*
X91911335Y-101256951D01*
X91923032Y-101277422D01*
X91923032Y-101312515D01*
X91925957Y-101397322D01*
X91934108Y-101412918D01*
X92151162Y-101411618D01*
X92171958Y-101419416D01*
X92186255Y-101433713D01*
X92184955Y-101461008D01*
X92191454Y-101507798D01*
X92209650Y-101533792D01*
X92249941Y-101538991D01*
X92287633Y-101537692D01*
X92311028Y-101549389D01*
X92314928Y-101588381D01*
X92311028Y-101662465D01*
X92338323Y-101666364D01*
X92694257Y-101663765D01*
X92695990Y-101752146D01*
X92699456Y-101765144D01*
X92715053Y-101782473D01*
X92739314Y-101787672D01*
X92760110Y-101790272D01*
X92810366Y-101791138D01*
X92893548Y-101794604D01*
X92925608Y-101798936D01*
X92938606Y-101804135D01*
X92945537Y-101817133D01*
X92948137Y-101866522D01*
X92954202Y-101889917D01*
X92968932Y-101904648D01*
X92990440Y-101915676D01*
X93020767Y-101920009D01*
X93134277Y-101926940D01*
X93183666Y-101936472D01*
X93197530Y-101968532D01*
X93203595Y-102003191D01*
X93224391Y-102036117D01*
X93289377Y-102046515D01*
X93304974Y-102045649D01*
X93324037Y-102060379D01*
X93326636Y-102089839D01*
X93330969Y-102136630D01*
X93345699Y-102163491D01*
X93389889Y-102173022D01*
X93436680Y-102174755D01*
X93433924Y-103460244D01*
X93444322Y-103468043D01*
X93540502Y-103467176D01*
X93556099Y-103483639D01*
X93560431Y-103531296D01*
X93565630Y-103663868D01*
X93574295Y-103703726D01*
X93597690Y-103717590D01*
X93687804Y-103717590D01*
X93689752Y-103985505D01*
X93694951Y-103992436D01*
X93816836Y-103993014D01*
X93816836Y-104368872D01*
X93822035Y-104373493D01*
X93905218Y-104374071D01*
X93923703Y-104374648D01*
X93936411Y-104387934D01*
X93943921Y-104423749D01*
X93945960Y-104576285D01*
X93955202Y-104610367D01*
X93973687Y-104624808D01*
X94071889Y-104625963D01*
X94070601Y-105004403D01*
X94072911Y-105009024D01*
X94168802Y-105008447D01*
X94194219Y-105026354D01*
X94199996Y-105103760D01*
X94219636Y-105130332D01*
X94300508Y-105137264D01*
X94321303Y-105151705D01*
X94326687Y-105229556D01*
X94346327Y-105254973D01*
X94435286Y-105265371D01*
X94448573Y-105283278D01*
X94450883Y-105331801D01*
X94450883Y-105404586D01*
X94452418Y-105408809D01*
X94456012Y-105410178D01*
X94663768Y-105412061D01*
X94694063Y-105418907D01*
X94703819Y-105435338D01*
X94707413Y-105503938D01*
X94725898Y-105531323D01*
X94770738Y-105536287D01*
X94805140Y-105538683D01*
X94827733Y-105554087D01*
X94832524Y-105596797D01*
X94834236Y-105630515D01*
X94851865Y-105656874D01*
X94853748Y-105658414D01*
X94860423Y-105659441D01*
X94933158Y-105666161D01*
X94954553Y-105680709D01*
X94959859Y-105724012D01*
X94962259Y-105758598D01*
X94980231Y-105786326D01*
X95021309Y-105790434D01*
X95060332Y-105792744D01*
X95082155Y-105807635D01*
X95087290Y-105853334D01*
X95087803Y-105878494D01*
X95102951Y-105908532D01*
X95106311Y-105912329D01*
X95165617Y-105920031D01*
X95186926Y-105933382D01*
X95194115Y-106011686D01*
X95212857Y-106040020D01*
X95249313Y-106043871D01*
X95291675Y-106047208D01*
X95314011Y-106060815D01*
X95321777Y-106137779D01*
X95339492Y-106165764D01*
X95419593Y-106173466D01*
X95441673Y-106188100D01*
X95447667Y-106240345D01*
X95448181Y-106265249D01*
X95467950Y-106294260D01*
X95546768Y-106300678D01*
X95568077Y-106315826D01*
X95573581Y-106362586D01*
X95575379Y-106392110D01*
X95594377Y-106420351D01*
X95641616Y-106425743D01*
X95700409Y-106425743D01*
X95700800Y-106694289D01*
X95701313Y-106699681D01*
X95706448Y-106701478D01*
X95800670Y-106702762D01*
X95822493Y-106717909D01*
X95826511Y-106759339D01*
X95830618Y-106801957D01*
X95848847Y-106821212D01*
X95888641Y-106826860D01*
X96039342Y-106829543D01*
X96068610Y-106835962D01*
X96080419Y-106851623D01*
X96081190Y-106985218D01*
X89500000Y-103750000D01*
X89500000Y-70750000D01*
X97000000Y-70750000D01*
X97000001Y-72000000D01*
G37*
X97000001Y-72000000D02*
X96750000Y-72500000D01*
X92822784Y-72485703D01*
X92821484Y-72614375D01*
X92061145Y-72618275D01*
X92057246Y-72714454D01*
X92042949Y-72736550D01*
X91962366Y-72739149D01*
X91936371Y-72763844D01*
X91929872Y-72957503D01*
X91923374Y-72974399D01*
X91909077Y-72989996D01*
X91803799Y-72991296D01*
X91811786Y-74026319D01*
X91677265Y-74032168D01*
X91678948Y-78941079D01*
X91552441Y-78941945D01*
X91559915Y-84616629D01*
X91454637Y-84619554D01*
X91448788Y-91320982D01*
X91320115Y-91320982D01*
X91320609Y-98686097D01*
X91200710Y-98689021D01*
X91200710Y-100625285D01*
X91300139Y-100634058D01*
X91314761Y-100680848D01*
X91335231Y-100862160D01*
X91361551Y-100879706D01*
X91420038Y-100876782D01*
X91434660Y-100891404D01*
X91437585Y-100926496D01*
X91452207Y-100990833D01*
X91498997Y-101002530D01*
X91537014Y-101014228D01*
X91548711Y-101066867D01*
X91566257Y-101107808D01*
X91592577Y-101131203D01*
X91779737Y-101134127D01*
X91788511Y-101134127D01*
X91803133Y-101154598D01*
X91803133Y-101189691D01*
X91808981Y-101227708D01*
X91835301Y-101254027D01*
X91873318Y-101251103D01*
X91896713Y-101251103D01*
X91911335Y-101256951D01*
X91923032Y-101277422D01*
X91923032Y-101312515D01*
X91925957Y-101397322D01*
X91934108Y-101412918D01*
X92151162Y-101411618D01*
X92171958Y-101419416D01*
X92186255Y-101433713D01*
X92184955Y-101461008D01*
X92191454Y-101507798D01*
X92209650Y-101533792D01*
X92249941Y-101538991D01*
X92287633Y-101537692D01*
X92311028Y-101549389D01*
X92314928Y-101588381D01*
X92311028Y-101662465D01*
X92338323Y-101666364D01*
X92694257Y-101663765D01*
X92695990Y-101752146D01*
X92699456Y-101765144D01*
X92715053Y-101782473D01*
X92739314Y-101787672D01*
X92760110Y-101790272D01*
X92810366Y-101791138D01*
X92893548Y-101794604D01*
X92925608Y-101798936D01*
X92938606Y-101804135D01*
X92945537Y-101817133D01*
X92948137Y-101866522D01*
X92954202Y-101889917D01*
X92968932Y-101904648D01*
X92990440Y-101915676D01*
X93020767Y-101920009D01*
X93134277Y-101926940D01*
X93183666Y-101936472D01*
X93197530Y-101968532D01*
X93203595Y-102003191D01*
X93224391Y-102036117D01*
X93289377Y-102046515D01*
X93304974Y-102045649D01*
X93324037Y-102060379D01*
X93326636Y-102089839D01*
X93330969Y-102136630D01*
X93345699Y-102163491D01*
X93389889Y-102173022D01*
X93436680Y-102174755D01*
X93433924Y-103460244D01*
X93444322Y-103468043D01*
X93540502Y-103467176D01*
X93556099Y-103483639D01*
X93560431Y-103531296D01*
X93565630Y-103663868D01*
X93574295Y-103703726D01*
X93597690Y-103717590D01*
X93687804Y-103717590D01*
X93689752Y-103985505D01*
X93694951Y-103992436D01*
X93816836Y-103993014D01*
X93816836Y-104368872D01*
X93822035Y-104373493D01*
X93905218Y-104374071D01*
X93923703Y-104374648D01*
X93936411Y-104387934D01*
X93943921Y-104423749D01*
X93945960Y-104576285D01*
X93955202Y-104610367D01*
X93973687Y-104624808D01*
X94071889Y-104625963D01*
X94070601Y-105004403D01*
X94072911Y-105009024D01*
X94168802Y-105008447D01*
X94194219Y-105026354D01*
X94199996Y-105103760D01*
X94219636Y-105130332D01*
X94300508Y-105137264D01*
X94321303Y-105151705D01*
X94326687Y-105229556D01*
X94346327Y-105254973D01*
X94435286Y-105265371D01*
X94448573Y-105283278D01*
X94450883Y-105331801D01*
X94450883Y-105404586D01*
X94452418Y-105408809D01*
X94456012Y-105410178D01*
X94663768Y-105412061D01*
X94694063Y-105418907D01*
X94703819Y-105435338D01*
X94707413Y-105503938D01*
X94725898Y-105531323D01*
X94770738Y-105536287D01*
X94805140Y-105538683D01*
X94827733Y-105554087D01*
X94832524Y-105596797D01*
X94834236Y-105630515D01*
X94851865Y-105656874D01*
X94853748Y-105658414D01*
X94860423Y-105659441D01*
X94933158Y-105666161D01*
X94954553Y-105680709D01*
X94959859Y-105724012D01*
X94962259Y-105758598D01*
X94980231Y-105786326D01*
X95021309Y-105790434D01*
X95060332Y-105792744D01*
X95082155Y-105807635D01*
X95087290Y-105853334D01*
X95087803Y-105878494D01*
X95102951Y-105908532D01*
X95106311Y-105912329D01*
X95165617Y-105920031D01*
X95186926Y-105933382D01*
X95194115Y-106011686D01*
X95212857Y-106040020D01*
X95249313Y-106043871D01*
X95291675Y-106047208D01*
X95314011Y-106060815D01*
X95321777Y-106137779D01*
X95339492Y-106165764D01*
X95419593Y-106173466D01*
X95441673Y-106188100D01*
X95447667Y-106240345D01*
X95448181Y-106265249D01*
X95467950Y-106294260D01*
X95546768Y-106300678D01*
X95568077Y-106315826D01*
X95573581Y-106362586D01*
X95575379Y-106392110D01*
X95594377Y-106420351D01*
X95641616Y-106425743D01*
X95700409Y-106425743D01*
X95700800Y-106694289D01*
X95701313Y-106699681D01*
X95706448Y-106701478D01*
X95800670Y-106702762D01*
X95822493Y-106717909D01*
X95826511Y-106759339D01*
X95830618Y-106801957D01*
X95848847Y-106821212D01*
X95888641Y-106826860D01*
X96039342Y-106829543D01*
X96068610Y-106835962D01*
X96080419Y-106851623D01*
X96081190Y-106985218D01*
X89500000Y-103750000D01*
X89500000Y-70750000D01*
X97000000Y-70750000D01*
X97000001Y-72000000D01*
X122500000Y-88250000D02*
X122500000Y-88750000D01*
X122500000Y-88750000D02*
X122250000Y-89500000D01*
X122250000Y-89500000D02*
X122250000Y-90500000D01*
X122250000Y-90500000D02*
X122750000Y-91250000D01*
X122750000Y-91250000D02*
X123000000Y-91750000D01*
X123000000Y-91750000D02*
X122750000Y-92750000D01*
X122750000Y-92750000D02*
X121750000Y-93750000D01*
X121750000Y-93750000D02*
X119750000Y-93750000D01*
X119750000Y-93750000D02*
X119000000Y-93000000D01*
X119000000Y-93000000D02*
X118750000Y-92000000D01*
X118750000Y-92000000D02*
X119250000Y-91000000D01*
X119250000Y-91000000D02*
X119750000Y-90500000D01*
X119750000Y-90500000D02*
X120250000Y-90250000D01*
X120250000Y-90250000D02*
X120500000Y-89500000D01*
X120500000Y-89500000D02*
X120750000Y-88500000D01*
X120750000Y-88500000D02*
X121500000Y-87750000D01*
X121500000Y-87750000D02*
X122500000Y-88250000D01*
G36*
X122500000Y-88250000D02*
G01*
X122500000Y-88750000D01*
X122250000Y-89500000D01*
X122250000Y-90500000D01*
X122750000Y-91250000D01*
X123000000Y-91750000D01*
X122750000Y-92750000D01*
X121750000Y-93750000D01*
X119750000Y-93750000D01*
X119000000Y-93000000D01*
X118750000Y-92000000D01*
X119250000Y-91000000D01*
X119750000Y-90500000D01*
X120250000Y-90250000D01*
X120500000Y-89500000D01*
X120750000Y-88500000D01*
X121500000Y-87750000D01*
X122500000Y-88250000D01*
G37*
X122500000Y-88250000D02*
X122500000Y-88750000D01*
X122250000Y-89500000D01*
X122250000Y-90500000D01*
X122750000Y-91250000D01*
X123000000Y-91750000D01*
X122750000Y-92750000D01*
X121750000Y-93750000D01*
X119750000Y-93750000D01*
X119000000Y-93000000D01*
X118750000Y-92000000D01*
X119250000Y-91000000D01*
X119750000Y-90500000D01*
X120250000Y-90250000D01*
X120500000Y-89500000D01*
X120750000Y-88500000D01*
X121500000Y-87750000D01*
X122500000Y-88250000D01*
D12*
%TO.C,G\u002A\u002A\u002A*%
X117644822Y-72312670D02*
X117771703Y-72314182D01*
X117771703Y-72314182D02*
X117938550Y-72316079D01*
X117938550Y-72316079D02*
X118142997Y-72318335D01*
X118142997Y-72318335D02*
X118382677Y-72320928D01*
X118382677Y-72320928D02*
X118655225Y-72323833D01*
X118655225Y-72323833D02*
X118958275Y-72327025D01*
X118958275Y-72327025D02*
X119289461Y-72330480D01*
X119289461Y-72330480D02*
X119646418Y-72334175D01*
X119646418Y-72334175D02*
X120026779Y-72338084D01*
X120026779Y-72338084D02*
X120428178Y-72342184D01*
X120428178Y-72342184D02*
X120848251Y-72346449D01*
X120848251Y-72346449D02*
X121284630Y-72350857D01*
X121284630Y-72350857D02*
X121734949Y-72355383D01*
X121734949Y-72355383D02*
X122196844Y-72360002D01*
X122196844Y-72360002D02*
X122667949Y-72364691D01*
X122667949Y-72364691D02*
X123145896Y-72369424D01*
X123145896Y-72369424D02*
X123628321Y-72374178D01*
X123628321Y-72374178D02*
X124030167Y-72378120D01*
X124030167Y-72378120D02*
X124516845Y-72382890D01*
X124516845Y-72382890D02*
X125002252Y-72387659D01*
X125002252Y-72387659D02*
X125483937Y-72392403D01*
X125483937Y-72392403D02*
X125959454Y-72397098D01*
X125959454Y-72397098D02*
X126426352Y-72401718D01*
X126426352Y-72401718D02*
X126882183Y-72406240D01*
X126882183Y-72406240D02*
X127324499Y-72410639D01*
X127324499Y-72410639D02*
X127750850Y-72414890D01*
X127750850Y-72414890D02*
X128158788Y-72418969D01*
X128158788Y-72418969D02*
X128545864Y-72422851D01*
X128545864Y-72422851D02*
X128909630Y-72426512D01*
X128909630Y-72426512D02*
X129247637Y-72429928D01*
X129247637Y-72429928D02*
X129557436Y-72433073D01*
X129557436Y-72433073D02*
X129836578Y-72435924D01*
X129836578Y-72435924D02*
X130082615Y-72438455D01*
X130082615Y-72438455D02*
X130293097Y-72440643D01*
X130293097Y-72440643D02*
X130465577Y-72442463D01*
X130465577Y-72442463D02*
X130570667Y-72443594D01*
X130570667Y-72443594D02*
X131872417Y-72457792D01*
X131872417Y-72457792D02*
X135841167Y-74194201D01*
X135841167Y-74194201D02*
X136230606Y-74364594D01*
X136230606Y-74364594D02*
X136609659Y-74530452D01*
X136609659Y-74530452D02*
X136976508Y-74690980D01*
X136976508Y-74690980D02*
X137329335Y-74845382D01*
X137329335Y-74845382D02*
X137666321Y-74992861D01*
X137666321Y-74992861D02*
X137985649Y-75132623D01*
X137985649Y-75132623D02*
X138285499Y-75263870D01*
X138285499Y-75263870D02*
X138564055Y-75385807D01*
X138564055Y-75385807D02*
X138819498Y-75497638D01*
X138819498Y-75497638D02*
X139050009Y-75598566D01*
X139050009Y-75598566D02*
X139253770Y-75687797D01*
X139253770Y-75687797D02*
X139428964Y-75764534D01*
X139428964Y-75764534D02*
X139573773Y-75827981D01*
X139573773Y-75827981D02*
X139686377Y-75877342D01*
X139686377Y-75877342D02*
X139764959Y-75911820D01*
X139764959Y-75911820D02*
X139807700Y-75930622D01*
X139807700Y-75930622D02*
X139815403Y-75934056D01*
X139815403Y-75934056D02*
X139811457Y-75954749D01*
X139811457Y-75954749D02*
X139799328Y-76015785D01*
X139799328Y-76015785D02*
X139779247Y-76116018D01*
X139779247Y-76116018D02*
X139751447Y-76254301D01*
X139751447Y-76254301D02*
X139716161Y-76429489D01*
X139716161Y-76429489D02*
X139673619Y-76640437D01*
X139673619Y-76640437D02*
X139624055Y-76885997D01*
X139624055Y-76885997D02*
X139567701Y-77165025D01*
X139567701Y-77165025D02*
X139504789Y-77476374D01*
X139504789Y-77476374D02*
X139435552Y-77818899D01*
X139435552Y-77818899D02*
X139360221Y-78191453D01*
X139360221Y-78191453D02*
X139279029Y-78592891D01*
X139279029Y-78592891D02*
X139192208Y-79022067D01*
X139192208Y-79022067D02*
X139099990Y-79477835D01*
X139099990Y-79477835D02*
X139002608Y-79959049D01*
X139002608Y-79959049D02*
X138900294Y-80464563D01*
X138900294Y-80464563D02*
X138793280Y-80993232D01*
X138793280Y-80993232D02*
X138681798Y-81543910D01*
X138681798Y-81543910D02*
X138566080Y-82115450D01*
X138566080Y-82115450D02*
X138446360Y-82706707D01*
X138446360Y-82706707D02*
X138322868Y-83316535D01*
X138322868Y-83316535D02*
X138195838Y-83943788D01*
X138195838Y-83943788D02*
X138065502Y-84587320D01*
X138065502Y-84587320D02*
X137932091Y-85245985D01*
X137932091Y-85245985D02*
X137795838Y-85918638D01*
X137795838Y-85918638D02*
X137656975Y-86604133D01*
X137656975Y-86604133D02*
X137515735Y-87301323D01*
X137515735Y-87301323D02*
X137372350Y-88009063D01*
X137372350Y-88009063D02*
X137227052Y-88726207D01*
X137227052Y-88726207D02*
X137080073Y-89451609D01*
X137080073Y-89451609D02*
X136931646Y-90184124D01*
X136931646Y-90184124D02*
X136782002Y-90922604D01*
X136782002Y-90922604D02*
X136631374Y-91665906D01*
X136631374Y-91665906D02*
X136479995Y-92412881D01*
X136479995Y-92412881D02*
X136328096Y-93162386D01*
X136328096Y-93162386D02*
X136175910Y-93913274D01*
X136175910Y-93913274D02*
X136023669Y-94664398D01*
X136023669Y-94664398D02*
X135871605Y-95414614D01*
X135871605Y-95414614D02*
X135719951Y-96162775D01*
X135719951Y-96162775D02*
X135568938Y-96907735D01*
X135568938Y-96907735D02*
X135418800Y-97648349D01*
X135418800Y-97648349D02*
X135269767Y-98383470D01*
X135269767Y-98383470D02*
X135122073Y-99111954D01*
X135122073Y-99111954D02*
X134975950Y-99832653D01*
X134975950Y-99832653D02*
X134831630Y-100544422D01*
X134831630Y-100544422D02*
X134689345Y-101246115D01*
X134689345Y-101246115D02*
X134549327Y-101936587D01*
X134549327Y-101936587D02*
X134411809Y-102614691D01*
X134411809Y-102614691D02*
X134277024Y-103279282D01*
X134277024Y-103279282D02*
X134145202Y-103929213D01*
X134145202Y-103929213D02*
X134016577Y-104563340D01*
X134016577Y-104563340D02*
X133891380Y-105180515D01*
X133891380Y-105180515D02*
X133769844Y-105779593D01*
X133769844Y-105779593D02*
X133652202Y-106359428D01*
X133652202Y-106359428D02*
X133538685Y-106918875D01*
X133538685Y-106918875D02*
X133429526Y-107456787D01*
X133429526Y-107456787D02*
X133324956Y-107972019D01*
X133324956Y-107972019D02*
X133225209Y-108463425D01*
X133225209Y-108463425D02*
X133130517Y-108929858D01*
X133130517Y-108929858D02*
X133041110Y-109370173D01*
X133041110Y-109370173D02*
X132957223Y-109783225D01*
X132957223Y-109783225D02*
X132879087Y-110167866D01*
X132879087Y-110167866D02*
X132806935Y-110522952D01*
X132806935Y-110522952D02*
X132740998Y-110847337D01*
X132740998Y-110847337D02*
X132681509Y-111139874D01*
X132681509Y-111139874D02*
X132628700Y-111399418D01*
X132628700Y-111399418D02*
X132582803Y-111624823D01*
X132582803Y-111624823D02*
X132544051Y-111814943D01*
X132544051Y-111814943D02*
X132512676Y-111968632D01*
X132512676Y-111968632D02*
X132488911Y-112084744D01*
X132488911Y-112084744D02*
X132472986Y-112162133D01*
X132472986Y-112162133D02*
X132465135Y-112199655D01*
X132465135Y-112199655D02*
X132464335Y-112203167D01*
X132464335Y-112203167D02*
X132443875Y-112212611D01*
X132443875Y-112212611D02*
X132385215Y-112235376D01*
X132385215Y-112235376D02*
X132290129Y-112270837D01*
X132290129Y-112270837D02*
X132160386Y-112318370D01*
X132160386Y-112318370D02*
X131997758Y-112377349D01*
X131997758Y-112377349D02*
X131804017Y-112447149D01*
X131804017Y-112447149D02*
X131580934Y-112527146D01*
X131580934Y-112527146D02*
X131330279Y-112616715D01*
X131330279Y-112616715D02*
X131053826Y-112715231D01*
X131053826Y-112715231D02*
X130753344Y-112822069D01*
X130753344Y-112822069D02*
X130430606Y-112936605D01*
X130430606Y-112936605D02*
X130087382Y-113058212D01*
X130087382Y-113058212D02*
X129725444Y-113186267D01*
X129725444Y-113186267D02*
X129346563Y-113320145D01*
X129346563Y-113320145D02*
X128952511Y-113459220D01*
X128952511Y-113459220D02*
X128545059Y-113602868D01*
X128545059Y-113602868D02*
X128125979Y-113750465D01*
X128125979Y-113750465D02*
X127697041Y-113901384D01*
X127697041Y-113901384D02*
X127260017Y-114055001D01*
X127260017Y-114055001D02*
X126816679Y-114210692D01*
X126816679Y-114210692D02*
X126368797Y-114367832D01*
X126368797Y-114367832D02*
X125918144Y-114525795D01*
X125918144Y-114525795D02*
X125466490Y-114683956D01*
X125466490Y-114683956D02*
X125015607Y-114841692D01*
X125015607Y-114841692D02*
X124567266Y-114998377D01*
X124567266Y-114998377D02*
X124123238Y-115153386D01*
X124123238Y-115153386D02*
X123685296Y-115306094D01*
X123685296Y-115306094D02*
X123255210Y-115455876D01*
X123255210Y-115455876D02*
X122834751Y-115602108D01*
X122834751Y-115602108D02*
X122474417Y-115727255D01*
X122474417Y-115727255D02*
X122220417Y-115815411D01*
X122220417Y-115815411D02*
X113495084Y-111146247D01*
X113495084Y-111146247D02*
X104769750Y-106477084D01*
X104769750Y-106477084D02*
X104123572Y-105613160D01*
X104123572Y-105613160D02*
X104065750Y-104669289D01*
X104065750Y-104669289D02*
X104048228Y-104382416D01*
X104048228Y-104382416D02*
X104033241Y-104134219D01*
X104033241Y-104134219D02*
X104020669Y-103921121D01*
X104020669Y-103921121D02*
X104010390Y-103739548D01*
X104010390Y-103739548D02*
X104002282Y-103585923D01*
X104002282Y-103585923D02*
X103996224Y-103456673D01*
X103996224Y-103456673D02*
X103992093Y-103348222D01*
X103992093Y-103348222D02*
X103989769Y-103256994D01*
X103989769Y-103256994D02*
X103989129Y-103179415D01*
X103989129Y-103179415D02*
X103990052Y-103111909D01*
X103990052Y-103111909D02*
X103992416Y-103050902D01*
X103992416Y-103050902D02*
X103996100Y-102992818D01*
X103996100Y-102992818D02*
X104000982Y-102934082D01*
X104000982Y-102934082D02*
X104005174Y-102889334D01*
X104005174Y-102889334D02*
X104047950Y-102552409D01*
X104047950Y-102552409D02*
X104108759Y-102248687D01*
X104108759Y-102248687D02*
X104188982Y-101972447D01*
X104188982Y-101972447D02*
X104286737Y-101725167D01*
X104286737Y-101725167D02*
X104338651Y-101623613D01*
X104338651Y-101623613D02*
X104409009Y-101504872D01*
X104409009Y-101504872D02*
X104492693Y-101375923D01*
X104492693Y-101375923D02*
X104584587Y-101243743D01*
X104584587Y-101243743D02*
X104679574Y-101115310D01*
X104679574Y-101115310D02*
X104772537Y-100997600D01*
X104772537Y-100997600D02*
X104858361Y-100897592D01*
X104858361Y-100897592D02*
X104931927Y-100822263D01*
X104931927Y-100822263D02*
X104974662Y-100787065D01*
X104974662Y-100787065D02*
X105058911Y-100744923D01*
X105058911Y-100744923D02*
X105143213Y-100730448D01*
X105143213Y-100730448D02*
X105216065Y-100744443D01*
X105216065Y-100744443D02*
X105250475Y-100767808D01*
X105250475Y-100767808D02*
X105274417Y-100779658D01*
X105274417Y-100779658D02*
X105335674Y-100805572D01*
X105335674Y-100805572D02*
X105431955Y-100844663D01*
X105431955Y-100844663D02*
X105560970Y-100896042D01*
X105560970Y-100896042D02*
X105720429Y-100958821D01*
X105720429Y-100958821D02*
X105908041Y-101032113D01*
X105908041Y-101032113D02*
X106121517Y-101115028D01*
X106121517Y-101115028D02*
X106358566Y-101206679D01*
X106358566Y-101206679D02*
X106616897Y-101306178D01*
X106616897Y-101306178D02*
X106894222Y-101412637D01*
X106894222Y-101412637D02*
X107188248Y-101525168D01*
X107188248Y-101525168D02*
X107496687Y-101642882D01*
X107496687Y-101642882D02*
X107817247Y-101764892D01*
X107817247Y-101764892D02*
X108039183Y-101849176D01*
X108039183Y-101849176D02*
X108366169Y-101973315D01*
X108366169Y-101973315D02*
X108682331Y-102093484D01*
X108682331Y-102093484D02*
X108985402Y-102208815D01*
X108985402Y-102208815D02*
X109273113Y-102318438D01*
X109273113Y-102318438D02*
X109543198Y-102421486D01*
X109543198Y-102421486D02*
X109793390Y-102517090D01*
X109793390Y-102517090D02*
X110021421Y-102604382D01*
X110021421Y-102604382D02*
X110225025Y-102682492D01*
X110225025Y-102682492D02*
X110401934Y-102750553D01*
X110401934Y-102750553D02*
X110549881Y-102807697D01*
X110549881Y-102807697D02*
X110666598Y-102853053D01*
X110666598Y-102853053D02*
X110749819Y-102885755D01*
X110749819Y-102885755D02*
X110797276Y-102904933D01*
X110797276Y-102904933D02*
X110807980Y-102909824D01*
X110807980Y-102909824D02*
X110802168Y-102931601D01*
X110802168Y-102931601D02*
X110777424Y-102985434D01*
X110777424Y-102985434D02*
X110736130Y-103066803D01*
X110736130Y-103066803D02*
X110680666Y-103171185D01*
X110680666Y-103171185D02*
X110613412Y-103294061D01*
X110613412Y-103294061D02*
X110536751Y-103430908D01*
X110536751Y-103430908D02*
X110494252Y-103505577D01*
X110494252Y-103505577D02*
X110162960Y-104084577D01*
X110162960Y-104084577D02*
X110186818Y-104508247D01*
X110186818Y-104508247D02*
X110210675Y-104931917D01*
X110210675Y-104931917D02*
X110658971Y-105383265D01*
X110658971Y-105383265D02*
X111129279Y-105500912D01*
X111129279Y-105500912D02*
X111599587Y-105618560D01*
X111599587Y-105618560D02*
X112182062Y-105545101D01*
X112182062Y-105545101D02*
X112372933Y-105520288D01*
X112372933Y-105520288D02*
X112584989Y-105491468D01*
X112584989Y-105491468D02*
X112804098Y-105460644D01*
X112804098Y-105460644D02*
X113016129Y-105429820D01*
X113016129Y-105429820D02*
X113206950Y-105400999D01*
X113206950Y-105400999D02*
X113285938Y-105388611D01*
X113285938Y-105388611D02*
X113807340Y-105305579D01*
X113807340Y-105305579D02*
X113909716Y-105415081D01*
X113909716Y-105415081D02*
X113964742Y-105474510D01*
X113964742Y-105474510D02*
X114038343Y-105554788D01*
X114038343Y-105554788D02*
X114120796Y-105645279D01*
X114120796Y-105645279D02*
X114200403Y-105733154D01*
X114200403Y-105733154D02*
X114388714Y-105941725D01*
X114388714Y-105941725D02*
X114552078Y-106378738D01*
X114552078Y-106378738D02*
X114715443Y-106815750D01*
X114715443Y-106815750D02*
X114715826Y-107461334D01*
X114715826Y-107461334D02*
X114716210Y-108106917D01*
X114716210Y-108106917D02*
X114824822Y-108614917D01*
X114824822Y-108614917D02*
X114855892Y-108756759D01*
X114855892Y-108756759D02*
X114885464Y-108885291D01*
X114885464Y-108885291D02*
X114912049Y-108994549D01*
X114912049Y-108994549D02*
X114934161Y-109078570D01*
X114934161Y-109078570D02*
X114950313Y-109131388D01*
X114950313Y-109131388D02*
X114957426Y-109146757D01*
X114957426Y-109146757D02*
X114979015Y-109159396D01*
X114979015Y-109159396D02*
X115035860Y-109190187D01*
X115035860Y-109190187D02*
X115125586Y-109237891D01*
X115125586Y-109237891D02*
X115245818Y-109301269D01*
X115245818Y-109301269D02*
X115394180Y-109379082D01*
X115394180Y-109379082D02*
X115568298Y-109470092D01*
X115568298Y-109470092D02*
X115765797Y-109573058D01*
X115765797Y-109573058D02*
X115984301Y-109686743D01*
X115984301Y-109686743D02*
X116221435Y-109809907D01*
X116221435Y-109809907D02*
X116474824Y-109941311D01*
X116474824Y-109941311D02*
X116742094Y-110079716D01*
X116742094Y-110079716D02*
X117020868Y-110223884D01*
X117020868Y-110223884D02*
X117160763Y-110296159D01*
X117160763Y-110296159D02*
X119340110Y-111421720D01*
X119340110Y-111421720D02*
X119681170Y-111375801D01*
X119681170Y-111375801D02*
X120022231Y-111329883D01*
X120022231Y-111329883D02*
X120623907Y-111017007D01*
X120623907Y-111017007D02*
X121225584Y-110704130D01*
X121225584Y-110704130D02*
X121648122Y-110151649D01*
X121648122Y-110151649D02*
X122070660Y-109599167D01*
X122070660Y-109599167D02*
X123072339Y-109599167D01*
X123072339Y-109599167D02*
X123628270Y-109274518D01*
X123628270Y-109274518D02*
X124184202Y-108949869D01*
X124184202Y-108949869D02*
X124284281Y-108665976D01*
X124284281Y-108665976D02*
X124385559Y-108388603D01*
X124385559Y-108388603D02*
X124480765Y-108149707D01*
X124480765Y-108149707D02*
X124571744Y-107946178D01*
X124571744Y-107946178D02*
X124660339Y-107774906D01*
X124660339Y-107774906D02*
X124748395Y-107632781D01*
X124748395Y-107632781D02*
X124837756Y-107516693D01*
X124837756Y-107516693D02*
X124930266Y-107423532D01*
X124930266Y-107423532D02*
X125027770Y-107350189D01*
X125027770Y-107350189D02*
X125084044Y-107317250D01*
X125084044Y-107317250D02*
X125221379Y-107255781D01*
X125221379Y-107255781D02*
X125365823Y-107211268D01*
X125365823Y-107211268D02*
X125501125Y-107188297D01*
X125501125Y-107188297D02*
X125548448Y-107186167D01*
X125548448Y-107186167D02*
X125586709Y-107180555D01*
X125586709Y-107180555D02*
X125659168Y-107164697D01*
X125659168Y-107164697D02*
X125760566Y-107140061D01*
X125760566Y-107140061D02*
X125885644Y-107108111D01*
X125885644Y-107108111D02*
X126029145Y-107070316D01*
X126029145Y-107070316D02*
X126185810Y-107028141D01*
X126185810Y-107028141D02*
X126350381Y-106983053D01*
X126350381Y-106983053D02*
X126517598Y-106936518D01*
X126517598Y-106936518D02*
X126682205Y-106890004D01*
X126682205Y-106890004D02*
X126838943Y-106844977D01*
X126838943Y-106844977D02*
X126982552Y-106802903D01*
X126982552Y-106802903D02*
X127107776Y-106765249D01*
X127107776Y-106765249D02*
X127209354Y-106733481D01*
X127209354Y-106733481D02*
X127282031Y-106709067D01*
X127282031Y-106709067D02*
X127320546Y-106693472D01*
X127320546Y-106693472D02*
X127324590Y-106690793D01*
X127324590Y-106690793D02*
X127338119Y-106666327D01*
X127338119Y-106666327D02*
X127365592Y-106607344D01*
X127365592Y-106607344D02*
X127404980Y-106518527D01*
X127404980Y-106518527D02*
X127454253Y-106404564D01*
X127454253Y-106404564D02*
X127511379Y-106270138D01*
X127511379Y-106270138D02*
X127574329Y-106119937D01*
X127574329Y-106119937D02*
X127626435Y-105994192D01*
X127626435Y-105994192D02*
X127695226Y-105826745D01*
X127695226Y-105826745D02*
X127753742Y-105682205D01*
X127753742Y-105682205D02*
X127804260Y-105553878D01*
X127804260Y-105553878D02*
X127849059Y-105435075D01*
X127849059Y-105435075D02*
X127890415Y-105319104D01*
X127890415Y-105319104D02*
X127930607Y-105199273D01*
X127930607Y-105199273D02*
X127971912Y-105068891D01*
X127971912Y-105068891D02*
X128016609Y-104921267D01*
X128016609Y-104921267D02*
X128066975Y-104749709D01*
X128066975Y-104749709D02*
X128125288Y-104547527D01*
X128125288Y-104547527D02*
X128159237Y-104429013D01*
X128159237Y-104429013D02*
X128414367Y-103537225D01*
X128414367Y-103537225D02*
X128671031Y-103049238D01*
X128671031Y-103049238D02*
X128750353Y-102899025D01*
X128750353Y-102899025D02*
X128814113Y-102780526D01*
X128814113Y-102780526D02*
X128866147Y-102687828D01*
X128866147Y-102687828D02*
X128910291Y-102615017D01*
X128910291Y-102615017D02*
X128950384Y-102556180D01*
X128950384Y-102556180D02*
X128990261Y-102505405D01*
X128990261Y-102505405D02*
X129033761Y-102456778D01*
X129033761Y-102456778D02*
X129084719Y-102404387D01*
X129084719Y-102404387D02*
X129098306Y-102390775D01*
X129098306Y-102390775D02*
X129303235Y-102159769D01*
X129303235Y-102159769D02*
X129473070Y-101912389D01*
X129473070Y-101912389D02*
X129575096Y-101719398D01*
X129575096Y-101719398D02*
X129643664Y-101553498D01*
X129643664Y-101553498D02*
X129691347Y-101391589D01*
X129691347Y-101391589D02*
X129722036Y-101217710D01*
X129722036Y-101217710D02*
X129737368Y-101053125D01*
X129737368Y-101053125D02*
X129742738Y-100946854D01*
X129742738Y-100946854D02*
X129741592Y-100878456D01*
X129741592Y-100878456D02*
X129732835Y-100843818D01*
X129732835Y-100843818D02*
X129715372Y-100838829D01*
X129715372Y-100838829D02*
X129688107Y-100859376D01*
X129688107Y-100859376D02*
X129686253Y-100861214D01*
X129686253Y-100861214D02*
X129660284Y-100878256D01*
X129660284Y-100878256D02*
X129652257Y-100877089D01*
X129652257Y-100877089D02*
X129641925Y-100856386D01*
X129641925Y-100856386D02*
X129616230Y-100801201D01*
X129616230Y-100801201D02*
X129577069Y-100715708D01*
X129577069Y-100715708D02*
X129526337Y-100604082D01*
X129526337Y-100604082D02*
X129465930Y-100470496D01*
X129465930Y-100470496D02*
X129397743Y-100319126D01*
X129397743Y-100319126D02*
X129323672Y-100154145D01*
X129323672Y-100154145D02*
X129299946Y-100101192D01*
X129299946Y-100101192D02*
X129208864Y-99899483D01*
X129208864Y-99899483D02*
X129128286Y-99724458D01*
X129128286Y-99724458D02*
X129059270Y-99578291D01*
X129059270Y-99578291D02*
X129002871Y-99463155D01*
X129002871Y-99463155D02*
X128960148Y-99381225D01*
X128960148Y-99381225D02*
X128932156Y-99334674D01*
X128932156Y-99334674D02*
X128922250Y-99324382D01*
X128922250Y-99324382D02*
X128894367Y-99318647D01*
X128894367Y-99318647D02*
X128828951Y-99306513D01*
X128828951Y-99306513D02*
X128729555Y-99288592D01*
X128729555Y-99288592D02*
X128599735Y-99265500D01*
X128599735Y-99265500D02*
X128443044Y-99237848D01*
X128443044Y-99237848D02*
X128263036Y-99206253D01*
X128263036Y-99206253D02*
X128063266Y-99171326D01*
X128063266Y-99171326D02*
X127847288Y-99133683D01*
X127847288Y-99133683D02*
X127618655Y-99093936D01*
X127618655Y-99093936D02*
X127380923Y-99052701D01*
X127380923Y-99052701D02*
X127137645Y-99010590D01*
X127137645Y-99010590D02*
X126892376Y-98968217D01*
X126892376Y-98968217D02*
X126648670Y-98926197D01*
X126648670Y-98926197D02*
X126410080Y-98885143D01*
X126410080Y-98885143D02*
X126180162Y-98845669D01*
X126180162Y-98845669D02*
X125962468Y-98808389D01*
X125962468Y-98808389D02*
X125760555Y-98773917D01*
X125760555Y-98773917D02*
X125577974Y-98742866D01*
X125577974Y-98742866D02*
X125418282Y-98715850D01*
X125418282Y-98715850D02*
X125285032Y-98693484D01*
X125285032Y-98693484D02*
X125181778Y-98676381D01*
X125181778Y-98676381D02*
X125112074Y-98665154D01*
X125112074Y-98665154D02*
X125079475Y-98660419D01*
X125079475Y-98660419D02*
X125077467Y-98660350D01*
X125077467Y-98660350D02*
X125068041Y-98680656D01*
X125068041Y-98680656D02*
X125044197Y-98735113D01*
X125044197Y-98735113D02*
X125008012Y-98818883D01*
X125008012Y-98818883D02*
X124961565Y-98927132D01*
X124961565Y-98927132D02*
X124906935Y-99055022D01*
X124906935Y-99055022D02*
X124846202Y-99197719D01*
X124846202Y-99197719D02*
X124823752Y-99250584D01*
X124823752Y-99250584D02*
X124752501Y-99417851D01*
X124752501Y-99417851D02*
X124695416Y-99549984D01*
X124695416Y-99549984D02*
X124650472Y-99650963D01*
X124650472Y-99650963D02*
X124615648Y-99724770D01*
X124615648Y-99724770D02*
X124588920Y-99775386D01*
X124588920Y-99775386D02*
X124568264Y-99806792D01*
X124568264Y-99806792D02*
X124551658Y-99822969D01*
X124551658Y-99822969D02*
X124537078Y-99827898D01*
X124537078Y-99827898D02*
X124530575Y-99827497D01*
X124530575Y-99827497D02*
X124500881Y-99823652D01*
X124500881Y-99823652D02*
X124433480Y-99815397D01*
X124433480Y-99815397D02*
X124332710Y-99803252D01*
X124332710Y-99803252D02*
X124202909Y-99787732D01*
X124202909Y-99787732D02*
X124048416Y-99769356D01*
X124048416Y-99769356D02*
X123873570Y-99748640D01*
X123873570Y-99748640D02*
X123682709Y-99726102D01*
X123682709Y-99726102D02*
X123488260Y-99703210D01*
X123488260Y-99703210D02*
X122491270Y-99586009D01*
X122491270Y-99586009D02*
X121911344Y-99607755D01*
X121911344Y-99607755D02*
X121706283Y-99615850D01*
X121706283Y-99615850D02*
X121538577Y-99623711D01*
X121538577Y-99623711D02*
X121403258Y-99632061D01*
X121403258Y-99632061D02*
X121295358Y-99641622D01*
X121295358Y-99641622D02*
X121209910Y-99653115D01*
X121209910Y-99653115D02*
X121141946Y-99667263D01*
X121141946Y-99667263D02*
X121086498Y-99684788D01*
X121086498Y-99684788D02*
X121038599Y-99706411D01*
X121038599Y-99706411D02*
X120993280Y-99732854D01*
X120993280Y-99732854D02*
X120976832Y-99743566D01*
X120976832Y-99743566D02*
X120823217Y-99856081D01*
X120823217Y-99856081D02*
X120667005Y-99989267D01*
X120667005Y-99989267D02*
X120518131Y-100133452D01*
X120518131Y-100133452D02*
X120386533Y-100278965D01*
X120386533Y-100278965D02*
X120282145Y-100416136D01*
X120282145Y-100416136D02*
X120275299Y-100426411D01*
X120275299Y-100426411D02*
X120244853Y-100480811D01*
X120244853Y-100480811D02*
X120223275Y-100541736D01*
X120223275Y-100541736D02*
X120210144Y-100615340D01*
X120210144Y-100615340D02*
X120205039Y-100707775D01*
X120205039Y-100707775D02*
X120207539Y-100825197D01*
X120207539Y-100825197D02*
X120217224Y-100973760D01*
X120217224Y-100973760D02*
X120228741Y-101107065D01*
X120228741Y-101107065D02*
X120239931Y-101232400D01*
X120239931Y-101232400D02*
X120249554Y-101347754D01*
X120249554Y-101347754D02*
X120256944Y-101444527D01*
X120256944Y-101444527D02*
X120261435Y-101514121D01*
X120261435Y-101514121D02*
X120262500Y-101543064D01*
X120262500Y-101543064D02*
X120262500Y-101612915D01*
X120262500Y-101612915D02*
X119484625Y-101625754D01*
X119484625Y-101625754D02*
X119218898Y-101630903D01*
X119218898Y-101630903D02*
X118992318Y-101637046D01*
X118992318Y-101637046D02*
X118801707Y-101644410D01*
X118801707Y-101644410D02*
X118643885Y-101653220D01*
X118643885Y-101653220D02*
X118515675Y-101663702D01*
X118515675Y-101663702D02*
X118413897Y-101676081D01*
X118413897Y-101676081D02*
X118335372Y-101690584D01*
X118335372Y-101690584D02*
X118276921Y-101707436D01*
X118276921Y-101707436D02*
X118264129Y-101712434D01*
X118264129Y-101712434D02*
X118216702Y-101746166D01*
X118216702Y-101746166D02*
X118156463Y-101809107D01*
X118156463Y-101809107D02*
X118089676Y-101892676D01*
X118089676Y-101892676D02*
X118022607Y-101988291D01*
X118022607Y-101988291D02*
X117961521Y-102087369D01*
X117961521Y-102087369D02*
X117912684Y-102181331D01*
X117912684Y-102181331D02*
X117899409Y-102212000D01*
X117899409Y-102212000D02*
X117876326Y-102283218D01*
X117876326Y-102283218D02*
X117852050Y-102381357D01*
X117852050Y-102381357D02*
X117830080Y-102491265D01*
X117830080Y-102491265D02*
X117818778Y-102561250D01*
X117818778Y-102561250D02*
X117807476Y-102652861D01*
X117807476Y-102652861D02*
X117796295Y-102766864D01*
X117796295Y-102766864D02*
X117785685Y-102895529D01*
X117785685Y-102895529D02*
X117776099Y-103031122D01*
X117776099Y-103031122D02*
X117767986Y-103165914D01*
X117767986Y-103165914D02*
X117761799Y-103292172D01*
X117761799Y-103292172D02*
X117757987Y-103402165D01*
X117757987Y-103402165D02*
X117757003Y-103488162D01*
X117757003Y-103488162D02*
X117759297Y-103542431D01*
X117759297Y-103542431D02*
X117760950Y-103552469D01*
X117760950Y-103552469D02*
X117771885Y-103573527D01*
X117771885Y-103573527D02*
X117797817Y-103584104D01*
X117797817Y-103584104D02*
X117848754Y-103586399D01*
X117848754Y-103586399D02*
X117905369Y-103584219D01*
X117905369Y-103584219D02*
X117974535Y-103582535D01*
X117974535Y-103582535D02*
X118023125Y-103584968D01*
X118023125Y-103584968D02*
X118040045Y-103590509D01*
X118040045Y-103590509D02*
X118023345Y-103609735D01*
X118023345Y-103609735D02*
X117976235Y-103649850D01*
X117976235Y-103649850D02*
X117903121Y-103707660D01*
X117903121Y-103707660D02*
X117808409Y-103779972D01*
X117808409Y-103779972D02*
X117696506Y-103863593D01*
X117696506Y-103863593D02*
X117571817Y-103955330D01*
X117571817Y-103955330D02*
X117438749Y-104051990D01*
X117438749Y-104051990D02*
X117301708Y-104150379D01*
X117301708Y-104150379D02*
X117165100Y-104247305D01*
X117165100Y-104247305D02*
X117033332Y-104339574D01*
X117033332Y-104339574D02*
X116910810Y-104423992D01*
X116910810Y-104423992D02*
X116801939Y-104497368D01*
X116801939Y-104497368D02*
X116711127Y-104556507D01*
X116711127Y-104556507D02*
X116681329Y-104575163D01*
X116681329Y-104575163D02*
X116322795Y-104796190D01*
X116322795Y-104796190D02*
X115752648Y-104781388D01*
X115752648Y-104781388D02*
X115182500Y-104766586D01*
X115182500Y-104766586D02*
X115183013Y-104362418D01*
X115183013Y-104362418D02*
X115183356Y-104287017D01*
X115183356Y-104287017D02*
X115184220Y-104172566D01*
X115184220Y-104172566D02*
X115185570Y-104022345D01*
X115185570Y-104022345D02*
X115187369Y-103839633D01*
X115187369Y-103839633D02*
X115189580Y-103627709D01*
X115189580Y-103627709D02*
X115192167Y-103389855D01*
X115192167Y-103389855D02*
X115195095Y-103129349D01*
X115195095Y-103129349D02*
X115198325Y-102849470D01*
X115198325Y-102849470D02*
X115201823Y-102553499D01*
X115201823Y-102553499D02*
X115205551Y-102244716D01*
X115205551Y-102244716D02*
X115209473Y-101926399D01*
X115209473Y-101926399D02*
X115213554Y-101601829D01*
X115213554Y-101601829D02*
X115214273Y-101545250D01*
X115214273Y-101545250D02*
X115218402Y-101216854D01*
X115218402Y-101216854D02*
X115222379Y-100892076D01*
X115222379Y-100892076D02*
X115226167Y-100574403D01*
X115226167Y-100574403D02*
X115229729Y-100267323D01*
X115229729Y-100267323D02*
X115233026Y-99974323D01*
X115233026Y-99974323D02*
X115236024Y-99698891D01*
X115236024Y-99698891D02*
X115238683Y-99444513D01*
X115238683Y-99444513D02*
X115240967Y-99214679D01*
X115240967Y-99214679D02*
X115242839Y-99012875D01*
X115242839Y-99012875D02*
X115244262Y-98842589D01*
X115244262Y-98842589D02*
X115245198Y-98707308D01*
X115245198Y-98707308D02*
X115245611Y-98610520D01*
X115245611Y-98610520D02*
X115245622Y-98603084D01*
X115245622Y-98603084D02*
X115246224Y-98073917D01*
X115246224Y-98073917D02*
X115778067Y-97619082D01*
X115778067Y-97619082D02*
X116309910Y-97164248D01*
X116309910Y-97164248D02*
X116297475Y-96994666D01*
X116297475Y-96994666D02*
X116286306Y-96894277D01*
X116286306Y-96894277D02*
X116268835Y-96792336D01*
X116268835Y-96792336D02*
X116248787Y-96710471D01*
X116248787Y-96710471D02*
X116248221Y-96708667D01*
X116248221Y-96708667D02*
X116229977Y-96619276D01*
X116229977Y-96619276D02*
X116219280Y-96497550D01*
X116219280Y-96497550D02*
X116215625Y-96352711D01*
X116215625Y-96352711D02*
X116218505Y-96193984D01*
X116218505Y-96193984D02*
X116227415Y-96030593D01*
X116227415Y-96030593D02*
X116241849Y-95871763D01*
X116241849Y-95871763D02*
X116261303Y-95726716D01*
X116261303Y-95726716D02*
X116285269Y-95604679D01*
X116285269Y-95604679D02*
X116313243Y-95514874D01*
X116313243Y-95514874D02*
X116313715Y-95513762D01*
X116313715Y-95513762D02*
X116382014Y-95397698D01*
X116382014Y-95397698D02*
X116484303Y-95281401D01*
X116484303Y-95281401D02*
X116612673Y-95170698D01*
X116612673Y-95170698D02*
X116759216Y-95071418D01*
X116759216Y-95071418D02*
X116916025Y-94989391D01*
X116916025Y-94989391D02*
X117075192Y-94930444D01*
X117075192Y-94930444D02*
X117121648Y-94918266D01*
X117121648Y-94918266D02*
X117267192Y-94896123D01*
X117267192Y-94896123D02*
X117435794Y-94889775D01*
X117435794Y-94889775D02*
X117611856Y-94898412D01*
X117611856Y-94898412D02*
X117779780Y-94921222D01*
X117779780Y-94921222D02*
X117923969Y-94957393D01*
X117923969Y-94957393D02*
X117932962Y-94960472D01*
X117932962Y-94960472D02*
X118012144Y-94985353D01*
X118012144Y-94985353D02*
X118078955Y-95001255D01*
X118078955Y-95001255D02*
X118121052Y-95005356D01*
X118121052Y-95005356D02*
X118125406Y-95004516D01*
X118125406Y-95004516D02*
X118162547Y-94986361D01*
X118162547Y-94986361D02*
X118196294Y-94953752D01*
X118196294Y-94953752D02*
X118229096Y-94901708D01*
X118229096Y-94901708D02*
X118263402Y-94825251D01*
X118263402Y-94825251D02*
X118301661Y-94719403D01*
X118301661Y-94719403D02*
X118346322Y-94579186D01*
X118346322Y-94579186D02*
X118364987Y-94517509D01*
X118364987Y-94517509D02*
X118403573Y-94386965D01*
X118403573Y-94386965D02*
X118434407Y-94287222D01*
X118434407Y-94287222D02*
X118463206Y-94211860D01*
X118463206Y-94211860D02*
X118495687Y-94154462D01*
X118495687Y-94154462D02*
X118537567Y-94108607D01*
X118537567Y-94108607D02*
X118594564Y-94067876D01*
X118594564Y-94067876D02*
X118672393Y-94025849D01*
X118672393Y-94025849D02*
X118776772Y-93976108D01*
X118776772Y-93976108D02*
X118897250Y-93919859D01*
X118897250Y-93919859D02*
X119087991Y-93831687D01*
X119087991Y-93831687D02*
X119252626Y-93760443D01*
X119252626Y-93760443D02*
X119399362Y-93704362D01*
X119399362Y-93704362D02*
X119536402Y-93661679D01*
X119536402Y-93661679D02*
X119671953Y-93630629D01*
X119671953Y-93630629D02*
X119814219Y-93609447D01*
X119814219Y-93609447D02*
X119971405Y-93596366D01*
X119971405Y-93596366D02*
X120151717Y-93589623D01*
X120151717Y-93589623D02*
X120363360Y-93587452D01*
X120363360Y-93587452D02*
X120442417Y-93587439D01*
X120442417Y-93587439D02*
X120682014Y-93589426D01*
X120682014Y-93589426D02*
X120888122Y-93595156D01*
X120888122Y-93595156D02*
X121069483Y-93605448D01*
X121069483Y-93605448D02*
X121234838Y-93621120D01*
X121234838Y-93621120D02*
X121392931Y-93642990D01*
X121392931Y-93642990D02*
X121552504Y-93671876D01*
X121552504Y-93671876D02*
X121712417Y-93706332D01*
X121712417Y-93706332D02*
X121867476Y-93748939D01*
X121867476Y-93748939D02*
X122002676Y-93800182D01*
X122002676Y-93800182D02*
X122113291Y-93857312D01*
X122113291Y-93857312D02*
X122194595Y-93917583D01*
X122194595Y-93917583D02*
X122241861Y-93978250D01*
X122241861Y-93978250D02*
X122252167Y-94020001D01*
X122252167Y-94020001D02*
X122264458Y-94043891D01*
X122264458Y-94043891D02*
X122298662Y-94095589D01*
X122298662Y-94095589D02*
X122350777Y-94169426D01*
X122350777Y-94169426D02*
X122416800Y-94259737D01*
X122416800Y-94259737D02*
X122492728Y-94360855D01*
X122492728Y-94360855D02*
X122495584Y-94364609D01*
X122495584Y-94364609D02*
X122583195Y-94480884D01*
X122583195Y-94480884D02*
X122647574Y-94569585D01*
X122647574Y-94569585D02*
X122692046Y-94636106D01*
X122692046Y-94636106D02*
X122719935Y-94685840D01*
X122719935Y-94685840D02*
X122734568Y-94724180D01*
X122734568Y-94724180D02*
X122739268Y-94756520D01*
X122739268Y-94756520D02*
X122739321Y-94759960D01*
X122739321Y-94759960D02*
X122740872Y-94803605D01*
X122740872Y-94803605D02*
X122745014Y-94881841D01*
X122745014Y-94881841D02*
X122751288Y-94987033D01*
X122751288Y-94987033D02*
X122759236Y-95111549D01*
X122759236Y-95111549D02*
X122768396Y-95247755D01*
X122768396Y-95247755D02*
X122770625Y-95279917D01*
X122770625Y-95279917D02*
X122779909Y-95414358D01*
X122779909Y-95414358D02*
X122788125Y-95535684D01*
X122788125Y-95535684D02*
X122794826Y-95637104D01*
X122794826Y-95637104D02*
X122799564Y-95711824D01*
X122799564Y-95711824D02*
X122801893Y-95753054D01*
X122801893Y-95753054D02*
X122802054Y-95757740D01*
X122802054Y-95757740D02*
X122821930Y-95778721D01*
X122821930Y-95778721D02*
X122876804Y-95806303D01*
X122876804Y-95806303D02*
X122960232Y-95838456D01*
X122960232Y-95838456D02*
X123065766Y-95873154D01*
X123065766Y-95873154D02*
X123186961Y-95908370D01*
X123186961Y-95908370D02*
X123317371Y-95942074D01*
X123317371Y-95942074D02*
X123450549Y-95972241D01*
X123450549Y-95972241D02*
X123539460Y-95989708D01*
X123539460Y-95989708D02*
X123779003Y-96033476D01*
X123779003Y-96033476D02*
X123924085Y-95884899D01*
X123924085Y-95884899D02*
X124121917Y-95707559D01*
X124121917Y-95707559D02*
X124333395Y-95568554D01*
X124333395Y-95568554D02*
X124564335Y-95464616D01*
X124564335Y-95464616D02*
X124787600Y-95399718D01*
X124787600Y-95399718D02*
X124941783Y-95364584D01*
X124941783Y-95364584D02*
X124973249Y-95258750D01*
X124973249Y-95258750D02*
X124982838Y-95225653D01*
X124982838Y-95225653D02*
X125003308Y-95154343D01*
X125003308Y-95154343D02*
X125033944Y-95047323D01*
X125033944Y-95047323D02*
X125074032Y-94907094D01*
X125074032Y-94907094D02*
X125122859Y-94736159D01*
X125122859Y-94736159D02*
X125179710Y-94537019D01*
X125179710Y-94537019D02*
X125243871Y-94312177D01*
X125243871Y-94312177D02*
X125314628Y-94064135D01*
X125314628Y-94064135D02*
X125391268Y-93795394D01*
X125391268Y-93795394D02*
X125473076Y-93508458D01*
X125473076Y-93508458D02*
X125559339Y-93205828D01*
X125559339Y-93205828D02*
X125649342Y-92890005D01*
X125649342Y-92890005D02*
X125742372Y-92563493D01*
X125742372Y-92563493D02*
X125768162Y-92472963D01*
X125768162Y-92472963D02*
X126531610Y-89793009D01*
X126531610Y-89793009D02*
X126884264Y-89550224D01*
X126884264Y-89550224D02*
X126992722Y-89475680D01*
X126992722Y-89475680D02*
X127090035Y-89409035D01*
X127090035Y-89409035D02*
X127170545Y-89354142D01*
X127170545Y-89354142D02*
X127228594Y-89314858D01*
X127228594Y-89314858D02*
X127258526Y-89295037D01*
X127258526Y-89295037D02*
X127260557Y-89293795D01*
X127260557Y-89293795D02*
X127286322Y-89293497D01*
X127286322Y-89293497D02*
X127349089Y-89298720D01*
X127349089Y-89298720D02*
X127443970Y-89308884D01*
X127443970Y-89308884D02*
X127566075Y-89323408D01*
X127566075Y-89323408D02*
X127710516Y-89341714D01*
X127710516Y-89341714D02*
X127872404Y-89363222D01*
X127872404Y-89363222D02*
X128033140Y-89385421D01*
X128033140Y-89385421D02*
X128206443Y-89409721D01*
X128206443Y-89409721D02*
X128366451Y-89432045D01*
X128366451Y-89432045D02*
X128508339Y-89451728D01*
X128508339Y-89451728D02*
X128627277Y-89468105D01*
X128627277Y-89468105D02*
X128718438Y-89480510D01*
X128718438Y-89480510D02*
X128776995Y-89488279D01*
X128776995Y-89488279D02*
X128797959Y-89490762D01*
X128797959Y-89490762D02*
X128809245Y-89472449D01*
X128809245Y-89472449D02*
X128813834Y-89429313D01*
X128813834Y-89429313D02*
X128817473Y-89404645D01*
X128817473Y-89404645D02*
X128828127Y-89340536D01*
X128828127Y-89340536D02*
X128845399Y-89239229D01*
X128845399Y-89239229D02*
X128868893Y-89102961D01*
X128868893Y-89102961D02*
X128898214Y-88933973D01*
X128898214Y-88933973D02*
X128932964Y-88734506D01*
X128932964Y-88734506D02*
X128972749Y-88506799D01*
X128972749Y-88506799D02*
X129017172Y-88253091D01*
X129017172Y-88253091D02*
X129065836Y-87975624D01*
X129065836Y-87975624D02*
X129118346Y-87676636D01*
X129118346Y-87676636D02*
X129174305Y-87358369D01*
X129174305Y-87358369D02*
X129233318Y-87023061D01*
X129233318Y-87023061D02*
X129294988Y-86672953D01*
X129294988Y-86672953D02*
X129358920Y-86310284D01*
X129358920Y-86310284D02*
X129424716Y-85937296D01*
X129424716Y-85937296D02*
X129491982Y-85556227D01*
X129491982Y-85556227D02*
X129560321Y-85169317D01*
X129560321Y-85169317D02*
X129629336Y-84778807D01*
X129629336Y-84778807D02*
X129698632Y-84386937D01*
X129698632Y-84386937D02*
X129767813Y-83995946D01*
X129767813Y-83995946D02*
X129836482Y-83608074D01*
X129836482Y-83608074D02*
X129904243Y-83225562D01*
X129904243Y-83225562D02*
X129970701Y-82850649D01*
X129970701Y-82850649D02*
X130035459Y-82485575D01*
X130035459Y-82485575D02*
X130098121Y-82132580D01*
X130098121Y-82132580D02*
X130158291Y-81793905D01*
X130158291Y-81793905D02*
X130215573Y-81471788D01*
X130215573Y-81471788D02*
X130269571Y-81168471D01*
X130269571Y-81168471D02*
X130319888Y-80886193D01*
X130319888Y-80886193D02*
X130366129Y-80627193D01*
X130366129Y-80627193D02*
X130407897Y-80393713D01*
X130407897Y-80393713D02*
X130444797Y-80187991D01*
X130444797Y-80187991D02*
X130476432Y-80012268D01*
X130476432Y-80012268D02*
X130502406Y-79868784D01*
X130502406Y-79868784D02*
X130522323Y-79759779D01*
X130522323Y-79759779D02*
X130535787Y-79687492D01*
X130535787Y-79687492D02*
X130542402Y-79654164D01*
X130542402Y-79654164D02*
X130542530Y-79653625D01*
X130542530Y-79653625D02*
X130546124Y-79626156D01*
X130546124Y-79626156D02*
X130533417Y-79612011D01*
X130533417Y-79612011D02*
X130495078Y-79606854D01*
X130495078Y-79606854D02*
X130440670Y-79606283D01*
X130440670Y-79606283D02*
X130396754Y-79607876D01*
X130396754Y-79607876D02*
X130317472Y-79612310D01*
X130317472Y-79612310D02*
X130207231Y-79619257D01*
X130207231Y-79619257D02*
X130070440Y-79628385D01*
X130070440Y-79628385D02*
X129911507Y-79639364D01*
X129911507Y-79639364D02*
X129734841Y-79651864D01*
X129734841Y-79651864D02*
X129544850Y-79665555D01*
X129544850Y-79665555D02*
X129345942Y-79680107D01*
X129345942Y-79680107D02*
X129142525Y-79695189D01*
X129142525Y-79695189D02*
X128939008Y-79710471D01*
X128939008Y-79710471D02*
X128739799Y-79725624D01*
X128739799Y-79725624D02*
X128549307Y-79740316D01*
X128549307Y-79740316D02*
X128371939Y-79754219D01*
X128371939Y-79754219D02*
X128212105Y-79767000D01*
X128212105Y-79767000D02*
X128074211Y-79778331D01*
X128074211Y-79778331D02*
X127962668Y-79787881D01*
X127962668Y-79787881D02*
X127881882Y-79795320D01*
X127881882Y-79795320D02*
X127836262Y-79800318D01*
X127836262Y-79800318D02*
X127827600Y-79802011D01*
X127827600Y-79802011D02*
X127824087Y-79823893D01*
X127824087Y-79823893D02*
X127816321Y-79885174D01*
X127816321Y-79885174D02*
X127804604Y-79983165D01*
X127804604Y-79983165D02*
X127789241Y-80115180D01*
X127789241Y-80115180D02*
X127770533Y-80278529D01*
X127770533Y-80278529D02*
X127748784Y-80470525D01*
X127748784Y-80470525D02*
X127724297Y-80688479D01*
X127724297Y-80688479D02*
X127697374Y-80929703D01*
X127697374Y-80929703D02*
X127668318Y-81191508D01*
X127668318Y-81191508D02*
X127637432Y-81471208D01*
X127637432Y-81471208D02*
X127605020Y-81766112D01*
X127605020Y-81766112D02*
X127571383Y-82073534D01*
X127571383Y-82073534D02*
X127563233Y-82148232D01*
X127563233Y-82148232D02*
X127529254Y-82458922D01*
X127529254Y-82458922D02*
X127496336Y-82758191D01*
X127496336Y-82758191D02*
X127464791Y-83043305D01*
X127464791Y-83043305D02*
X127434928Y-83311533D01*
X127434928Y-83311533D02*
X127407058Y-83560140D01*
X127407058Y-83560140D02*
X127381492Y-83786394D01*
X127381492Y-83786394D02*
X127358540Y-83987561D01*
X127358540Y-83987561D02*
X127338513Y-84160909D01*
X127338513Y-84160909D02*
X127321722Y-84303704D01*
X127321722Y-84303704D02*
X127308476Y-84413214D01*
X127308476Y-84413214D02*
X127299087Y-84486704D01*
X127299087Y-84486704D02*
X127293866Y-84521443D01*
X127293866Y-84521443D02*
X127293306Y-84523617D01*
X127293306Y-84523617D02*
X127284773Y-84528462D01*
X127284773Y-84528462D02*
X127265950Y-84520070D01*
X127265950Y-84520070D02*
X127234470Y-84496166D01*
X127234470Y-84496166D02*
X127187966Y-84454475D01*
X127187966Y-84454475D02*
X127124074Y-84392720D01*
X127124074Y-84392720D02*
X127040426Y-84308625D01*
X127040426Y-84308625D02*
X126934656Y-84199915D01*
X126934656Y-84199915D02*
X126804400Y-84064315D01*
X126804400Y-84064315D02*
X126677657Y-83931460D01*
X126677657Y-83931460D02*
X126529009Y-83775436D01*
X126529009Y-83775436D02*
X126404622Y-83645584D01*
X126404622Y-83645584D02*
X126299581Y-83537397D01*
X126299581Y-83537397D02*
X126208975Y-83446371D01*
X126208975Y-83446371D02*
X126127890Y-83367999D01*
X126127890Y-83367999D02*
X126051413Y-83297778D01*
X126051413Y-83297778D02*
X125974632Y-83231200D01*
X125974632Y-83231200D02*
X125892633Y-83163762D01*
X125892633Y-83163762D02*
X125800504Y-83090957D01*
X125800504Y-83090957D02*
X125693331Y-83008280D01*
X125693331Y-83008280D02*
X125566202Y-82911226D01*
X125566202Y-82911226D02*
X125559887Y-82906413D01*
X125559887Y-82906413D02*
X125042671Y-82512225D01*
X125042671Y-82512225D02*
X124393544Y-82288860D01*
X124393544Y-82288860D02*
X124211695Y-82226489D01*
X124211695Y-82226489D02*
X124061985Y-82175973D01*
X124061985Y-82175973D02*
X123936586Y-82135208D01*
X123936586Y-82135208D02*
X123827674Y-82102088D01*
X123827674Y-82102088D02*
X123727420Y-82074507D01*
X123727420Y-82074507D02*
X123628000Y-82050361D01*
X123628000Y-82050361D02*
X123521586Y-82027542D01*
X123521586Y-82027542D02*
X123400353Y-82003947D01*
X123400353Y-82003947D02*
X123256473Y-81977469D01*
X123256473Y-81977469D02*
X123194282Y-81966222D01*
X123194282Y-81966222D02*
X122644147Y-81866949D01*
X122644147Y-81866949D02*
X122337032Y-81701392D01*
X122337032Y-81701392D02*
X122211807Y-81636841D01*
X122211807Y-81636841D02*
X122061157Y-81563802D01*
X122061157Y-81563802D02*
X121899217Y-81488860D01*
X121899217Y-81488860D02*
X121740121Y-81418602D01*
X121740121Y-81418602D02*
X121637922Y-81375694D01*
X121637922Y-81375694D02*
X121502811Y-81320807D01*
X121502811Y-81320807D02*
X121397170Y-81279416D01*
X121397170Y-81279416D02*
X121311350Y-81248836D01*
X121311350Y-81248836D02*
X121235703Y-81226383D01*
X121235703Y-81226383D02*
X121160578Y-81209372D01*
X121160578Y-81209372D02*
X121076327Y-81195118D01*
X121076327Y-81195118D02*
X120973302Y-81180937D01*
X120973302Y-81180937D02*
X120907672Y-81172518D01*
X120907672Y-81172518D02*
X120727133Y-81148284D01*
X120727133Y-81148284D02*
X120535362Y-81120309D01*
X120535362Y-81120309D02*
X120340488Y-81089960D01*
X120340488Y-81089960D02*
X120150640Y-81058601D01*
X120150640Y-81058601D02*
X119973948Y-81027596D01*
X119973948Y-81027596D02*
X119818541Y-80998310D01*
X119818541Y-80998310D02*
X119692549Y-80972108D01*
X119692549Y-80972108D02*
X119638756Y-80959511D01*
X119638756Y-80959511D02*
X119389044Y-80876956D01*
X119389044Y-80876956D02*
X119155659Y-80756958D01*
X119155659Y-80756958D02*
X118936162Y-80598107D01*
X118936162Y-80598107D02*
X118802716Y-80476265D01*
X118802716Y-80476265D02*
X118718713Y-80390113D01*
X118718713Y-80390113D02*
X118646236Y-80307851D01*
X118646236Y-80307851D02*
X118580947Y-80222714D01*
X118580947Y-80222714D02*
X118518509Y-80127939D01*
X118518509Y-80127939D02*
X118454582Y-80016764D01*
X118454582Y-80016764D02*
X118384828Y-79882423D01*
X118384828Y-79882423D02*
X118304908Y-79718155D01*
X118304908Y-79718155D02*
X118272384Y-79649478D01*
X118272384Y-79649478D02*
X118060404Y-79199565D01*
X118060404Y-79199565D02*
X118008670Y-78709574D01*
X118008670Y-78709574D02*
X117993086Y-78546852D01*
X117993086Y-78546852D02*
X117977471Y-78356353D01*
X117977471Y-78356353D02*
X117962369Y-78147323D01*
X117962369Y-78147323D02*
X117948320Y-77929011D01*
X117948320Y-77929011D02*
X117935869Y-77710664D01*
X117935869Y-77710664D02*
X117925556Y-77501529D01*
X117925556Y-77501529D02*
X117917924Y-77310853D01*
X117917924Y-77310853D02*
X117913515Y-77147884D01*
X117913515Y-77147884D02*
X117912656Y-77072111D01*
X117912656Y-77072111D02*
X117912311Y-76970750D01*
X117912311Y-76970750D02*
X117685114Y-76848016D01*
X117685114Y-76848016D02*
X117457917Y-76725281D01*
X117457917Y-76725281D02*
X117107696Y-76748772D01*
X117107696Y-76748772D02*
X116944392Y-76761543D01*
X116944392Y-76761543D02*
X116806517Y-76777247D01*
X116806517Y-76777247D02*
X116677166Y-76798520D01*
X116677166Y-76798520D02*
X116539434Y-76827998D01*
X116539434Y-76827998D02*
X116432262Y-76854100D01*
X116432262Y-76854100D02*
X116107050Y-76935938D01*
X116107050Y-76935938D02*
X115867025Y-76798118D01*
X115867025Y-76798118D02*
X115777510Y-76744658D01*
X115777510Y-76744658D02*
X115703157Y-76696326D01*
X115703157Y-76696326D02*
X115650877Y-76657908D01*
X115650877Y-76657908D02*
X115627582Y-76634191D01*
X115627582Y-76634191D02*
X115627000Y-76631875D01*
X115627000Y-76631875D02*
X115630195Y-76596826D01*
X115630195Y-76596826D02*
X115639334Y-76524429D01*
X115639334Y-76524429D02*
X115653744Y-76419152D01*
X115653744Y-76419152D02*
X115672755Y-76285462D01*
X115672755Y-76285462D02*
X115695696Y-76127824D01*
X115695696Y-76127824D02*
X115721895Y-75950707D01*
X115721895Y-75950707D02*
X115750683Y-75758575D01*
X115750683Y-75758575D02*
X115781386Y-75555896D01*
X115781386Y-75555896D02*
X115813336Y-75347136D01*
X115813336Y-75347136D02*
X115845859Y-75136762D01*
X115845859Y-75136762D02*
X115878286Y-74929241D01*
X115878286Y-74929241D02*
X115909945Y-74729039D01*
X115909945Y-74729039D02*
X115940165Y-74540623D01*
X115940165Y-74540623D02*
X115953959Y-74455704D01*
X115953959Y-74455704D02*
X115985238Y-74263967D01*
X115985238Y-74263967D02*
X116012115Y-74100977D01*
X116012115Y-74100977D02*
X116036012Y-73960902D01*
X116036012Y-73960902D02*
X116058350Y-73837908D01*
X116058350Y-73837908D02*
X116080550Y-73726164D01*
X116080550Y-73726164D02*
X116104035Y-73619835D01*
X116104035Y-73619835D02*
X116130225Y-73513090D01*
X116130225Y-73513090D02*
X116160542Y-73400095D01*
X116160542Y-73400095D02*
X116196407Y-73275018D01*
X116196407Y-73275018D02*
X116239242Y-73132026D01*
X116239242Y-73132026D02*
X116290469Y-72965286D01*
X116290469Y-72965286D02*
X116351508Y-72768965D01*
X116351508Y-72768965D02*
X116413292Y-72570873D01*
X116413292Y-72570873D02*
X116498227Y-72298496D01*
X116498227Y-72298496D02*
X117644822Y-72312670D01*
X117644822Y-72312670D02*
X117644822Y-72312670D01*
G36*
X117644822Y-72312670D02*
G01*
X117771703Y-72314182D01*
X117938550Y-72316079D01*
X118142997Y-72318335D01*
X118382677Y-72320928D01*
X118655225Y-72323833D01*
X118958275Y-72327025D01*
X119289461Y-72330480D01*
X119646418Y-72334175D01*
X120026779Y-72338084D01*
X120428178Y-72342184D01*
X120848251Y-72346449D01*
X121284630Y-72350857D01*
X121734949Y-72355383D01*
X122196844Y-72360002D01*
X122667949Y-72364691D01*
X123145896Y-72369424D01*
X123628321Y-72374178D01*
X124030167Y-72378120D01*
X124516845Y-72382890D01*
X125002252Y-72387659D01*
X125483937Y-72392403D01*
X125959454Y-72397098D01*
X126426352Y-72401718D01*
X126882183Y-72406240D01*
X127324499Y-72410639D01*
X127750850Y-72414890D01*
X128158788Y-72418969D01*
X128545864Y-72422851D01*
X128909630Y-72426512D01*
X129247637Y-72429928D01*
X129557436Y-72433073D01*
X129836578Y-72435924D01*
X130082615Y-72438455D01*
X130293097Y-72440643D01*
X130465577Y-72442463D01*
X130570667Y-72443594D01*
X131872417Y-72457792D01*
X135841167Y-74194201D01*
X136230606Y-74364594D01*
X136609659Y-74530452D01*
X136976508Y-74690980D01*
X137329335Y-74845382D01*
X137666321Y-74992861D01*
X137985649Y-75132623D01*
X138285499Y-75263870D01*
X138564055Y-75385807D01*
X138819498Y-75497638D01*
X139050009Y-75598566D01*
X139253770Y-75687797D01*
X139428964Y-75764534D01*
X139573773Y-75827981D01*
X139686377Y-75877342D01*
X139764959Y-75911820D01*
X139807700Y-75930622D01*
X139815403Y-75934056D01*
X139811457Y-75954749D01*
X139799328Y-76015785D01*
X139779247Y-76116018D01*
X139751447Y-76254301D01*
X139716161Y-76429489D01*
X139673619Y-76640437D01*
X139624055Y-76885997D01*
X139567701Y-77165025D01*
X139504789Y-77476374D01*
X139435552Y-77818899D01*
X139360221Y-78191453D01*
X139279029Y-78592891D01*
X139192208Y-79022067D01*
X139099990Y-79477835D01*
X139002608Y-79959049D01*
X138900294Y-80464563D01*
X138793280Y-80993232D01*
X138681798Y-81543910D01*
X138566080Y-82115450D01*
X138446360Y-82706707D01*
X138322868Y-83316535D01*
X138195838Y-83943788D01*
X138065502Y-84587320D01*
X137932091Y-85245985D01*
X137795838Y-85918638D01*
X137656975Y-86604133D01*
X137515735Y-87301323D01*
X137372350Y-88009063D01*
X137227052Y-88726207D01*
X137080073Y-89451609D01*
X136931646Y-90184124D01*
X136782002Y-90922604D01*
X136631374Y-91665906D01*
X136479995Y-92412881D01*
X136328096Y-93162386D01*
X136175910Y-93913274D01*
X136023669Y-94664398D01*
X135871605Y-95414614D01*
X135719951Y-96162775D01*
X135568938Y-96907735D01*
X135418800Y-97648349D01*
X135269767Y-98383470D01*
X135122073Y-99111954D01*
X134975950Y-99832653D01*
X134831630Y-100544422D01*
X134689345Y-101246115D01*
X134549327Y-101936587D01*
X134411809Y-102614691D01*
X134277024Y-103279282D01*
X134145202Y-103929213D01*
X134016577Y-104563340D01*
X133891380Y-105180515D01*
X133769844Y-105779593D01*
X133652202Y-106359428D01*
X133538685Y-106918875D01*
X133429526Y-107456787D01*
X133324956Y-107972019D01*
X133225209Y-108463425D01*
X133130517Y-108929858D01*
X133041110Y-109370173D01*
X132957223Y-109783225D01*
X132879087Y-110167866D01*
X132806935Y-110522952D01*
X132740998Y-110847337D01*
X132681509Y-111139874D01*
X132628700Y-111399418D01*
X132582803Y-111624823D01*
X132544051Y-111814943D01*
X132512676Y-111968632D01*
X132488911Y-112084744D01*
X132472986Y-112162133D01*
X132465135Y-112199655D01*
X132464335Y-112203167D01*
X132443875Y-112212611D01*
X132385215Y-112235376D01*
X132290129Y-112270837D01*
X132160386Y-112318370D01*
X131997758Y-112377349D01*
X131804017Y-112447149D01*
X131580934Y-112527146D01*
X131330279Y-112616715D01*
X131053826Y-112715231D01*
X130753344Y-112822069D01*
X130430606Y-112936605D01*
X130087382Y-113058212D01*
X129725444Y-113186267D01*
X129346563Y-113320145D01*
X128952511Y-113459220D01*
X128545059Y-113602868D01*
X128125979Y-113750465D01*
X127697041Y-113901384D01*
X127260017Y-114055001D01*
X126816679Y-114210692D01*
X126368797Y-114367832D01*
X125918144Y-114525795D01*
X125466490Y-114683956D01*
X125015607Y-114841692D01*
X124567266Y-114998377D01*
X124123238Y-115153386D01*
X123685296Y-115306094D01*
X123255210Y-115455876D01*
X122834751Y-115602108D01*
X122474417Y-115727255D01*
X122220417Y-115815411D01*
X113495084Y-111146247D01*
X104769750Y-106477084D01*
X104123572Y-105613160D01*
X104065750Y-104669289D01*
X104048228Y-104382416D01*
X104033241Y-104134219D01*
X104020669Y-103921121D01*
X104010390Y-103739548D01*
X104002282Y-103585923D01*
X103996224Y-103456673D01*
X103992093Y-103348222D01*
X103989769Y-103256994D01*
X103989129Y-103179415D01*
X103990052Y-103111909D01*
X103992416Y-103050902D01*
X103996100Y-102992818D01*
X104000982Y-102934082D01*
X104005174Y-102889334D01*
X104047950Y-102552409D01*
X104108759Y-102248687D01*
X104188982Y-101972447D01*
X104286737Y-101725167D01*
X104338651Y-101623613D01*
X104409009Y-101504872D01*
X104492693Y-101375923D01*
X104584587Y-101243743D01*
X104679574Y-101115310D01*
X104772537Y-100997600D01*
X104858361Y-100897592D01*
X104931927Y-100822263D01*
X104974662Y-100787065D01*
X105058911Y-100744923D01*
X105143213Y-100730448D01*
X105216065Y-100744443D01*
X105250475Y-100767808D01*
X105274417Y-100779658D01*
X105335674Y-100805572D01*
X105431955Y-100844663D01*
X105560970Y-100896042D01*
X105720429Y-100958821D01*
X105908041Y-101032113D01*
X106121517Y-101115028D01*
X106358566Y-101206679D01*
X106616897Y-101306178D01*
X106894222Y-101412637D01*
X107188248Y-101525168D01*
X107496687Y-101642882D01*
X107817247Y-101764892D01*
X108039183Y-101849176D01*
X108366169Y-101973315D01*
X108682331Y-102093484D01*
X108985402Y-102208815D01*
X109273113Y-102318438D01*
X109543198Y-102421486D01*
X109793390Y-102517090D01*
X110021421Y-102604382D01*
X110225025Y-102682492D01*
X110401934Y-102750553D01*
X110549881Y-102807697D01*
X110666598Y-102853053D01*
X110749819Y-102885755D01*
X110797276Y-102904933D01*
X110807980Y-102909824D01*
X110802168Y-102931601D01*
X110777424Y-102985434D01*
X110736130Y-103066803D01*
X110680666Y-103171185D01*
X110613412Y-103294061D01*
X110536751Y-103430908D01*
X110494252Y-103505577D01*
X110162960Y-104084577D01*
X110186818Y-104508247D01*
X110210675Y-104931917D01*
X110658971Y-105383265D01*
X111129279Y-105500912D01*
X111599587Y-105618560D01*
X112182062Y-105545101D01*
X112372933Y-105520288D01*
X112584989Y-105491468D01*
X112804098Y-105460644D01*
X113016129Y-105429820D01*
X113206950Y-105400999D01*
X113285938Y-105388611D01*
X113807340Y-105305579D01*
X113909716Y-105415081D01*
X113964742Y-105474510D01*
X114038343Y-105554788D01*
X114120796Y-105645279D01*
X114200403Y-105733154D01*
X114388714Y-105941725D01*
X114552078Y-106378738D01*
X114715443Y-106815750D01*
X114715826Y-107461334D01*
X114716210Y-108106917D01*
X114824822Y-108614917D01*
X114855892Y-108756759D01*
X114885464Y-108885291D01*
X114912049Y-108994549D01*
X114934161Y-109078570D01*
X114950313Y-109131388D01*
X114957426Y-109146757D01*
X114979015Y-109159396D01*
X115035860Y-109190187D01*
X115125586Y-109237891D01*
X115245818Y-109301269D01*
X115394180Y-109379082D01*
X115568298Y-109470092D01*
X115765797Y-109573058D01*
X115984301Y-109686743D01*
X116221435Y-109809907D01*
X116474824Y-109941311D01*
X116742094Y-110079716D01*
X117020868Y-110223884D01*
X117160763Y-110296159D01*
X119340110Y-111421720D01*
X119681170Y-111375801D01*
X120022231Y-111329883D01*
X120623907Y-111017007D01*
X121225584Y-110704130D01*
X121648122Y-110151649D01*
X122070660Y-109599167D01*
X123072339Y-109599167D01*
X123628270Y-109274518D01*
X124184202Y-108949869D01*
X124284281Y-108665976D01*
X124385559Y-108388603D01*
X124480765Y-108149707D01*
X124571744Y-107946178D01*
X124660339Y-107774906D01*
X124748395Y-107632781D01*
X124837756Y-107516693D01*
X124930266Y-107423532D01*
X125027770Y-107350189D01*
X125084044Y-107317250D01*
X125221379Y-107255781D01*
X125365823Y-107211268D01*
X125501125Y-107188297D01*
X125548448Y-107186167D01*
X125586709Y-107180555D01*
X125659168Y-107164697D01*
X125760566Y-107140061D01*
X125885644Y-107108111D01*
X126029145Y-107070316D01*
X126185810Y-107028141D01*
X126350381Y-106983053D01*
X126517598Y-106936518D01*
X126682205Y-106890004D01*
X126838943Y-106844977D01*
X126982552Y-106802903D01*
X127107776Y-106765249D01*
X127209354Y-106733481D01*
X127282031Y-106709067D01*
X127320546Y-106693472D01*
X127324590Y-106690793D01*
X127338119Y-106666327D01*
X127365592Y-106607344D01*
X127404980Y-106518527D01*
X127454253Y-106404564D01*
X127511379Y-106270138D01*
X127574329Y-106119937D01*
X127626435Y-105994192D01*
X127695226Y-105826745D01*
X127753742Y-105682205D01*
X127804260Y-105553878D01*
X127849059Y-105435075D01*
X127890415Y-105319104D01*
X127930607Y-105199273D01*
X127971912Y-105068891D01*
X128016609Y-104921267D01*
X128066975Y-104749709D01*
X128125288Y-104547527D01*
X128159237Y-104429013D01*
X128414367Y-103537225D01*
X128671031Y-103049238D01*
X128750353Y-102899025D01*
X128814113Y-102780526D01*
X128866147Y-102687828D01*
X128910291Y-102615017D01*
X128950384Y-102556180D01*
X128990261Y-102505405D01*
X129033761Y-102456778D01*
X129084719Y-102404387D01*
X129098306Y-102390775D01*
X129303235Y-102159769D01*
X129473070Y-101912389D01*
X129575096Y-101719398D01*
X129643664Y-101553498D01*
X129691347Y-101391589D01*
X129722036Y-101217710D01*
X129737368Y-101053125D01*
X129742738Y-100946854D01*
X129741592Y-100878456D01*
X129732835Y-100843818D01*
X129715372Y-100838829D01*
X129688107Y-100859376D01*
X129686253Y-100861214D01*
X129660284Y-100878256D01*
X129652257Y-100877089D01*
X129641925Y-100856386D01*
X129616230Y-100801201D01*
X129577069Y-100715708D01*
X129526337Y-100604082D01*
X129465930Y-100470496D01*
X129397743Y-100319126D01*
X129323672Y-100154145D01*
X129299946Y-100101192D01*
X129208864Y-99899483D01*
X129128286Y-99724458D01*
X129059270Y-99578291D01*
X129002871Y-99463155D01*
X128960148Y-99381225D01*
X128932156Y-99334674D01*
X128922250Y-99324382D01*
X128894367Y-99318647D01*
X128828951Y-99306513D01*
X128729555Y-99288592D01*
X128599735Y-99265500D01*
X128443044Y-99237848D01*
X128263036Y-99206253D01*
X128063266Y-99171326D01*
X127847288Y-99133683D01*
X127618655Y-99093936D01*
X127380923Y-99052701D01*
X127137645Y-99010590D01*
X126892376Y-98968217D01*
X126648670Y-98926197D01*
X126410080Y-98885143D01*
X126180162Y-98845669D01*
X125962468Y-98808389D01*
X125760555Y-98773917D01*
X125577974Y-98742866D01*
X125418282Y-98715850D01*
X125285032Y-98693484D01*
X125181778Y-98676381D01*
X125112074Y-98665154D01*
X125079475Y-98660419D01*
X125077467Y-98660350D01*
X125068041Y-98680656D01*
X125044197Y-98735113D01*
X125008012Y-98818883D01*
X124961565Y-98927132D01*
X124906935Y-99055022D01*
X124846202Y-99197719D01*
X124823752Y-99250584D01*
X124752501Y-99417851D01*
X124695416Y-99549984D01*
X124650472Y-99650963D01*
X124615648Y-99724770D01*
X124588920Y-99775386D01*
X124568264Y-99806792D01*
X124551658Y-99822969D01*
X124537078Y-99827898D01*
X124530575Y-99827497D01*
X124500881Y-99823652D01*
X124433480Y-99815397D01*
X124332710Y-99803252D01*
X124202909Y-99787732D01*
X124048416Y-99769356D01*
X123873570Y-99748640D01*
X123682709Y-99726102D01*
X123488260Y-99703210D01*
X122491270Y-99586009D01*
X121911344Y-99607755D01*
X121706283Y-99615850D01*
X121538577Y-99623711D01*
X121403258Y-99632061D01*
X121295358Y-99641622D01*
X121209910Y-99653115D01*
X121141946Y-99667263D01*
X121086498Y-99684788D01*
X121038599Y-99706411D01*
X120993280Y-99732854D01*
X120976832Y-99743566D01*
X120823217Y-99856081D01*
X120667005Y-99989267D01*
X120518131Y-100133452D01*
X120386533Y-100278965D01*
X120282145Y-100416136D01*
X120275299Y-100426411D01*
X120244853Y-100480811D01*
X120223275Y-100541736D01*
X120210144Y-100615340D01*
X120205039Y-100707775D01*
X120207539Y-100825197D01*
X120217224Y-100973760D01*
X120228741Y-101107065D01*
X120239931Y-101232400D01*
X120249554Y-101347754D01*
X120256944Y-101444527D01*
X120261435Y-101514121D01*
X120262500Y-101543064D01*
X120262500Y-101612915D01*
X119484625Y-101625754D01*
X119218898Y-101630903D01*
X118992318Y-101637046D01*
X118801707Y-101644410D01*
X118643885Y-101653220D01*
X118515675Y-101663702D01*
X118413897Y-101676081D01*
X118335372Y-101690584D01*
X118276921Y-101707436D01*
X118264129Y-101712434D01*
X118216702Y-101746166D01*
X118156463Y-101809107D01*
X118089676Y-101892676D01*
X118022607Y-101988291D01*
X117961521Y-102087369D01*
X117912684Y-102181331D01*
X117899409Y-102212000D01*
X117876326Y-102283218D01*
X117852050Y-102381357D01*
X117830080Y-102491265D01*
X117818778Y-102561250D01*
X117807476Y-102652861D01*
X117796295Y-102766864D01*
X117785685Y-102895529D01*
X117776099Y-103031122D01*
X117767986Y-103165914D01*
X117761799Y-103292172D01*
X117757987Y-103402165D01*
X117757003Y-103488162D01*
X117759297Y-103542431D01*
X117760950Y-103552469D01*
X117771885Y-103573527D01*
X117797817Y-103584104D01*
X117848754Y-103586399D01*
X117905369Y-103584219D01*
X117974535Y-103582535D01*
X118023125Y-103584968D01*
X118040045Y-103590509D01*
X118023345Y-103609735D01*
X117976235Y-103649850D01*
X117903121Y-103707660D01*
X117808409Y-103779972D01*
X117696506Y-103863593D01*
X117571817Y-103955330D01*
X117438749Y-104051990D01*
X117301708Y-104150379D01*
X117165100Y-104247305D01*
X117033332Y-104339574D01*
X116910810Y-104423992D01*
X116801939Y-104497368D01*
X116711127Y-104556507D01*
X116681329Y-104575163D01*
X116322795Y-104796190D01*
X115752648Y-104781388D01*
X115182500Y-104766586D01*
X115183013Y-104362418D01*
X115183356Y-104287017D01*
X115184220Y-104172566D01*
X115185570Y-104022345D01*
X115187369Y-103839633D01*
X115189580Y-103627709D01*
X115192167Y-103389855D01*
X115195095Y-103129349D01*
X115198325Y-102849470D01*
X115201823Y-102553499D01*
X115205551Y-102244716D01*
X115209473Y-101926399D01*
X115213554Y-101601829D01*
X115214273Y-101545250D01*
X115218402Y-101216854D01*
X115222379Y-100892076D01*
X115226167Y-100574403D01*
X115229729Y-100267323D01*
X115233026Y-99974323D01*
X115236024Y-99698891D01*
X115238683Y-99444513D01*
X115240967Y-99214679D01*
X115242839Y-99012875D01*
X115244262Y-98842589D01*
X115245198Y-98707308D01*
X115245611Y-98610520D01*
X115245622Y-98603084D01*
X115246224Y-98073917D01*
X115778067Y-97619082D01*
X116309910Y-97164248D01*
X116297475Y-96994666D01*
X116286306Y-96894277D01*
X116268835Y-96792336D01*
X116248787Y-96710471D01*
X116248221Y-96708667D01*
X116229977Y-96619276D01*
X116219280Y-96497550D01*
X116215625Y-96352711D01*
X116218505Y-96193984D01*
X116227415Y-96030593D01*
X116241849Y-95871763D01*
X116261303Y-95726716D01*
X116285269Y-95604679D01*
X116313243Y-95514874D01*
X116313715Y-95513762D01*
X116382014Y-95397698D01*
X116484303Y-95281401D01*
X116612673Y-95170698D01*
X116759216Y-95071418D01*
X116916025Y-94989391D01*
X117075192Y-94930444D01*
X117121648Y-94918266D01*
X117267192Y-94896123D01*
X117435794Y-94889775D01*
X117611856Y-94898412D01*
X117779780Y-94921222D01*
X117923969Y-94957393D01*
X117932962Y-94960472D01*
X118012144Y-94985353D01*
X118078955Y-95001255D01*
X118121052Y-95005356D01*
X118125406Y-95004516D01*
X118162547Y-94986361D01*
X118196294Y-94953752D01*
X118229096Y-94901708D01*
X118263402Y-94825251D01*
X118301661Y-94719403D01*
X118346322Y-94579186D01*
X118364987Y-94517509D01*
X118403573Y-94386965D01*
X118434407Y-94287222D01*
X118463206Y-94211860D01*
X118495687Y-94154462D01*
X118537567Y-94108607D01*
X118594564Y-94067876D01*
X118672393Y-94025849D01*
X118776772Y-93976108D01*
X118897250Y-93919859D01*
X119087991Y-93831687D01*
X119252626Y-93760443D01*
X119399362Y-93704362D01*
X119536402Y-93661679D01*
X119671953Y-93630629D01*
X119814219Y-93609447D01*
X119971405Y-93596366D01*
X120151717Y-93589623D01*
X120363360Y-93587452D01*
X120442417Y-93587439D01*
X120682014Y-93589426D01*
X120888122Y-93595156D01*
X121069483Y-93605448D01*
X121234838Y-93621120D01*
X121392931Y-93642990D01*
X121552504Y-93671876D01*
X121712417Y-93706332D01*
X121867476Y-93748939D01*
X122002676Y-93800182D01*
X122113291Y-93857312D01*
X122194595Y-93917583D01*
X122241861Y-93978250D01*
X122252167Y-94020001D01*
X122264458Y-94043891D01*
X122298662Y-94095589D01*
X122350777Y-94169426D01*
X122416800Y-94259737D01*
X122492728Y-94360855D01*
X122495584Y-94364609D01*
X122583195Y-94480884D01*
X122647574Y-94569585D01*
X122692046Y-94636106D01*
X122719935Y-94685840D01*
X122734568Y-94724180D01*
X122739268Y-94756520D01*
X122739321Y-94759960D01*
X122740872Y-94803605D01*
X122745014Y-94881841D01*
X122751288Y-94987033D01*
X122759236Y-95111549D01*
X122768396Y-95247755D01*
X122770625Y-95279917D01*
X122779909Y-95414358D01*
X122788125Y-95535684D01*
X122794826Y-95637104D01*
X122799564Y-95711824D01*
X122801893Y-95753054D01*
X122802054Y-95757740D01*
X122821930Y-95778721D01*
X122876804Y-95806303D01*
X122960232Y-95838456D01*
X123065766Y-95873154D01*
X123186961Y-95908370D01*
X123317371Y-95942074D01*
X123450549Y-95972241D01*
X123539460Y-95989708D01*
X123779003Y-96033476D01*
X123924085Y-95884899D01*
X124121917Y-95707559D01*
X124333395Y-95568554D01*
X124564335Y-95464616D01*
X124787600Y-95399718D01*
X124941783Y-95364584D01*
X124973249Y-95258750D01*
X124982838Y-95225653D01*
X125003308Y-95154343D01*
X125033944Y-95047323D01*
X125074032Y-94907094D01*
X125122859Y-94736159D01*
X125179710Y-94537019D01*
X125243871Y-94312177D01*
X125314628Y-94064135D01*
X125391268Y-93795394D01*
X125473076Y-93508458D01*
X125559339Y-93205828D01*
X125649342Y-92890005D01*
X125742372Y-92563493D01*
X125768162Y-92472963D01*
X126531610Y-89793009D01*
X126884264Y-89550224D01*
X126992722Y-89475680D01*
X127090035Y-89409035D01*
X127170545Y-89354142D01*
X127228594Y-89314858D01*
X127258526Y-89295037D01*
X127260557Y-89293795D01*
X127286322Y-89293497D01*
X127349089Y-89298720D01*
X127443970Y-89308884D01*
X127566075Y-89323408D01*
X127710516Y-89341714D01*
X127872404Y-89363222D01*
X128033140Y-89385421D01*
X128206443Y-89409721D01*
X128366451Y-89432045D01*
X128508339Y-89451728D01*
X128627277Y-89468105D01*
X128718438Y-89480510D01*
X128776995Y-89488279D01*
X128797959Y-89490762D01*
X128809245Y-89472449D01*
X128813834Y-89429313D01*
X128817473Y-89404645D01*
X128828127Y-89340536D01*
X128845399Y-89239229D01*
X128868893Y-89102961D01*
X128898214Y-88933973D01*
X128932964Y-88734506D01*
X128972749Y-88506799D01*
X129017172Y-88253091D01*
X129065836Y-87975624D01*
X129118346Y-87676636D01*
X129174305Y-87358369D01*
X129233318Y-87023061D01*
X129294988Y-86672953D01*
X129358920Y-86310284D01*
X129424716Y-85937296D01*
X129491982Y-85556227D01*
X129560321Y-85169317D01*
X129629336Y-84778807D01*
X129698632Y-84386937D01*
X129767813Y-83995946D01*
X129836482Y-83608074D01*
X129904243Y-83225562D01*
X129970701Y-82850649D01*
X130035459Y-82485575D01*
X130098121Y-82132580D01*
X130158291Y-81793905D01*
X130215573Y-81471788D01*
X130269571Y-81168471D01*
X130319888Y-80886193D01*
X130366129Y-80627193D01*
X130407897Y-80393713D01*
X130444797Y-80187991D01*
X130476432Y-80012268D01*
X130502406Y-79868784D01*
X130522323Y-79759779D01*
X130535787Y-79687492D01*
X130542402Y-79654164D01*
X130542530Y-79653625D01*
X130546124Y-79626156D01*
X130533417Y-79612011D01*
X130495078Y-79606854D01*
X130440670Y-79606283D01*
X130396754Y-79607876D01*
X130317472Y-79612310D01*
X130207231Y-79619257D01*
X130070440Y-79628385D01*
X129911507Y-79639364D01*
X129734841Y-79651864D01*
X129544850Y-79665555D01*
X129345942Y-79680107D01*
X129142525Y-79695189D01*
X128939008Y-79710471D01*
X128739799Y-79725624D01*
X128549307Y-79740316D01*
X128371939Y-79754219D01*
X128212105Y-79767000D01*
X128074211Y-79778331D01*
X127962668Y-79787881D01*
X127881882Y-79795320D01*
X127836262Y-79800318D01*
X127827600Y-79802011D01*
X127824087Y-79823893D01*
X127816321Y-79885174D01*
X127804604Y-79983165D01*
X127789241Y-80115180D01*
X127770533Y-80278529D01*
X127748784Y-80470525D01*
X127724297Y-80688479D01*
X127697374Y-80929703D01*
X127668318Y-81191508D01*
X127637432Y-81471208D01*
X127605020Y-81766112D01*
X127571383Y-82073534D01*
X127563233Y-82148232D01*
X127529254Y-82458922D01*
X127496336Y-82758191D01*
X127464791Y-83043305D01*
X127434928Y-83311533D01*
X127407058Y-83560140D01*
X127381492Y-83786394D01*
X127358540Y-83987561D01*
X127338513Y-84160909D01*
X127321722Y-84303704D01*
X127308476Y-84413214D01*
X127299087Y-84486704D01*
X127293866Y-84521443D01*
X127293306Y-84523617D01*
X127284773Y-84528462D01*
X127265950Y-84520070D01*
X127234470Y-84496166D01*
X127187966Y-84454475D01*
X127124074Y-84392720D01*
X127040426Y-84308625D01*
X126934656Y-84199915D01*
X126804400Y-84064315D01*
X126677657Y-83931460D01*
X126529009Y-83775436D01*
X126404622Y-83645584D01*
X126299581Y-83537397D01*
X126208975Y-83446371D01*
X126127890Y-83367999D01*
X126051413Y-83297778D01*
X125974632Y-83231200D01*
X125892633Y-83163762D01*
X125800504Y-83090957D01*
X125693331Y-83008280D01*
X125566202Y-82911226D01*
X125559887Y-82906413D01*
X125042671Y-82512225D01*
X124393544Y-82288860D01*
X124211695Y-82226489D01*
X124061985Y-82175973D01*
X123936586Y-82135208D01*
X123827674Y-82102088D01*
X123727420Y-82074507D01*
X123628000Y-82050361D01*
X123521586Y-82027542D01*
X123400353Y-82003947D01*
X123256473Y-81977469D01*
X123194282Y-81966222D01*
X122644147Y-81866949D01*
X122337032Y-81701392D01*
X122211807Y-81636841D01*
X122061157Y-81563802D01*
X121899217Y-81488860D01*
X121740121Y-81418602D01*
X121637922Y-81375694D01*
X121502811Y-81320807D01*
X121397170Y-81279416D01*
X121311350Y-81248836D01*
X121235703Y-81226383D01*
X121160578Y-81209372D01*
X121076327Y-81195118D01*
X120973302Y-81180937D01*
X120907672Y-81172518D01*
X120727133Y-81148284D01*
X120535362Y-81120309D01*
X120340488Y-81089960D01*
X120150640Y-81058601D01*
X119973948Y-81027596D01*
X119818541Y-80998310D01*
X119692549Y-80972108D01*
X119638756Y-80959511D01*
X119389044Y-80876956D01*
X119155659Y-80756958D01*
X118936162Y-80598107D01*
X118802716Y-80476265D01*
X118718713Y-80390113D01*
X118646236Y-80307851D01*
X118580947Y-80222714D01*
X118518509Y-80127939D01*
X118454582Y-80016764D01*
X118384828Y-79882423D01*
X118304908Y-79718155D01*
X118272384Y-79649478D01*
X118060404Y-79199565D01*
X118008670Y-78709574D01*
X117993086Y-78546852D01*
X117977471Y-78356353D01*
X117962369Y-78147323D01*
X117948320Y-77929011D01*
X117935869Y-77710664D01*
X117925556Y-77501529D01*
X117917924Y-77310853D01*
X117913515Y-77147884D01*
X117912656Y-77072111D01*
X117912311Y-76970750D01*
X117685114Y-76848016D01*
X117457917Y-76725281D01*
X117107696Y-76748772D01*
X116944392Y-76761543D01*
X116806517Y-76777247D01*
X116677166Y-76798520D01*
X116539434Y-76827998D01*
X116432262Y-76854100D01*
X116107050Y-76935938D01*
X115867025Y-76798118D01*
X115777510Y-76744658D01*
X115703157Y-76696326D01*
X115650877Y-76657908D01*
X115627582Y-76634191D01*
X115627000Y-76631875D01*
X115630195Y-76596826D01*
X115639334Y-76524429D01*
X115653744Y-76419152D01*
X115672755Y-76285462D01*
X115695696Y-76127824D01*
X115721895Y-75950707D01*
X115750683Y-75758575D01*
X115781386Y-75555896D01*
X115813336Y-75347136D01*
X115845859Y-75136762D01*
X115878286Y-74929241D01*
X115909945Y-74729039D01*
X115940165Y-74540623D01*
X115953959Y-74455704D01*
X115985238Y-74263967D01*
X116012115Y-74100977D01*
X116036012Y-73960902D01*
X116058350Y-73837908D01*
X116080550Y-73726164D01*
X116104035Y-73619835D01*
X116130225Y-73513090D01*
X116160542Y-73400095D01*
X116196407Y-73275018D01*
X116239242Y-73132026D01*
X116290469Y-72965286D01*
X116351508Y-72768965D01*
X116413292Y-72570873D01*
X116498227Y-72298496D01*
X117644822Y-72312670D01*
G37*
X117644822Y-72312670D02*
X117771703Y-72314182D01*
X117938550Y-72316079D01*
X118142997Y-72318335D01*
X118382677Y-72320928D01*
X118655225Y-72323833D01*
X118958275Y-72327025D01*
X119289461Y-72330480D01*
X119646418Y-72334175D01*
X120026779Y-72338084D01*
X120428178Y-72342184D01*
X120848251Y-72346449D01*
X121284630Y-72350857D01*
X121734949Y-72355383D01*
X122196844Y-72360002D01*
X122667949Y-72364691D01*
X123145896Y-72369424D01*
X123628321Y-72374178D01*
X124030167Y-72378120D01*
X124516845Y-72382890D01*
X125002252Y-72387659D01*
X125483937Y-72392403D01*
X125959454Y-72397098D01*
X126426352Y-72401718D01*
X126882183Y-72406240D01*
X127324499Y-72410639D01*
X127750850Y-72414890D01*
X128158788Y-72418969D01*
X128545864Y-72422851D01*
X128909630Y-72426512D01*
X129247637Y-72429928D01*
X129557436Y-72433073D01*
X129836578Y-72435924D01*
X130082615Y-72438455D01*
X130293097Y-72440643D01*
X130465577Y-72442463D01*
X130570667Y-72443594D01*
X131872417Y-72457792D01*
X135841167Y-74194201D01*
X136230606Y-74364594D01*
X136609659Y-74530452D01*
X136976508Y-74690980D01*
X137329335Y-74845382D01*
X137666321Y-74992861D01*
X137985649Y-75132623D01*
X138285499Y-75263870D01*
X138564055Y-75385807D01*
X138819498Y-75497638D01*
X139050009Y-75598566D01*
X139253770Y-75687797D01*
X139428964Y-75764534D01*
X139573773Y-75827981D01*
X139686377Y-75877342D01*
X139764959Y-75911820D01*
X139807700Y-75930622D01*
X139815403Y-75934056D01*
X139811457Y-75954749D01*
X139799328Y-76015785D01*
X139779247Y-76116018D01*
X139751447Y-76254301D01*
X139716161Y-76429489D01*
X139673619Y-76640437D01*
X139624055Y-76885997D01*
X139567701Y-77165025D01*
X139504789Y-77476374D01*
X139435552Y-77818899D01*
X139360221Y-78191453D01*
X139279029Y-78592891D01*
X139192208Y-79022067D01*
X139099990Y-79477835D01*
X139002608Y-79959049D01*
X138900294Y-80464563D01*
X138793280Y-80993232D01*
X138681798Y-81543910D01*
X138566080Y-82115450D01*
X138446360Y-82706707D01*
X138322868Y-83316535D01*
X138195838Y-83943788D01*
X138065502Y-84587320D01*
X137932091Y-85245985D01*
X137795838Y-85918638D01*
X137656975Y-86604133D01*
X137515735Y-87301323D01*
X137372350Y-88009063D01*
X137227052Y-88726207D01*
X137080073Y-89451609D01*
X136931646Y-90184124D01*
X136782002Y-90922604D01*
X136631374Y-91665906D01*
X136479995Y-92412881D01*
X136328096Y-93162386D01*
X136175910Y-93913274D01*
X136023669Y-94664398D01*
X135871605Y-95414614D01*
X135719951Y-96162775D01*
X135568938Y-96907735D01*
X135418800Y-97648349D01*
X135269767Y-98383470D01*
X135122073Y-99111954D01*
X134975950Y-99832653D01*
X134831630Y-100544422D01*
X134689345Y-101246115D01*
X134549327Y-101936587D01*
X134411809Y-102614691D01*
X134277024Y-103279282D01*
X134145202Y-103929213D01*
X134016577Y-104563340D01*
X133891380Y-105180515D01*
X133769844Y-105779593D01*
X133652202Y-106359428D01*
X133538685Y-106918875D01*
X133429526Y-107456787D01*
X133324956Y-107972019D01*
X133225209Y-108463425D01*
X133130517Y-108929858D01*
X133041110Y-109370173D01*
X132957223Y-109783225D01*
X132879087Y-110167866D01*
X132806935Y-110522952D01*
X132740998Y-110847337D01*
X132681509Y-111139874D01*
X132628700Y-111399418D01*
X132582803Y-111624823D01*
X132544051Y-111814943D01*
X132512676Y-111968632D01*
X132488911Y-112084744D01*
X132472986Y-112162133D01*
X132465135Y-112199655D01*
X132464335Y-112203167D01*
X132443875Y-112212611D01*
X132385215Y-112235376D01*
X132290129Y-112270837D01*
X132160386Y-112318370D01*
X131997758Y-112377349D01*
X131804017Y-112447149D01*
X131580934Y-112527146D01*
X131330279Y-112616715D01*
X131053826Y-112715231D01*
X130753344Y-112822069D01*
X130430606Y-112936605D01*
X130087382Y-113058212D01*
X129725444Y-113186267D01*
X129346563Y-113320145D01*
X128952511Y-113459220D01*
X128545059Y-113602868D01*
X128125979Y-113750465D01*
X127697041Y-113901384D01*
X127260017Y-114055001D01*
X126816679Y-114210692D01*
X126368797Y-114367832D01*
X125918144Y-114525795D01*
X125466490Y-114683956D01*
X125015607Y-114841692D01*
X124567266Y-114998377D01*
X124123238Y-115153386D01*
X123685296Y-115306094D01*
X123255210Y-115455876D01*
X122834751Y-115602108D01*
X122474417Y-115727255D01*
X122220417Y-115815411D01*
X113495084Y-111146247D01*
X104769750Y-106477084D01*
X104123572Y-105613160D01*
X104065750Y-104669289D01*
X104048228Y-104382416D01*
X104033241Y-104134219D01*
X104020669Y-103921121D01*
X104010390Y-103739548D01*
X104002282Y-103585923D01*
X103996224Y-103456673D01*
X103992093Y-103348222D01*
X103989769Y-103256994D01*
X103989129Y-103179415D01*
X103990052Y-103111909D01*
X103992416Y-103050902D01*
X103996100Y-102992818D01*
X104000982Y-102934082D01*
X104005174Y-102889334D01*
X104047950Y-102552409D01*
X104108759Y-102248687D01*
X104188982Y-101972447D01*
X104286737Y-101725167D01*
X104338651Y-101623613D01*
X104409009Y-101504872D01*
X104492693Y-101375923D01*
X104584587Y-101243743D01*
X104679574Y-101115310D01*
X104772537Y-100997600D01*
X104858361Y-100897592D01*
X104931927Y-100822263D01*
X104974662Y-100787065D01*
X105058911Y-100744923D01*
X105143213Y-100730448D01*
X105216065Y-100744443D01*
X105250475Y-100767808D01*
X105274417Y-100779658D01*
X105335674Y-100805572D01*
X105431955Y-100844663D01*
X105560970Y-100896042D01*
X105720429Y-100958821D01*
X105908041Y-101032113D01*
X106121517Y-101115028D01*
X106358566Y-101206679D01*
X106616897Y-101306178D01*
X106894222Y-101412637D01*
X107188248Y-101525168D01*
X107496687Y-101642882D01*
X107817247Y-101764892D01*
X108039183Y-101849176D01*
X108366169Y-101973315D01*
X108682331Y-102093484D01*
X108985402Y-102208815D01*
X109273113Y-102318438D01*
X109543198Y-102421486D01*
X109793390Y-102517090D01*
X110021421Y-102604382D01*
X110225025Y-102682492D01*
X110401934Y-102750553D01*
X110549881Y-102807697D01*
X110666598Y-102853053D01*
X110749819Y-102885755D01*
X110797276Y-102904933D01*
X110807980Y-102909824D01*
X110802168Y-102931601D01*
X110777424Y-102985434D01*
X110736130Y-103066803D01*
X110680666Y-103171185D01*
X110613412Y-103294061D01*
X110536751Y-103430908D01*
X110494252Y-103505577D01*
X110162960Y-104084577D01*
X110186818Y-104508247D01*
X110210675Y-104931917D01*
X110658971Y-105383265D01*
X111129279Y-105500912D01*
X111599587Y-105618560D01*
X112182062Y-105545101D01*
X112372933Y-105520288D01*
X112584989Y-105491468D01*
X112804098Y-105460644D01*
X113016129Y-105429820D01*
X113206950Y-105400999D01*
X113285938Y-105388611D01*
X113807340Y-105305579D01*
X113909716Y-105415081D01*
X113964742Y-105474510D01*
X114038343Y-105554788D01*
X114120796Y-105645279D01*
X114200403Y-105733154D01*
X114388714Y-105941725D01*
X114552078Y-106378738D01*
X114715443Y-106815750D01*
X114715826Y-107461334D01*
X114716210Y-108106917D01*
X114824822Y-108614917D01*
X114855892Y-108756759D01*
X114885464Y-108885291D01*
X114912049Y-108994549D01*
X114934161Y-109078570D01*
X114950313Y-109131388D01*
X114957426Y-109146757D01*
X114979015Y-109159396D01*
X115035860Y-109190187D01*
X115125586Y-109237891D01*
X115245818Y-109301269D01*
X115394180Y-109379082D01*
X115568298Y-109470092D01*
X115765797Y-109573058D01*
X115984301Y-109686743D01*
X116221435Y-109809907D01*
X116474824Y-109941311D01*
X116742094Y-110079716D01*
X117020868Y-110223884D01*
X117160763Y-110296159D01*
X119340110Y-111421720D01*
X119681170Y-111375801D01*
X120022231Y-111329883D01*
X120623907Y-111017007D01*
X121225584Y-110704130D01*
X121648122Y-110151649D01*
X122070660Y-109599167D01*
X123072339Y-109599167D01*
X123628270Y-109274518D01*
X124184202Y-108949869D01*
X124284281Y-108665976D01*
X124385559Y-108388603D01*
X124480765Y-108149707D01*
X124571744Y-107946178D01*
X124660339Y-107774906D01*
X124748395Y-107632781D01*
X124837756Y-107516693D01*
X124930266Y-107423532D01*
X125027770Y-107350189D01*
X125084044Y-107317250D01*
X125221379Y-107255781D01*
X125365823Y-107211268D01*
X125501125Y-107188297D01*
X125548448Y-107186167D01*
X125586709Y-107180555D01*
X125659168Y-107164697D01*
X125760566Y-107140061D01*
X125885644Y-107108111D01*
X126029145Y-107070316D01*
X126185810Y-107028141D01*
X126350381Y-106983053D01*
X126517598Y-106936518D01*
X126682205Y-106890004D01*
X126838943Y-106844977D01*
X126982552Y-106802903D01*
X127107776Y-106765249D01*
X127209354Y-106733481D01*
X127282031Y-106709067D01*
X127320546Y-106693472D01*
X127324590Y-106690793D01*
X127338119Y-106666327D01*
X127365592Y-106607344D01*
X127404980Y-106518527D01*
X127454253Y-106404564D01*
X127511379Y-106270138D01*
X127574329Y-106119937D01*
X127626435Y-105994192D01*
X127695226Y-105826745D01*
X127753742Y-105682205D01*
X127804260Y-105553878D01*
X127849059Y-105435075D01*
X127890415Y-105319104D01*
X127930607Y-105199273D01*
X127971912Y-105068891D01*
X128016609Y-104921267D01*
X128066975Y-104749709D01*
X128125288Y-104547527D01*
X128159237Y-104429013D01*
X128414367Y-103537225D01*
X128671031Y-103049238D01*
X128750353Y-102899025D01*
X128814113Y-102780526D01*
X128866147Y-102687828D01*
X128910291Y-102615017D01*
X128950384Y-102556180D01*
X128990261Y-102505405D01*
X129033761Y-102456778D01*
X129084719Y-102404387D01*
X129098306Y-102390775D01*
X129303235Y-102159769D01*
X129473070Y-101912389D01*
X129575096Y-101719398D01*
X129643664Y-101553498D01*
X129691347Y-101391589D01*
X129722036Y-101217710D01*
X129737368Y-101053125D01*
X129742738Y-100946854D01*
X129741592Y-100878456D01*
X129732835Y-100843818D01*
X129715372Y-100838829D01*
X129688107Y-100859376D01*
X129686253Y-100861214D01*
X129660284Y-100878256D01*
X129652257Y-100877089D01*
X129641925Y-100856386D01*
X129616230Y-100801201D01*
X129577069Y-100715708D01*
X129526337Y-100604082D01*
X129465930Y-100470496D01*
X129397743Y-100319126D01*
X129323672Y-100154145D01*
X129299946Y-100101192D01*
X129208864Y-99899483D01*
X129128286Y-99724458D01*
X129059270Y-99578291D01*
X129002871Y-99463155D01*
X128960148Y-99381225D01*
X128932156Y-99334674D01*
X128922250Y-99324382D01*
X128894367Y-99318647D01*
X128828951Y-99306513D01*
X128729555Y-99288592D01*
X128599735Y-99265500D01*
X128443044Y-99237848D01*
X128263036Y-99206253D01*
X128063266Y-99171326D01*
X127847288Y-99133683D01*
X127618655Y-99093936D01*
X127380923Y-99052701D01*
X127137645Y-99010590D01*
X126892376Y-98968217D01*
X126648670Y-98926197D01*
X126410080Y-98885143D01*
X126180162Y-98845669D01*
X125962468Y-98808389D01*
X125760555Y-98773917D01*
X125577974Y-98742866D01*
X125418282Y-98715850D01*
X125285032Y-98693484D01*
X125181778Y-98676381D01*
X125112074Y-98665154D01*
X125079475Y-98660419D01*
X125077467Y-98660350D01*
X125068041Y-98680656D01*
X125044197Y-98735113D01*
X125008012Y-98818883D01*
X124961565Y-98927132D01*
X124906935Y-99055022D01*
X124846202Y-99197719D01*
X124823752Y-99250584D01*
X124752501Y-99417851D01*
X124695416Y-99549984D01*
X124650472Y-99650963D01*
X124615648Y-99724770D01*
X124588920Y-99775386D01*
X124568264Y-99806792D01*
X124551658Y-99822969D01*
X124537078Y-99827898D01*
X124530575Y-99827497D01*
X124500881Y-99823652D01*
X124433480Y-99815397D01*
X124332710Y-99803252D01*
X124202909Y-99787732D01*
X124048416Y-99769356D01*
X123873570Y-99748640D01*
X123682709Y-99726102D01*
X123488260Y-99703210D01*
X122491270Y-99586009D01*
X121911344Y-99607755D01*
X121706283Y-99615850D01*
X121538577Y-99623711D01*
X121403258Y-99632061D01*
X121295358Y-99641622D01*
X121209910Y-99653115D01*
X121141946Y-99667263D01*
X121086498Y-99684788D01*
X121038599Y-99706411D01*
X120993280Y-99732854D01*
X120976832Y-99743566D01*
X120823217Y-99856081D01*
X120667005Y-99989267D01*
X120518131Y-100133452D01*
X120386533Y-100278965D01*
X120282145Y-100416136D01*
X120275299Y-100426411D01*
X120244853Y-100480811D01*
X120223275Y-100541736D01*
X120210144Y-100615340D01*
X120205039Y-100707775D01*
X120207539Y-100825197D01*
X120217224Y-100973760D01*
X120228741Y-101107065D01*
X120239931Y-101232400D01*
X120249554Y-101347754D01*
X120256944Y-101444527D01*
X120261435Y-101514121D01*
X120262500Y-101543064D01*
X120262500Y-101612915D01*
X119484625Y-101625754D01*
X119218898Y-101630903D01*
X118992318Y-101637046D01*
X118801707Y-101644410D01*
X118643885Y-101653220D01*
X118515675Y-101663702D01*
X118413897Y-101676081D01*
X118335372Y-101690584D01*
X118276921Y-101707436D01*
X118264129Y-101712434D01*
X118216702Y-101746166D01*
X118156463Y-101809107D01*
X118089676Y-101892676D01*
X118022607Y-101988291D01*
X117961521Y-102087369D01*
X117912684Y-102181331D01*
X117899409Y-102212000D01*
X117876326Y-102283218D01*
X117852050Y-102381357D01*
X117830080Y-102491265D01*
X117818778Y-102561250D01*
X117807476Y-102652861D01*
X117796295Y-102766864D01*
X117785685Y-102895529D01*
X117776099Y-103031122D01*
X117767986Y-103165914D01*
X117761799Y-103292172D01*
X117757987Y-103402165D01*
X117757003Y-103488162D01*
X117759297Y-103542431D01*
X117760950Y-103552469D01*
X117771885Y-103573527D01*
X117797817Y-103584104D01*
X117848754Y-103586399D01*
X117905369Y-103584219D01*
X117974535Y-103582535D01*
X118023125Y-103584968D01*
X118040045Y-103590509D01*
X118023345Y-103609735D01*
X117976235Y-103649850D01*
X117903121Y-103707660D01*
X117808409Y-103779972D01*
X117696506Y-103863593D01*
X117571817Y-103955330D01*
X117438749Y-104051990D01*
X117301708Y-104150379D01*
X117165100Y-104247305D01*
X117033332Y-104339574D01*
X116910810Y-104423992D01*
X116801939Y-104497368D01*
X116711127Y-104556507D01*
X116681329Y-104575163D01*
X116322795Y-104796190D01*
X115752648Y-104781388D01*
X115182500Y-104766586D01*
X115183013Y-104362418D01*
X115183356Y-104287017D01*
X115184220Y-104172566D01*
X115185570Y-104022345D01*
X115187369Y-103839633D01*
X115189580Y-103627709D01*
X115192167Y-103389855D01*
X115195095Y-103129349D01*
X115198325Y-102849470D01*
X115201823Y-102553499D01*
X115205551Y-102244716D01*
X115209473Y-101926399D01*
X115213554Y-101601829D01*
X115214273Y-101545250D01*
X115218402Y-101216854D01*
X115222379Y-100892076D01*
X115226167Y-100574403D01*
X115229729Y-100267323D01*
X115233026Y-99974323D01*
X115236024Y-99698891D01*
X115238683Y-99444513D01*
X115240967Y-99214679D01*
X115242839Y-99012875D01*
X115244262Y-98842589D01*
X115245198Y-98707308D01*
X115245611Y-98610520D01*
X115245622Y-98603084D01*
X115246224Y-98073917D01*
X115778067Y-97619082D01*
X116309910Y-97164248D01*
X116297475Y-96994666D01*
X116286306Y-96894277D01*
X116268835Y-96792336D01*
X116248787Y-96710471D01*
X116248221Y-96708667D01*
X116229977Y-96619276D01*
X116219280Y-96497550D01*
X116215625Y-96352711D01*
X116218505Y-96193984D01*
X116227415Y-96030593D01*
X116241849Y-95871763D01*
X116261303Y-95726716D01*
X116285269Y-95604679D01*
X116313243Y-95514874D01*
X116313715Y-95513762D01*
X116382014Y-95397698D01*
X116484303Y-95281401D01*
X116612673Y-95170698D01*
X116759216Y-95071418D01*
X116916025Y-94989391D01*
X117075192Y-94930444D01*
X117121648Y-94918266D01*
X117267192Y-94896123D01*
X117435794Y-94889775D01*
X117611856Y-94898412D01*
X117779780Y-94921222D01*
X117923969Y-94957393D01*
X117932962Y-94960472D01*
X118012144Y-94985353D01*
X118078955Y-95001255D01*
X118121052Y-95005356D01*
X118125406Y-95004516D01*
X118162547Y-94986361D01*
X118196294Y-94953752D01*
X118229096Y-94901708D01*
X118263402Y-94825251D01*
X118301661Y-94719403D01*
X118346322Y-94579186D01*
X118364987Y-94517509D01*
X118403573Y-94386965D01*
X118434407Y-94287222D01*
X118463206Y-94211860D01*
X118495687Y-94154462D01*
X118537567Y-94108607D01*
X118594564Y-94067876D01*
X118672393Y-94025849D01*
X118776772Y-93976108D01*
X118897250Y-93919859D01*
X119087991Y-93831687D01*
X119252626Y-93760443D01*
X119399362Y-93704362D01*
X119536402Y-93661679D01*
X119671953Y-93630629D01*
X119814219Y-93609447D01*
X119971405Y-93596366D01*
X120151717Y-93589623D01*
X120363360Y-93587452D01*
X120442417Y-93587439D01*
X120682014Y-93589426D01*
X120888122Y-93595156D01*
X121069483Y-93605448D01*
X121234838Y-93621120D01*
X121392931Y-93642990D01*
X121552504Y-93671876D01*
X121712417Y-93706332D01*
X121867476Y-93748939D01*
X122002676Y-93800182D01*
X122113291Y-93857312D01*
X122194595Y-93917583D01*
X122241861Y-93978250D01*
X122252167Y-94020001D01*
X122264458Y-94043891D01*
X122298662Y-94095589D01*
X122350777Y-94169426D01*
X122416800Y-94259737D01*
X122492728Y-94360855D01*
X122495584Y-94364609D01*
X122583195Y-94480884D01*
X122647574Y-94569585D01*
X122692046Y-94636106D01*
X122719935Y-94685840D01*
X122734568Y-94724180D01*
X122739268Y-94756520D01*
X122739321Y-94759960D01*
X122740872Y-94803605D01*
X122745014Y-94881841D01*
X122751288Y-94987033D01*
X122759236Y-95111549D01*
X122768396Y-95247755D01*
X122770625Y-95279917D01*
X122779909Y-95414358D01*
X122788125Y-95535684D01*
X122794826Y-95637104D01*
X122799564Y-95711824D01*
X122801893Y-95753054D01*
X122802054Y-95757740D01*
X122821930Y-95778721D01*
X122876804Y-95806303D01*
X122960232Y-95838456D01*
X123065766Y-95873154D01*
X123186961Y-95908370D01*
X123317371Y-95942074D01*
X123450549Y-95972241D01*
X123539460Y-95989708D01*
X123779003Y-96033476D01*
X123924085Y-95884899D01*
X124121917Y-95707559D01*
X124333395Y-95568554D01*
X124564335Y-95464616D01*
X124787600Y-95399718D01*
X124941783Y-95364584D01*
X124973249Y-95258750D01*
X124982838Y-95225653D01*
X125003308Y-95154343D01*
X125033944Y-95047323D01*
X125074032Y-94907094D01*
X125122859Y-94736159D01*
X125179710Y-94537019D01*
X125243871Y-94312177D01*
X125314628Y-94064135D01*
X125391268Y-93795394D01*
X125473076Y-93508458D01*
X125559339Y-93205828D01*
X125649342Y-92890005D01*
X125742372Y-92563493D01*
X125768162Y-92472963D01*
X126531610Y-89793009D01*
X126884264Y-89550224D01*
X126992722Y-89475680D01*
X127090035Y-89409035D01*
X127170545Y-89354142D01*
X127228594Y-89314858D01*
X127258526Y-89295037D01*
X127260557Y-89293795D01*
X127286322Y-89293497D01*
X127349089Y-89298720D01*
X127443970Y-89308884D01*
X127566075Y-89323408D01*
X127710516Y-89341714D01*
X127872404Y-89363222D01*
X128033140Y-89385421D01*
X128206443Y-89409721D01*
X128366451Y-89432045D01*
X128508339Y-89451728D01*
X128627277Y-89468105D01*
X128718438Y-89480510D01*
X128776995Y-89488279D01*
X128797959Y-89490762D01*
X128809245Y-89472449D01*
X128813834Y-89429313D01*
X128817473Y-89404645D01*
X128828127Y-89340536D01*
X128845399Y-89239229D01*
X128868893Y-89102961D01*
X128898214Y-88933973D01*
X128932964Y-88734506D01*
X128972749Y-88506799D01*
X129017172Y-88253091D01*
X129065836Y-87975624D01*
X129118346Y-87676636D01*
X129174305Y-87358369D01*
X129233318Y-87023061D01*
X129294988Y-86672953D01*
X129358920Y-86310284D01*
X129424716Y-85937296D01*
X129491982Y-85556227D01*
X129560321Y-85169317D01*
X129629336Y-84778807D01*
X129698632Y-84386937D01*
X129767813Y-83995946D01*
X129836482Y-83608074D01*
X129904243Y-83225562D01*
X129970701Y-82850649D01*
X130035459Y-82485575D01*
X130098121Y-82132580D01*
X130158291Y-81793905D01*
X130215573Y-81471788D01*
X130269571Y-81168471D01*
X130319888Y-80886193D01*
X130366129Y-80627193D01*
X130407897Y-80393713D01*
X130444797Y-80187991D01*
X130476432Y-80012268D01*
X130502406Y-79868784D01*
X130522323Y-79759779D01*
X130535787Y-79687492D01*
X130542402Y-79654164D01*
X130542530Y-79653625D01*
X130546124Y-79626156D01*
X130533417Y-79612011D01*
X130495078Y-79606854D01*
X130440670Y-79606283D01*
X130396754Y-79607876D01*
X130317472Y-79612310D01*
X130207231Y-79619257D01*
X130070440Y-79628385D01*
X129911507Y-79639364D01*
X129734841Y-79651864D01*
X129544850Y-79665555D01*
X129345942Y-79680107D01*
X129142525Y-79695189D01*
X128939008Y-79710471D01*
X128739799Y-79725624D01*
X128549307Y-79740316D01*
X128371939Y-79754219D01*
X128212105Y-79767000D01*
X128074211Y-79778331D01*
X127962668Y-79787881D01*
X127881882Y-79795320D01*
X127836262Y-79800318D01*
X127827600Y-79802011D01*
X127824087Y-79823893D01*
X127816321Y-79885174D01*
X127804604Y-79983165D01*
X127789241Y-80115180D01*
X127770533Y-80278529D01*
X127748784Y-80470525D01*
X127724297Y-80688479D01*
X127697374Y-80929703D01*
X127668318Y-81191508D01*
X127637432Y-81471208D01*
X127605020Y-81766112D01*
X127571383Y-82073534D01*
X127563233Y-82148232D01*
X127529254Y-82458922D01*
X127496336Y-82758191D01*
X127464791Y-83043305D01*
X127434928Y-83311533D01*
X127407058Y-83560140D01*
X127381492Y-83786394D01*
X127358540Y-83987561D01*
X127338513Y-84160909D01*
X127321722Y-84303704D01*
X127308476Y-84413214D01*
X127299087Y-84486704D01*
X127293866Y-84521443D01*
X127293306Y-84523617D01*
X127284773Y-84528462D01*
X127265950Y-84520070D01*
X127234470Y-84496166D01*
X127187966Y-84454475D01*
X127124074Y-84392720D01*
X127040426Y-84308625D01*
X126934656Y-84199915D01*
X126804400Y-84064315D01*
X126677657Y-83931460D01*
X126529009Y-83775436D01*
X126404622Y-83645584D01*
X126299581Y-83537397D01*
X126208975Y-83446371D01*
X126127890Y-83367999D01*
X126051413Y-83297778D01*
X125974632Y-83231200D01*
X125892633Y-83163762D01*
X125800504Y-83090957D01*
X125693331Y-83008280D01*
X125566202Y-82911226D01*
X125559887Y-82906413D01*
X125042671Y-82512225D01*
X124393544Y-82288860D01*
X124211695Y-82226489D01*
X124061985Y-82175973D01*
X123936586Y-82135208D01*
X123827674Y-82102088D01*
X123727420Y-82074507D01*
X123628000Y-82050361D01*
X123521586Y-82027542D01*
X123400353Y-82003947D01*
X123256473Y-81977469D01*
X123194282Y-81966222D01*
X122644147Y-81866949D01*
X122337032Y-81701392D01*
X122211807Y-81636841D01*
X122061157Y-81563802D01*
X121899217Y-81488860D01*
X121740121Y-81418602D01*
X121637922Y-81375694D01*
X121502811Y-81320807D01*
X121397170Y-81279416D01*
X121311350Y-81248836D01*
X121235703Y-81226383D01*
X121160578Y-81209372D01*
X121076327Y-81195118D01*
X120973302Y-81180937D01*
X120907672Y-81172518D01*
X120727133Y-81148284D01*
X120535362Y-81120309D01*
X120340488Y-81089960D01*
X120150640Y-81058601D01*
X119973948Y-81027596D01*
X119818541Y-80998310D01*
X119692549Y-80972108D01*
X119638756Y-80959511D01*
X119389044Y-80876956D01*
X119155659Y-80756958D01*
X118936162Y-80598107D01*
X118802716Y-80476265D01*
X118718713Y-80390113D01*
X118646236Y-80307851D01*
X118580947Y-80222714D01*
X118518509Y-80127939D01*
X118454582Y-80016764D01*
X118384828Y-79882423D01*
X118304908Y-79718155D01*
X118272384Y-79649478D01*
X118060404Y-79199565D01*
X118008670Y-78709574D01*
X117993086Y-78546852D01*
X117977471Y-78356353D01*
X117962369Y-78147323D01*
X117948320Y-77929011D01*
X117935869Y-77710664D01*
X117925556Y-77501529D01*
X117917924Y-77310853D01*
X117913515Y-77147884D01*
X117912656Y-77072111D01*
X117912311Y-76970750D01*
X117685114Y-76848016D01*
X117457917Y-76725281D01*
X117107696Y-76748772D01*
X116944392Y-76761543D01*
X116806517Y-76777247D01*
X116677166Y-76798520D01*
X116539434Y-76827998D01*
X116432262Y-76854100D01*
X116107050Y-76935938D01*
X115867025Y-76798118D01*
X115777510Y-76744658D01*
X115703157Y-76696326D01*
X115650877Y-76657908D01*
X115627582Y-76634191D01*
X115627000Y-76631875D01*
X115630195Y-76596826D01*
X115639334Y-76524429D01*
X115653744Y-76419152D01*
X115672755Y-76285462D01*
X115695696Y-76127824D01*
X115721895Y-75950707D01*
X115750683Y-75758575D01*
X115781386Y-75555896D01*
X115813336Y-75347136D01*
X115845859Y-75136762D01*
X115878286Y-74929241D01*
X115909945Y-74729039D01*
X115940165Y-74540623D01*
X115953959Y-74455704D01*
X115985238Y-74263967D01*
X116012115Y-74100977D01*
X116036012Y-73960902D01*
X116058350Y-73837908D01*
X116080550Y-73726164D01*
X116104035Y-73619835D01*
X116130225Y-73513090D01*
X116160542Y-73400095D01*
X116196407Y-73275018D01*
X116239242Y-73132026D01*
X116290469Y-72965286D01*
X116351508Y-72768965D01*
X116413292Y-72570873D01*
X116498227Y-72298496D01*
X117644822Y-72312670D01*
X101508106Y-102308122D02*
X101513069Y-102367782D01*
X101513069Y-102367782D02*
X101519751Y-102460099D01*
X101519751Y-102460099D02*
X101527870Y-102580266D01*
X101527870Y-102580266D02*
X101537142Y-102723475D01*
X101537142Y-102723475D02*
X101547281Y-102884920D01*
X101547281Y-102884920D02*
X101558005Y-103059793D01*
X101558005Y-103059793D02*
X101569029Y-103243287D01*
X101569029Y-103243287D02*
X101580070Y-103430595D01*
X101580070Y-103430595D02*
X101590843Y-103616910D01*
X101590843Y-103616910D02*
X101601064Y-103797424D01*
X101601064Y-103797424D02*
X101610449Y-103967330D01*
X101610449Y-103967330D02*
X101618715Y-104121821D01*
X101618715Y-104121821D02*
X101625577Y-104256090D01*
X101625577Y-104256090D02*
X101630752Y-104365330D01*
X101630752Y-104365330D02*
X101633954Y-104444732D01*
X101633954Y-104444732D02*
X101634895Y-104482125D01*
X101634895Y-104482125D02*
X101632454Y-104540334D01*
X101632454Y-104540334D02*
X101625192Y-104575781D01*
X101625192Y-104575781D02*
X101619959Y-104580989D01*
X101619959Y-104580989D02*
X101598730Y-104570943D01*
X101598730Y-104570943D02*
X101543822Y-104542750D01*
X101543822Y-104542750D02*
X101458837Y-104498316D01*
X101458837Y-104498316D02*
X101347380Y-104439546D01*
X101347380Y-104439546D02*
X101213053Y-104368348D01*
X101213053Y-104368348D02*
X101059460Y-104286628D01*
X101059460Y-104286628D02*
X100890202Y-104196292D01*
X100890202Y-104196292D02*
X100708884Y-104099247D01*
X100708884Y-104099247D02*
X100668582Y-104077641D01*
X100668582Y-104077641D02*
X100485161Y-103979167D01*
X100485161Y-103979167D02*
X100313151Y-103886602D01*
X100313151Y-103886602D02*
X100156146Y-103801895D01*
X100156146Y-103801895D02*
X100017738Y-103726994D01*
X100017738Y-103726994D02*
X99901520Y-103663849D01*
X99901520Y-103663849D02*
X99811085Y-103614407D01*
X99811085Y-103614407D02*
X99750026Y-103580618D01*
X99750026Y-103580618D02*
X99721935Y-103564431D01*
X99721935Y-103564431D02*
X99720552Y-103563441D01*
X99720552Y-103563441D02*
X99734826Y-103549121D01*
X99734826Y-103549121D02*
X99780485Y-103512653D01*
X99780485Y-103512653D02*
X99854373Y-103456367D01*
X99854373Y-103456367D02*
X99953336Y-103382593D01*
X99953336Y-103382593D02*
X100074219Y-103293661D01*
X100074219Y-103293661D02*
X100213866Y-103191899D01*
X100213866Y-103191899D02*
X100369124Y-103079638D01*
X100369124Y-103079638D02*
X100536836Y-102959206D01*
X100536836Y-102959206D02*
X100601294Y-102913128D01*
X100601294Y-102913128D02*
X100773331Y-102790635D01*
X100773331Y-102790635D02*
X100934874Y-102676270D01*
X100934874Y-102676270D02*
X101082678Y-102572283D01*
X101082678Y-102572283D02*
X101213502Y-102480925D01*
X101213502Y-102480925D02*
X101324102Y-102404446D01*
X101324102Y-102404446D02*
X101411234Y-102345097D01*
X101411234Y-102345097D02*
X101471657Y-102305128D01*
X101471657Y-102305128D02*
X101502126Y-102286790D01*
X101502126Y-102286790D02*
X101505148Y-102285926D01*
X101505148Y-102285926D02*
X101508106Y-102308122D01*
X101508106Y-102308122D02*
X101508106Y-102308122D01*
G36*
X101508106Y-102308122D02*
G01*
X101513069Y-102367782D01*
X101519751Y-102460099D01*
X101527870Y-102580266D01*
X101537142Y-102723475D01*
X101547281Y-102884920D01*
X101558005Y-103059793D01*
X101569029Y-103243287D01*
X101580070Y-103430595D01*
X101590843Y-103616910D01*
X101601064Y-103797424D01*
X101610449Y-103967330D01*
X101618715Y-104121821D01*
X101625577Y-104256090D01*
X101630752Y-104365330D01*
X101633954Y-104444732D01*
X101634895Y-104482125D01*
X101632454Y-104540334D01*
X101625192Y-104575781D01*
X101619959Y-104580989D01*
X101598730Y-104570943D01*
X101543822Y-104542750D01*
X101458837Y-104498316D01*
X101347380Y-104439546D01*
X101213053Y-104368348D01*
X101059460Y-104286628D01*
X100890202Y-104196292D01*
X100708884Y-104099247D01*
X100668582Y-104077641D01*
X100485161Y-103979167D01*
X100313151Y-103886602D01*
X100156146Y-103801895D01*
X100017738Y-103726994D01*
X99901520Y-103663849D01*
X99811085Y-103614407D01*
X99750026Y-103580618D01*
X99721935Y-103564431D01*
X99720552Y-103563441D01*
X99734826Y-103549121D01*
X99780485Y-103512653D01*
X99854373Y-103456367D01*
X99953336Y-103382593D01*
X100074219Y-103293661D01*
X100213866Y-103191899D01*
X100369124Y-103079638D01*
X100536836Y-102959206D01*
X100601294Y-102913128D01*
X100773331Y-102790635D01*
X100934874Y-102676270D01*
X101082678Y-102572283D01*
X101213502Y-102480925D01*
X101324102Y-102404446D01*
X101411234Y-102345097D01*
X101471657Y-102305128D01*
X101502126Y-102286790D01*
X101505148Y-102285926D01*
X101508106Y-102308122D01*
G37*
X101508106Y-102308122D02*
X101513069Y-102367782D01*
X101519751Y-102460099D01*
X101527870Y-102580266D01*
X101537142Y-102723475D01*
X101547281Y-102884920D01*
X101558005Y-103059793D01*
X101569029Y-103243287D01*
X101580070Y-103430595D01*
X101590843Y-103616910D01*
X101601064Y-103797424D01*
X101610449Y-103967330D01*
X101618715Y-104121821D01*
X101625577Y-104256090D01*
X101630752Y-104365330D01*
X101633954Y-104444732D01*
X101634895Y-104482125D01*
X101632454Y-104540334D01*
X101625192Y-104575781D01*
X101619959Y-104580989D01*
X101598730Y-104570943D01*
X101543822Y-104542750D01*
X101458837Y-104498316D01*
X101347380Y-104439546D01*
X101213053Y-104368348D01*
X101059460Y-104286628D01*
X100890202Y-104196292D01*
X100708884Y-104099247D01*
X100668582Y-104077641D01*
X100485161Y-103979167D01*
X100313151Y-103886602D01*
X100156146Y-103801895D01*
X100017738Y-103726994D01*
X99901520Y-103663849D01*
X99811085Y-103614407D01*
X99750026Y-103580618D01*
X99721935Y-103564431D01*
X99720552Y-103563441D01*
X99734826Y-103549121D01*
X99780485Y-103512653D01*
X99854373Y-103456367D01*
X99953336Y-103382593D01*
X100074219Y-103293661D01*
X100213866Y-103191899D01*
X100369124Y-103079638D01*
X100536836Y-102959206D01*
X100601294Y-102913128D01*
X100773331Y-102790635D01*
X100934874Y-102676270D01*
X101082678Y-102572283D01*
X101213502Y-102480925D01*
X101324102Y-102404446D01*
X101411234Y-102345097D01*
X101471657Y-102305128D01*
X101502126Y-102286790D01*
X101505148Y-102285926D01*
X101508106Y-102308122D01*
X97921084Y-72811728D02*
X98105123Y-73684916D01*
X98105123Y-73684916D02*
X98289163Y-74558105D01*
X98289163Y-74558105D02*
X98790988Y-75510428D01*
X98790988Y-75510428D02*
X99292812Y-76462750D01*
X99292812Y-76462750D02*
X99541103Y-77203584D01*
X99541103Y-77203584D02*
X99610858Y-77409519D01*
X99610858Y-77409519D02*
X99688550Y-77635114D01*
X99688550Y-77635114D02*
X99770240Y-77869181D01*
X99770240Y-77869181D02*
X99851992Y-78100533D01*
X99851992Y-78100533D02*
X99929867Y-78317982D01*
X99929867Y-78317982D02*
X99999929Y-78510340D01*
X99999929Y-78510340D02*
X100022124Y-78570334D01*
X100022124Y-78570334D02*
X100254854Y-79196252D01*
X100254854Y-79196252D02*
X100610802Y-79730289D01*
X100610802Y-79730289D02*
X100966751Y-80264326D01*
X100966751Y-80264326D02*
X101002156Y-80543705D01*
X101002156Y-80543705D02*
X101014912Y-80647071D01*
X101014912Y-80647071D02*
X101024981Y-80733964D01*
X101024981Y-80733964D02*
X101031499Y-80796489D01*
X101031499Y-80796489D02*
X101033599Y-80826751D01*
X101033599Y-80826751D02*
X101033366Y-80828318D01*
X101033366Y-80828318D02*
X101012285Y-80834149D01*
X101012285Y-80834149D02*
X100957075Y-80846689D01*
X100957075Y-80846689D02*
X100875114Y-80864331D01*
X100875114Y-80864331D02*
X100773783Y-80885469D01*
X100773783Y-80885469D02*
X100723960Y-80895667D01*
X100723960Y-80895667D02*
X100622364Y-80916897D01*
X100622364Y-80916897D02*
X100499423Y-80943456D01*
X100499423Y-80943456D02*
X100362499Y-80973665D01*
X100362499Y-80973665D02*
X100218957Y-81005842D01*
X100218957Y-81005842D02*
X100076160Y-81038308D01*
X100076160Y-81038308D02*
X99941472Y-81069383D01*
X99941472Y-81069383D02*
X99822258Y-81097385D01*
X99822258Y-81097385D02*
X99725880Y-81120635D01*
X99725880Y-81120635D02*
X99659703Y-81137452D01*
X99659703Y-81137452D02*
X99639762Y-81143069D01*
X99639762Y-81143069D02*
X99616427Y-81163753D01*
X99616427Y-81163753D02*
X99574530Y-81214250D01*
X99574530Y-81214250D02*
X99518423Y-81288777D01*
X99518423Y-81288777D02*
X99452461Y-81381554D01*
X99452461Y-81381554D02*
X99381312Y-81486322D01*
X99381312Y-81486322D02*
X99161018Y-81817917D01*
X99161018Y-81817917D02*
X99230275Y-82297222D01*
X99230275Y-82297222D02*
X99299533Y-82776528D01*
X99299533Y-82776528D02*
X99596490Y-83228556D01*
X99596490Y-83228556D02*
X99692886Y-83376104D01*
X99692886Y-83376104D02*
X99795510Y-83534598D01*
X99795510Y-83534598D02*
X99897599Y-83693494D01*
X99897599Y-83693494D02*
X99992387Y-83842248D01*
X99992387Y-83842248D02*
X100073112Y-83970317D01*
X100073112Y-83970317D02*
X100098871Y-84011653D01*
X100098871Y-84011653D02*
X100304293Y-84342723D01*
X100304293Y-84342723D02*
X100502580Y-84961909D01*
X100502580Y-84961909D02*
X100700866Y-85581095D01*
X100700866Y-85581095D02*
X100885918Y-85767008D01*
X100885918Y-85767008D02*
X101070969Y-85952921D01*
X101070969Y-85952921D02*
X101623276Y-86178404D01*
X101623276Y-86178404D02*
X101767421Y-86237779D01*
X101767421Y-86237779D02*
X101899176Y-86293056D01*
X101899176Y-86293056D02*
X102013304Y-86341958D01*
X102013304Y-86341958D02*
X102104566Y-86382206D01*
X102104566Y-86382206D02*
X102167723Y-86411522D01*
X102167723Y-86411522D02*
X102197537Y-86427628D01*
X102197537Y-86427628D02*
X102198710Y-86428652D01*
X102198710Y-86428652D02*
X102212590Y-86455497D01*
X102212590Y-86455497D02*
X102237766Y-86515866D01*
X102237766Y-86515866D02*
X102271724Y-86603264D01*
X102271724Y-86603264D02*
X102311951Y-86711197D01*
X102311951Y-86711197D02*
X102355934Y-86833171D01*
X102355934Y-86833171D02*
X102363165Y-86853593D01*
X102363165Y-86853593D02*
X102504495Y-87253770D01*
X102504495Y-87253770D02*
X102320540Y-87552093D01*
X102320540Y-87552093D02*
X102123263Y-87865799D01*
X102123263Y-87865799D02*
X101910946Y-88192251D01*
X101910946Y-88192251D02*
X101694680Y-88514667D01*
X101694680Y-88514667D02*
X101485554Y-88816265D01*
X101485554Y-88816265D02*
X101480025Y-88824084D01*
X101480025Y-88824084D02*
X101335867Y-89035533D01*
X101335867Y-89035533D02*
X101217384Y-89227839D01*
X101217384Y-89227839D02*
X101119399Y-89410852D01*
X101119399Y-89410852D02*
X101036739Y-89594420D01*
X101036739Y-89594420D02*
X100964227Y-89788391D01*
X100964227Y-89788391D02*
X100948231Y-89836149D01*
X100948231Y-89836149D02*
X100871885Y-90097896D01*
X100871885Y-90097896D02*
X100802034Y-90398710D01*
X100802034Y-90398710D02*
X100738604Y-90739079D01*
X100738604Y-90739079D02*
X100681519Y-91119490D01*
X100681519Y-91119490D02*
X100630705Y-91540432D01*
X100630705Y-91540432D02*
X100586087Y-92002394D01*
X100586087Y-92002394D02*
X100554844Y-92401250D01*
X100554844Y-92401250D02*
X100541469Y-92762113D01*
X100541469Y-92762113D02*
X100549998Y-93141876D01*
X100549998Y-93141876D02*
X100579229Y-93529848D01*
X100579229Y-93529848D02*
X100627958Y-93915337D01*
X100627958Y-93915337D02*
X100694983Y-94287651D01*
X100694983Y-94287651D02*
X100779102Y-94636097D01*
X100779102Y-94636097D02*
X100823002Y-94784778D01*
X100823002Y-94784778D02*
X100850005Y-94866836D01*
X100850005Y-94866836D02*
X100877905Y-94941339D01*
X100877905Y-94941339D02*
X100910245Y-95015278D01*
X100910245Y-95015278D02*
X100950573Y-95095644D01*
X100950573Y-95095644D02*
X101002432Y-95189428D01*
X101002432Y-95189428D02*
X101069370Y-95303621D01*
X101069370Y-95303621D02*
X101154929Y-95445213D01*
X101154929Y-95445213D02*
X101172756Y-95474435D01*
X101172756Y-95474435D02*
X101249547Y-95601316D01*
X101249547Y-95601316D02*
X101319569Y-95719160D01*
X101319569Y-95719160D02*
X101379528Y-95822250D01*
X101379528Y-95822250D02*
X101426132Y-95904871D01*
X101426132Y-95904871D02*
X101456088Y-95961309D01*
X101456088Y-95961309D02*
X101465470Y-95982435D01*
X101465470Y-95982435D02*
X101475023Y-96028536D01*
X101475023Y-96028536D02*
X101485020Y-96103454D01*
X101485020Y-96103454D02*
X101494883Y-96198724D01*
X101494883Y-96198724D02*
X101504034Y-96305886D01*
X101504034Y-96305886D02*
X101511892Y-96416476D01*
X101511892Y-96416476D02*
X101517879Y-96522033D01*
X101517879Y-96522033D02*
X101521416Y-96614093D01*
X101521416Y-96614093D02*
X101521923Y-96684195D01*
X101521923Y-96684195D02*
X101518822Y-96723876D01*
X101518822Y-96723876D02*
X101516573Y-96729221D01*
X101516573Y-96729221D02*
X101493878Y-96736280D01*
X101493878Y-96736280D02*
X101432678Y-96752316D01*
X101432678Y-96752316D02*
X101335691Y-96776676D01*
X101335691Y-96776676D02*
X101205635Y-96808706D01*
X101205635Y-96808706D02*
X101045228Y-96847750D01*
X101045228Y-96847750D02*
X100857187Y-96893156D01*
X100857187Y-96893156D02*
X100644232Y-96944267D01*
X100644232Y-96944267D02*
X100409079Y-97000430D01*
X100409079Y-97000430D02*
X100154447Y-97060991D01*
X100154447Y-97060991D02*
X99883054Y-97125296D01*
X99883054Y-97125296D02*
X99597617Y-97192689D01*
X99597617Y-97192689D02*
X99325470Y-97256734D01*
X99325470Y-97256734D02*
X97152689Y-97767262D01*
X97152689Y-97767262D02*
X96116267Y-98412584D01*
X96116267Y-98412584D02*
X95255704Y-99375667D01*
X95255704Y-99375667D02*
X94395142Y-100338750D01*
X94395142Y-100338750D02*
X93671029Y-100469981D01*
X93671029Y-100469981D02*
X93499167Y-100500879D01*
X93499167Y-100500879D02*
X93338728Y-100529247D01*
X93338728Y-100529247D02*
X93194926Y-100554201D01*
X93194926Y-100554201D02*
X93072975Y-100574856D01*
X93072975Y-100574856D02*
X92978087Y-100590324D01*
X92978087Y-100590324D02*
X92915477Y-100599722D01*
X92915477Y-100599722D02*
X92892199Y-100602273D01*
X92892199Y-100602273D02*
X92867766Y-100596978D01*
X92867766Y-100596978D02*
X92835718Y-100577816D01*
X92835718Y-100577816D02*
X92792110Y-100541148D01*
X92792110Y-100541148D02*
X92732996Y-100483336D01*
X92732996Y-100483336D02*
X92654429Y-100400740D01*
X92654429Y-100400740D02*
X92552464Y-100289721D01*
X92552464Y-100289721D02*
X92548241Y-100285075D01*
X92548241Y-100285075D02*
X92443123Y-100168003D01*
X92443123Y-100168003D02*
X92364788Y-100077190D01*
X92364788Y-100077190D02*
X92310263Y-100008783D01*
X92310263Y-100008783D02*
X92276577Y-99958929D01*
X92276577Y-99958929D02*
X92260759Y-99923772D01*
X92260759Y-99923772D02*
X92258600Y-99909367D01*
X92258600Y-99909367D02*
X92259140Y-99881045D01*
X92259140Y-99881045D02*
X92260837Y-99811789D01*
X92260837Y-99811789D02*
X92263653Y-99702984D01*
X92263653Y-99702984D02*
X92267549Y-99556011D01*
X92267549Y-99556011D02*
X92272485Y-99372254D01*
X92272485Y-99372254D02*
X92278424Y-99153096D01*
X92278424Y-99153096D02*
X92285325Y-98899921D01*
X92285325Y-98899921D02*
X92293151Y-98614110D01*
X92293151Y-98614110D02*
X92301863Y-98297048D01*
X92301863Y-98297048D02*
X92311421Y-97950117D01*
X92311421Y-97950117D02*
X92321787Y-97574701D01*
X92321787Y-97574701D02*
X92332923Y-97172182D01*
X92332923Y-97172182D02*
X92344789Y-96743944D01*
X92344789Y-96743944D02*
X92357346Y-96291370D01*
X92357346Y-96291370D02*
X92370556Y-95815842D01*
X92370556Y-95815842D02*
X92384379Y-95318745D01*
X92384379Y-95318745D02*
X92398778Y-94801461D01*
X92398778Y-94801461D02*
X92413713Y-94265372D01*
X92413713Y-94265372D02*
X92429146Y-93711863D01*
X92429146Y-93711863D02*
X92445037Y-93142317D01*
X92445037Y-93142317D02*
X92461347Y-92558116D01*
X92461347Y-92558116D02*
X92478039Y-91960643D01*
X92478039Y-91960643D02*
X92495073Y-91351282D01*
X92495073Y-91351282D02*
X92512410Y-90731416D01*
X92512410Y-90731416D02*
X92530012Y-90102427D01*
X92530012Y-90102427D02*
X92547839Y-89465699D01*
X92547839Y-89465699D02*
X92565853Y-88822616D01*
X92565853Y-88822616D02*
X92584015Y-88174559D01*
X92584015Y-88174559D02*
X92602287Y-87522913D01*
X92602287Y-87522913D02*
X92620629Y-86869060D01*
X92620629Y-86869060D02*
X92639002Y-86214383D01*
X92639002Y-86214383D02*
X92657368Y-85560265D01*
X92657368Y-85560265D02*
X92675689Y-84908091D01*
X92675689Y-84908091D02*
X92693924Y-84259241D01*
X92693924Y-84259241D02*
X92712036Y-83615101D01*
X92712036Y-83615101D02*
X92729985Y-82977052D01*
X92729985Y-82977052D02*
X92747732Y-82346479D01*
X92747732Y-82346479D02*
X92765240Y-81724763D01*
X92765240Y-81724763D02*
X92782469Y-81113288D01*
X92782469Y-81113288D02*
X92799380Y-80513438D01*
X92799380Y-80513438D02*
X92815934Y-79926595D01*
X92815934Y-79926595D02*
X92832093Y-79354142D01*
X92832093Y-79354142D02*
X92847818Y-78797463D01*
X92847818Y-78797463D02*
X92863070Y-78257940D01*
X92863070Y-78257940D02*
X92877810Y-77736957D01*
X92877810Y-77736957D02*
X92891999Y-77235897D01*
X92891999Y-77235897D02*
X92905599Y-76756143D01*
X92905599Y-76756143D02*
X92918570Y-76299077D01*
X92918570Y-76299077D02*
X92930875Y-75866084D01*
X92930875Y-75866084D02*
X92942473Y-75458546D01*
X92942473Y-75458546D02*
X92953327Y-75077845D01*
X92953327Y-75077845D02*
X92963397Y-74725367D01*
X92963397Y-74725367D02*
X92972644Y-74402492D01*
X92972644Y-74402492D02*
X92981031Y-74110605D01*
X92981031Y-74110605D02*
X92988517Y-73851089D01*
X92988517Y-73851089D02*
X92995065Y-73625327D01*
X92995065Y-73625327D02*
X93000634Y-73434701D01*
X93000634Y-73434701D02*
X93005188Y-73280595D01*
X93005188Y-73280595D02*
X93008686Y-73164392D01*
X93008686Y-73164392D02*
X93011090Y-73087475D01*
X93011090Y-73087475D02*
X93012361Y-73051227D01*
X93012361Y-73051227D02*
X93012438Y-73049625D01*
X93012438Y-73049625D02*
X93025176Y-72811500D01*
X93025176Y-72811500D02*
X97921084Y-72811728D01*
X97921084Y-72811728D02*
X97921084Y-72811728D01*
G36*
X97921084Y-72811728D02*
G01*
X98105123Y-73684916D01*
X98289163Y-74558105D01*
X98790988Y-75510428D01*
X99292812Y-76462750D01*
X99541103Y-77203584D01*
X99610858Y-77409519D01*
X99688550Y-77635114D01*
X99770240Y-77869181D01*
X99851992Y-78100533D01*
X99929867Y-78317982D01*
X99999929Y-78510340D01*
X100022124Y-78570334D01*
X100254854Y-79196252D01*
X100610802Y-79730289D01*
X100966751Y-80264326D01*
X101002156Y-80543705D01*
X101014912Y-80647071D01*
X101024981Y-80733964D01*
X101031499Y-80796489D01*
X101033599Y-80826751D01*
X101033366Y-80828318D01*
X101012285Y-80834149D01*
X100957075Y-80846689D01*
X100875114Y-80864331D01*
X100773783Y-80885469D01*
X100723960Y-80895667D01*
X100622364Y-80916897D01*
X100499423Y-80943456D01*
X100362499Y-80973665D01*
X100218957Y-81005842D01*
X100076160Y-81038308D01*
X99941472Y-81069383D01*
X99822258Y-81097385D01*
X99725880Y-81120635D01*
X99659703Y-81137452D01*
X99639762Y-81143069D01*
X99616427Y-81163753D01*
X99574530Y-81214250D01*
X99518423Y-81288777D01*
X99452461Y-81381554D01*
X99381312Y-81486322D01*
X99161018Y-81817917D01*
X99230275Y-82297222D01*
X99299533Y-82776528D01*
X99596490Y-83228556D01*
X99692886Y-83376104D01*
X99795510Y-83534598D01*
X99897599Y-83693494D01*
X99992387Y-83842248D01*
X100073112Y-83970317D01*
X100098871Y-84011653D01*
X100304293Y-84342723D01*
X100502580Y-84961909D01*
X100700866Y-85581095D01*
X100885918Y-85767008D01*
X101070969Y-85952921D01*
X101623276Y-86178404D01*
X101767421Y-86237779D01*
X101899176Y-86293056D01*
X102013304Y-86341958D01*
X102104566Y-86382206D01*
X102167723Y-86411522D01*
X102197537Y-86427628D01*
X102198710Y-86428652D01*
X102212590Y-86455497D01*
X102237766Y-86515866D01*
X102271724Y-86603264D01*
X102311951Y-86711197D01*
X102355934Y-86833171D01*
X102363165Y-86853593D01*
X102504495Y-87253770D01*
X102320540Y-87552093D01*
X102123263Y-87865799D01*
X101910946Y-88192251D01*
X101694680Y-88514667D01*
X101485554Y-88816265D01*
X101480025Y-88824084D01*
X101335867Y-89035533D01*
X101217384Y-89227839D01*
X101119399Y-89410852D01*
X101036739Y-89594420D01*
X100964227Y-89788391D01*
X100948231Y-89836149D01*
X100871885Y-90097896D01*
X100802034Y-90398710D01*
X100738604Y-90739079D01*
X100681519Y-91119490D01*
X100630705Y-91540432D01*
X100586087Y-92002394D01*
X100554844Y-92401250D01*
X100541469Y-92762113D01*
X100549998Y-93141876D01*
X100579229Y-93529848D01*
X100627958Y-93915337D01*
X100694983Y-94287651D01*
X100779102Y-94636097D01*
X100823002Y-94784778D01*
X100850005Y-94866836D01*
X100877905Y-94941339D01*
X100910245Y-95015278D01*
X100950573Y-95095644D01*
X101002432Y-95189428D01*
X101069370Y-95303621D01*
X101154929Y-95445213D01*
X101172756Y-95474435D01*
X101249547Y-95601316D01*
X101319569Y-95719160D01*
X101379528Y-95822250D01*
X101426132Y-95904871D01*
X101456088Y-95961309D01*
X101465470Y-95982435D01*
X101475023Y-96028536D01*
X101485020Y-96103454D01*
X101494883Y-96198724D01*
X101504034Y-96305886D01*
X101511892Y-96416476D01*
X101517879Y-96522033D01*
X101521416Y-96614093D01*
X101521923Y-96684195D01*
X101518822Y-96723876D01*
X101516573Y-96729221D01*
X101493878Y-96736280D01*
X101432678Y-96752316D01*
X101335691Y-96776676D01*
X101205635Y-96808706D01*
X101045228Y-96847750D01*
X100857187Y-96893156D01*
X100644232Y-96944267D01*
X100409079Y-97000430D01*
X100154447Y-97060991D01*
X99883054Y-97125296D01*
X99597617Y-97192689D01*
X99325470Y-97256734D01*
X97152689Y-97767262D01*
X96116267Y-98412584D01*
X95255704Y-99375667D01*
X94395142Y-100338750D01*
X93671029Y-100469981D01*
X93499167Y-100500879D01*
X93338728Y-100529247D01*
X93194926Y-100554201D01*
X93072975Y-100574856D01*
X92978087Y-100590324D01*
X92915477Y-100599722D01*
X92892199Y-100602273D01*
X92867766Y-100596978D01*
X92835718Y-100577816D01*
X92792110Y-100541148D01*
X92732996Y-100483336D01*
X92654429Y-100400740D01*
X92552464Y-100289721D01*
X92548241Y-100285075D01*
X92443123Y-100168003D01*
X92364788Y-100077190D01*
X92310263Y-100008783D01*
X92276577Y-99958929D01*
X92260759Y-99923772D01*
X92258600Y-99909367D01*
X92259140Y-99881045D01*
X92260837Y-99811789D01*
X92263653Y-99702984D01*
X92267549Y-99556011D01*
X92272485Y-99372254D01*
X92278424Y-99153096D01*
X92285325Y-98899921D01*
X92293151Y-98614110D01*
X92301863Y-98297048D01*
X92311421Y-97950117D01*
X92321787Y-97574701D01*
X92332923Y-97172182D01*
X92344789Y-96743944D01*
X92357346Y-96291370D01*
X92370556Y-95815842D01*
X92384379Y-95318745D01*
X92398778Y-94801461D01*
X92413713Y-94265372D01*
X92429146Y-93711863D01*
X92445037Y-93142317D01*
X92461347Y-92558116D01*
X92478039Y-91960643D01*
X92495073Y-91351282D01*
X92512410Y-90731416D01*
X92530012Y-90102427D01*
X92547839Y-89465699D01*
X92565853Y-88822616D01*
X92584015Y-88174559D01*
X92602287Y-87522913D01*
X92620629Y-86869060D01*
X92639002Y-86214383D01*
X92657368Y-85560265D01*
X92675689Y-84908091D01*
X92693924Y-84259241D01*
X92712036Y-83615101D01*
X92729985Y-82977052D01*
X92747732Y-82346479D01*
X92765240Y-81724763D01*
X92782469Y-81113288D01*
X92799380Y-80513438D01*
X92815934Y-79926595D01*
X92832093Y-79354142D01*
X92847818Y-78797463D01*
X92863070Y-78257940D01*
X92877810Y-77736957D01*
X92891999Y-77235897D01*
X92905599Y-76756143D01*
X92918570Y-76299077D01*
X92930875Y-75866084D01*
X92942473Y-75458546D01*
X92953327Y-75077845D01*
X92963397Y-74725367D01*
X92972644Y-74402492D01*
X92981031Y-74110605D01*
X92988517Y-73851089D01*
X92995065Y-73625327D01*
X93000634Y-73434701D01*
X93005188Y-73280595D01*
X93008686Y-73164392D01*
X93011090Y-73087475D01*
X93012361Y-73051227D01*
X93012438Y-73049625D01*
X93025176Y-72811500D01*
X97921084Y-72811728D01*
G37*
X97921084Y-72811728D02*
X98105123Y-73684916D01*
X98289163Y-74558105D01*
X98790988Y-75510428D01*
X99292812Y-76462750D01*
X99541103Y-77203584D01*
X99610858Y-77409519D01*
X99688550Y-77635114D01*
X99770240Y-77869181D01*
X99851992Y-78100533D01*
X99929867Y-78317982D01*
X99999929Y-78510340D01*
X100022124Y-78570334D01*
X100254854Y-79196252D01*
X100610802Y-79730289D01*
X100966751Y-80264326D01*
X101002156Y-80543705D01*
X101014912Y-80647071D01*
X101024981Y-80733964D01*
X101031499Y-80796489D01*
X101033599Y-80826751D01*
X101033366Y-80828318D01*
X101012285Y-80834149D01*
X100957075Y-80846689D01*
X100875114Y-80864331D01*
X100773783Y-80885469D01*
X100723960Y-80895667D01*
X100622364Y-80916897D01*
X100499423Y-80943456D01*
X100362499Y-80973665D01*
X100218957Y-81005842D01*
X100076160Y-81038308D01*
X99941472Y-81069383D01*
X99822258Y-81097385D01*
X99725880Y-81120635D01*
X99659703Y-81137452D01*
X99639762Y-81143069D01*
X99616427Y-81163753D01*
X99574530Y-81214250D01*
X99518423Y-81288777D01*
X99452461Y-81381554D01*
X99381312Y-81486322D01*
X99161018Y-81817917D01*
X99230275Y-82297222D01*
X99299533Y-82776528D01*
X99596490Y-83228556D01*
X99692886Y-83376104D01*
X99795510Y-83534598D01*
X99897599Y-83693494D01*
X99992387Y-83842248D01*
X100073112Y-83970317D01*
X100098871Y-84011653D01*
X100304293Y-84342723D01*
X100502580Y-84961909D01*
X100700866Y-85581095D01*
X100885918Y-85767008D01*
X101070969Y-85952921D01*
X101623276Y-86178404D01*
X101767421Y-86237779D01*
X101899176Y-86293056D01*
X102013304Y-86341958D01*
X102104566Y-86382206D01*
X102167723Y-86411522D01*
X102197537Y-86427628D01*
X102198710Y-86428652D01*
X102212590Y-86455497D01*
X102237766Y-86515866D01*
X102271724Y-86603264D01*
X102311951Y-86711197D01*
X102355934Y-86833171D01*
X102363165Y-86853593D01*
X102504495Y-87253770D01*
X102320540Y-87552093D01*
X102123263Y-87865799D01*
X101910946Y-88192251D01*
X101694680Y-88514667D01*
X101485554Y-88816265D01*
X101480025Y-88824084D01*
X101335867Y-89035533D01*
X101217384Y-89227839D01*
X101119399Y-89410852D01*
X101036739Y-89594420D01*
X100964227Y-89788391D01*
X100948231Y-89836149D01*
X100871885Y-90097896D01*
X100802034Y-90398710D01*
X100738604Y-90739079D01*
X100681519Y-91119490D01*
X100630705Y-91540432D01*
X100586087Y-92002394D01*
X100554844Y-92401250D01*
X100541469Y-92762113D01*
X100549998Y-93141876D01*
X100579229Y-93529848D01*
X100627958Y-93915337D01*
X100694983Y-94287651D01*
X100779102Y-94636097D01*
X100823002Y-94784778D01*
X100850005Y-94866836D01*
X100877905Y-94941339D01*
X100910245Y-95015278D01*
X100950573Y-95095644D01*
X101002432Y-95189428D01*
X101069370Y-95303621D01*
X101154929Y-95445213D01*
X101172756Y-95474435D01*
X101249547Y-95601316D01*
X101319569Y-95719160D01*
X101379528Y-95822250D01*
X101426132Y-95904871D01*
X101456088Y-95961309D01*
X101465470Y-95982435D01*
X101475023Y-96028536D01*
X101485020Y-96103454D01*
X101494883Y-96198724D01*
X101504034Y-96305886D01*
X101511892Y-96416476D01*
X101517879Y-96522033D01*
X101521416Y-96614093D01*
X101521923Y-96684195D01*
X101518822Y-96723876D01*
X101516573Y-96729221D01*
X101493878Y-96736280D01*
X101432678Y-96752316D01*
X101335691Y-96776676D01*
X101205635Y-96808706D01*
X101045228Y-96847750D01*
X100857187Y-96893156D01*
X100644232Y-96944267D01*
X100409079Y-97000430D01*
X100154447Y-97060991D01*
X99883054Y-97125296D01*
X99597617Y-97192689D01*
X99325470Y-97256734D01*
X97152689Y-97767262D01*
X96116267Y-98412584D01*
X95255704Y-99375667D01*
X94395142Y-100338750D01*
X93671029Y-100469981D01*
X93499167Y-100500879D01*
X93338728Y-100529247D01*
X93194926Y-100554201D01*
X93072975Y-100574856D01*
X92978087Y-100590324D01*
X92915477Y-100599722D01*
X92892199Y-100602273D01*
X92867766Y-100596978D01*
X92835718Y-100577816D01*
X92792110Y-100541148D01*
X92732996Y-100483336D01*
X92654429Y-100400740D01*
X92552464Y-100289721D01*
X92548241Y-100285075D01*
X92443123Y-100168003D01*
X92364788Y-100077190D01*
X92310263Y-100008783D01*
X92276577Y-99958929D01*
X92260759Y-99923772D01*
X92258600Y-99909367D01*
X92259140Y-99881045D01*
X92260837Y-99811789D01*
X92263653Y-99702984D01*
X92267549Y-99556011D01*
X92272485Y-99372254D01*
X92278424Y-99153096D01*
X92285325Y-98899921D01*
X92293151Y-98614110D01*
X92301863Y-98297048D01*
X92311421Y-97950117D01*
X92321787Y-97574701D01*
X92332923Y-97172182D01*
X92344789Y-96743944D01*
X92357346Y-96291370D01*
X92370556Y-95815842D01*
X92384379Y-95318745D01*
X92398778Y-94801461D01*
X92413713Y-94265372D01*
X92429146Y-93711863D01*
X92445037Y-93142317D01*
X92461347Y-92558116D01*
X92478039Y-91960643D01*
X92495073Y-91351282D01*
X92512410Y-90731416D01*
X92530012Y-90102427D01*
X92547839Y-89465699D01*
X92565853Y-88822616D01*
X92584015Y-88174559D01*
X92602287Y-87522913D01*
X92620629Y-86869060D01*
X92639002Y-86214383D01*
X92657368Y-85560265D01*
X92675689Y-84908091D01*
X92693924Y-84259241D01*
X92712036Y-83615101D01*
X92729985Y-82977052D01*
X92747732Y-82346479D01*
X92765240Y-81724763D01*
X92782469Y-81113288D01*
X92799380Y-80513438D01*
X92815934Y-79926595D01*
X92832093Y-79354142D01*
X92847818Y-78797463D01*
X92863070Y-78257940D01*
X92877810Y-77736957D01*
X92891999Y-77235897D01*
X92905599Y-76756143D01*
X92918570Y-76299077D01*
X92930875Y-75866084D01*
X92942473Y-75458546D01*
X92953327Y-75077845D01*
X92963397Y-74725367D01*
X92972644Y-74402492D01*
X92981031Y-74110605D01*
X92988517Y-73851089D01*
X92995065Y-73625327D01*
X93000634Y-73434701D01*
X93005188Y-73280595D01*
X93008686Y-73164392D01*
X93011090Y-73087475D01*
X93012361Y-73051227D01*
X93012438Y-73049625D01*
X93025176Y-72811500D01*
X97921084Y-72811728D01*
%TD*%
D13*
%TO.C,D1*%
X122015000Y-106000000D03*
D14*
X119475000Y-106000000D03*
%TD*%
D15*
%TO.C,X1*%
X111680200Y-109438400D03*
X111680200Y-106898400D03*
D16*
X109140200Y-109438400D03*
X109140200Y-106898400D03*
D17*
X106600200Y-109438400D03*
D16*
X106600200Y-106898400D03*
%TD*%
M02*
