%TF.GenerationSoftware,KiCad,Pcbnew,(6.0.8)*%
%TF.CreationDate,2022-10-04T20:20:28-05:00*%
%TF.ProjectId,DieHardSAO,44696548-6172-4645-9341-4f2e6b696361,rev?*%
%TF.SameCoordinates,Original*%
%TF.FileFunction,Legend,Bot*%
%TF.FilePolarity,Positive*%
%FSLAX46Y46*%
G04 Gerber Fmt 4.6, Leading zero omitted, Abs format (unit mm)*
G04 Created by KiCad (PCBNEW (6.0.8)) date 2022-10-04 20:20:28*
%MOMM*%
%LPD*%
G01*
G04 APERTURE LIST*
%ADD10C,0.300000*%
%ADD11C,0.127000*%
%ADD12C,0.150000*%
%ADD13C,0.120000*%
%ADD14C,0.500000*%
G04 APERTURE END LIST*
D10*
X110928571Y-89527142D02*
X110714285Y-89598571D01*
X110357142Y-89598571D01*
X110214285Y-89527142D01*
X110142857Y-89455714D01*
X110071428Y-89312857D01*
X110071428Y-89170000D01*
X110142857Y-89027142D01*
X110214285Y-88955714D01*
X110357142Y-88884285D01*
X110642857Y-88812857D01*
X110785714Y-88741428D01*
X110857142Y-88670000D01*
X110928571Y-88527142D01*
X110928571Y-88384285D01*
X110857142Y-88241428D01*
X110785714Y-88170000D01*
X110642857Y-88098571D01*
X110285714Y-88098571D01*
X110071428Y-88170000D01*
X109428571Y-89598571D02*
X109428571Y-88098571D01*
X109428571Y-88812857D02*
X108571428Y-88812857D01*
X108571428Y-89598571D02*
X108571428Y-88098571D01*
X107571428Y-88098571D02*
X107285714Y-88098571D01*
X107142857Y-88170000D01*
X107000000Y-88312857D01*
X106928571Y-88598571D01*
X106928571Y-89098571D01*
X107000000Y-89384285D01*
X107142857Y-89527142D01*
X107285714Y-89598571D01*
X107571428Y-89598571D01*
X107714285Y-89527142D01*
X107857142Y-89384285D01*
X107928571Y-89098571D01*
X107928571Y-88598571D01*
X107857142Y-88312857D01*
X107714285Y-88170000D01*
X107571428Y-88098571D01*
X105428571Y-89598571D02*
X105928571Y-88884285D01*
X106285714Y-89598571D02*
X106285714Y-88098571D01*
X105714285Y-88098571D01*
X105571428Y-88170000D01*
X105500000Y-88241428D01*
X105428571Y-88384285D01*
X105428571Y-88598571D01*
X105500000Y-88741428D01*
X105571428Y-88812857D01*
X105714285Y-88884285D01*
X106285714Y-88884285D01*
X105000000Y-88098571D02*
X104142857Y-88098571D01*
X104571428Y-89598571D02*
X104571428Y-88098571D01*
X102071428Y-88098571D02*
X102071428Y-89170000D01*
X102142857Y-89384285D01*
X102285714Y-89527142D01*
X102500000Y-89598571D01*
X102642857Y-89598571D01*
X101357142Y-89598571D02*
X101357142Y-88098571D01*
X100785714Y-88098571D01*
X100642857Y-88170000D01*
X100571428Y-88241428D01*
X100500000Y-88384285D01*
X100500000Y-88598571D01*
X100571428Y-88741428D01*
X100642857Y-88812857D01*
X100785714Y-88884285D01*
X101357142Y-88884285D01*
X99071428Y-89598571D02*
X99928571Y-89598571D01*
X99500000Y-89598571D02*
X99500000Y-88098571D01*
X99642857Y-88312857D01*
X99785714Y-88455714D01*
X99928571Y-88527142D01*
X97500000Y-88098571D02*
X96642857Y-88098571D01*
X97071428Y-89598571D02*
X97071428Y-88098571D01*
X95857142Y-88098571D02*
X95571428Y-88098571D01*
X95428571Y-88170000D01*
X95285714Y-88312857D01*
X95214285Y-88598571D01*
X95214285Y-89098571D01*
X95285714Y-89384285D01*
X95428571Y-89527142D01*
X95571428Y-89598571D01*
X95857142Y-89598571D01*
X96000000Y-89527142D01*
X96142857Y-89384285D01*
X96214285Y-89098571D01*
X96214285Y-88598571D01*
X96142857Y-88312857D01*
X96000000Y-88170000D01*
X95857142Y-88098571D01*
X107892857Y-91227857D02*
X107678571Y-91299285D01*
X107607142Y-91370714D01*
X107535714Y-91513571D01*
X107535714Y-91727857D01*
X107607142Y-91870714D01*
X107678571Y-91942142D01*
X107821428Y-92013571D01*
X108392857Y-92013571D01*
X108392857Y-90513571D01*
X107892857Y-90513571D01*
X107750000Y-90585000D01*
X107678571Y-90656428D01*
X107607142Y-90799285D01*
X107607142Y-90942142D01*
X107678571Y-91085000D01*
X107750000Y-91156428D01*
X107892857Y-91227857D01*
X108392857Y-91227857D01*
X106607142Y-91299285D02*
X106607142Y-92013571D01*
X107107142Y-90513571D02*
X106607142Y-91299285D01*
X106107142Y-90513571D01*
X105607142Y-92013571D02*
X105607142Y-90513571D01*
X105035714Y-90513571D01*
X104892857Y-90585000D01*
X104821428Y-90656428D01*
X104750000Y-90799285D01*
X104750000Y-91013571D01*
X104821428Y-91156428D01*
X104892857Y-91227857D01*
X105035714Y-91299285D01*
X105607142Y-91299285D01*
X104178571Y-91585000D02*
X103464285Y-91585000D01*
X104321428Y-92013571D02*
X103821428Y-90513571D01*
X103321428Y-92013571D01*
X102892857Y-91942142D02*
X102678571Y-92013571D01*
X102321428Y-92013571D01*
X102178571Y-91942142D01*
X102107142Y-91870714D01*
X102035714Y-91727857D01*
X102035714Y-91585000D01*
X102107142Y-91442142D01*
X102178571Y-91370714D01*
X102321428Y-91299285D01*
X102607142Y-91227857D01*
X102750000Y-91156428D01*
X102821428Y-91085000D01*
X102892857Y-90942142D01*
X102892857Y-90799285D01*
X102821428Y-90656428D01*
X102750000Y-90585000D01*
X102607142Y-90513571D01*
X102250000Y-90513571D01*
X102035714Y-90585000D01*
X101464285Y-91942142D02*
X101250000Y-92013571D01*
X100892857Y-92013571D01*
X100750000Y-91942142D01*
X100678571Y-91870714D01*
X100607142Y-91727857D01*
X100607142Y-91585000D01*
X100678571Y-91442142D01*
X100750000Y-91370714D01*
X100892857Y-91299285D01*
X101178571Y-91227857D01*
X101321428Y-91156428D01*
X101392857Y-91085000D01*
X101464285Y-90942142D01*
X101464285Y-90799285D01*
X101392857Y-90656428D01*
X101321428Y-90585000D01*
X101178571Y-90513571D01*
X100821428Y-90513571D01*
X100607142Y-90585000D01*
X97964285Y-92013571D02*
X98464285Y-91299285D01*
X98821428Y-92013571D02*
X98821428Y-90513571D01*
X98250000Y-90513571D01*
X98107142Y-90585000D01*
X98035714Y-90656428D01*
X97964285Y-90799285D01*
X97964285Y-91013571D01*
X98035714Y-91156428D01*
X98107142Y-91227857D01*
X98250000Y-91299285D01*
X98821428Y-91299285D01*
X96535714Y-92013571D02*
X97392857Y-92013571D01*
X96964285Y-92013571D02*
X96964285Y-90513571D01*
X97107142Y-90727857D01*
X97250000Y-90870714D01*
X97392857Y-90942142D01*
X111178571Y-93642857D02*
X110964285Y-93714285D01*
X110892857Y-93785714D01*
X110821428Y-93928571D01*
X110821428Y-94142857D01*
X110892857Y-94285714D01*
X110964285Y-94357142D01*
X111107142Y-94428571D01*
X111678571Y-94428571D01*
X111678571Y-92928571D01*
X111178571Y-92928571D01*
X111035714Y-93000000D01*
X110964285Y-93071428D01*
X110892857Y-93214285D01*
X110892857Y-93357142D01*
X110964285Y-93500000D01*
X111035714Y-93571428D01*
X111178571Y-93642857D01*
X111678571Y-93642857D01*
X110178571Y-93642857D02*
X109678571Y-93642857D01*
X109464285Y-94428571D02*
X110178571Y-94428571D01*
X110178571Y-92928571D01*
X109464285Y-92928571D01*
X107964285Y-94285714D02*
X108035714Y-94357142D01*
X108250000Y-94428571D01*
X108392857Y-94428571D01*
X108607142Y-94357142D01*
X108750000Y-94214285D01*
X108821428Y-94071428D01*
X108892857Y-93785714D01*
X108892857Y-93571428D01*
X108821428Y-93285714D01*
X108750000Y-93142857D01*
X108607142Y-93000000D01*
X108392857Y-92928571D01*
X108250000Y-92928571D01*
X108035714Y-93000000D01*
X107964285Y-93071428D01*
X107392857Y-94000000D02*
X106678571Y-94000000D01*
X107535714Y-94428571D02*
X107035714Y-92928571D01*
X106535714Y-94428571D01*
X106035714Y-92928571D02*
X106035714Y-94142857D01*
X105964285Y-94285714D01*
X105892857Y-94357142D01*
X105750000Y-94428571D01*
X105464285Y-94428571D01*
X105321428Y-94357142D01*
X105250000Y-94285714D01*
X105178571Y-94142857D01*
X105178571Y-92928571D01*
X104535714Y-94357142D02*
X104321428Y-94428571D01*
X103964285Y-94428571D01*
X103821428Y-94357142D01*
X103750000Y-94285714D01*
X103678571Y-94142857D01*
X103678571Y-94000000D01*
X103750000Y-93857142D01*
X103821428Y-93785714D01*
X103964285Y-93714285D01*
X104250000Y-93642857D01*
X104392857Y-93571428D01*
X104464285Y-93500000D01*
X104535714Y-93357142D01*
X104535714Y-93214285D01*
X104464285Y-93071428D01*
X104392857Y-93000000D01*
X104250000Y-92928571D01*
X103892857Y-92928571D01*
X103678571Y-93000000D01*
X103035714Y-93642857D02*
X102535714Y-93642857D01*
X102321428Y-94428571D02*
X103035714Y-94428571D01*
X103035714Y-92928571D01*
X102321428Y-92928571D01*
X99678571Y-94428571D02*
X100178571Y-93714285D01*
X100535714Y-94428571D02*
X100535714Y-92928571D01*
X99964285Y-92928571D01*
X99821428Y-93000000D01*
X99750000Y-93071428D01*
X99678571Y-93214285D01*
X99678571Y-93428571D01*
X99750000Y-93571428D01*
X99821428Y-93642857D01*
X99964285Y-93714285D01*
X100535714Y-93714285D01*
X99035714Y-94428571D02*
X99035714Y-92928571D01*
X98464285Y-92928571D02*
X97464285Y-94428571D01*
X97464285Y-92928571D02*
X98464285Y-94428571D01*
X96607142Y-92928571D02*
X96321428Y-92928571D01*
X96178571Y-93000000D01*
X96035714Y-93142857D01*
X95964285Y-93428571D01*
X95964285Y-93928571D01*
X96035714Y-94214285D01*
X96178571Y-94357142D01*
X96321428Y-94428571D01*
X96607142Y-94428571D01*
X96750000Y-94357142D01*
X96892857Y-94214285D01*
X96964285Y-93928571D01*
X96964285Y-93428571D01*
X96892857Y-93142857D01*
X96750000Y-93000000D01*
X96607142Y-92928571D01*
X95321428Y-94428571D02*
X95321428Y-92928571D01*
X94464285Y-94428571D01*
X94464285Y-92928571D01*
X111000000Y-95343571D02*
X110642857Y-96843571D01*
X110357142Y-95772142D01*
X110071428Y-96843571D01*
X109714285Y-95343571D01*
X109214285Y-96415000D02*
X108500000Y-96415000D01*
X109357142Y-96843571D02*
X108857142Y-95343571D01*
X108357142Y-96843571D01*
X107857142Y-96843571D02*
X107857142Y-95343571D01*
X107000000Y-96843571D01*
X107000000Y-95343571D01*
X106500000Y-95343571D02*
X105642857Y-95343571D01*
X106071428Y-96843571D02*
X106071428Y-95343571D01*
X105214285Y-96772142D02*
X105000000Y-96843571D01*
X104642857Y-96843571D01*
X104500000Y-96772142D01*
X104428571Y-96700714D01*
X104357142Y-96557857D01*
X104357142Y-96415000D01*
X104428571Y-96272142D01*
X104500000Y-96200714D01*
X104642857Y-96129285D01*
X104928571Y-96057857D01*
X105071428Y-95986428D01*
X105142857Y-95915000D01*
X105214285Y-95772142D01*
X105214285Y-95629285D01*
X105142857Y-95486428D01*
X105071428Y-95415000D01*
X104928571Y-95343571D01*
X104571428Y-95343571D01*
X104357142Y-95415000D01*
X102785714Y-95343571D02*
X101928571Y-95343571D01*
X102357142Y-96843571D02*
X102357142Y-95343571D01*
X101142857Y-95343571D02*
X100857142Y-95343571D01*
X100714285Y-95415000D01*
X100571428Y-95557857D01*
X100500000Y-95843571D01*
X100500000Y-96343571D01*
X100571428Y-96629285D01*
X100714285Y-96772142D01*
X100857142Y-96843571D01*
X101142857Y-96843571D01*
X101285714Y-96772142D01*
X101428571Y-96629285D01*
X101500000Y-96343571D01*
X101500000Y-95843571D01*
X101428571Y-95557857D01*
X101285714Y-95415000D01*
X101142857Y-95343571D01*
X98785714Y-96772142D02*
X98571428Y-96843571D01*
X98214285Y-96843571D01*
X98071428Y-96772142D01*
X98000000Y-96700714D01*
X97928571Y-96557857D01*
X97928571Y-96415000D01*
X98000000Y-96272142D01*
X98071428Y-96200714D01*
X98214285Y-96129285D01*
X98500000Y-96057857D01*
X98642857Y-95986428D01*
X98714285Y-95915000D01*
X98785714Y-95772142D01*
X98785714Y-95629285D01*
X98714285Y-95486428D01*
X98642857Y-95415000D01*
X98500000Y-95343571D01*
X98142857Y-95343571D01*
X97928571Y-95415000D01*
X97285714Y-96057857D02*
X96785714Y-96057857D01*
X96571428Y-96843571D02*
X97285714Y-96843571D01*
X97285714Y-95343571D01*
X96571428Y-95343571D01*
X95928571Y-96057857D02*
X95428571Y-96057857D01*
X95214285Y-96843571D02*
X95928571Y-96843571D01*
X95928571Y-95343571D01*
X95214285Y-95343571D01*
X112714285Y-97758571D02*
X111857142Y-97758571D01*
X112285714Y-99258571D02*
X112285714Y-97758571D01*
X111357142Y-99258571D02*
X111357142Y-97758571D01*
X111357142Y-98472857D02*
X110500000Y-98472857D01*
X110500000Y-99258571D02*
X110500000Y-97758571D01*
X109785714Y-98472857D02*
X109285714Y-98472857D01*
X109071428Y-99258571D02*
X109785714Y-99258571D01*
X109785714Y-97758571D01*
X109071428Y-97758571D01*
X107428571Y-97758571D02*
X107071428Y-99258571D01*
X106785714Y-98187142D01*
X106500000Y-99258571D01*
X106142857Y-97758571D01*
X105285714Y-97758571D02*
X105000000Y-97758571D01*
X104857142Y-97830000D01*
X104714285Y-97972857D01*
X104642857Y-98258571D01*
X104642857Y-98758571D01*
X104714285Y-99044285D01*
X104857142Y-99187142D01*
X105000000Y-99258571D01*
X105285714Y-99258571D01*
X105428571Y-99187142D01*
X105571428Y-99044285D01*
X105642857Y-98758571D01*
X105642857Y-98258571D01*
X105571428Y-97972857D01*
X105428571Y-97830000D01*
X105285714Y-97758571D01*
X103142857Y-99258571D02*
X103642857Y-98544285D01*
X104000000Y-99258571D02*
X104000000Y-97758571D01*
X103428571Y-97758571D01*
X103285714Y-97830000D01*
X103214285Y-97901428D01*
X103142857Y-98044285D01*
X103142857Y-98258571D01*
X103214285Y-98401428D01*
X103285714Y-98472857D01*
X103428571Y-98544285D01*
X104000000Y-98544285D01*
X101785714Y-99258571D02*
X102500000Y-99258571D01*
X102500000Y-97758571D01*
X101285714Y-99258571D02*
X101285714Y-97758571D01*
X100928571Y-97758571D01*
X100714285Y-97830000D01*
X100571428Y-97972857D01*
X100500000Y-98115714D01*
X100428571Y-98401428D01*
X100428571Y-98615714D01*
X100500000Y-98901428D01*
X100571428Y-99044285D01*
X100714285Y-99187142D01*
X100928571Y-99258571D01*
X101285714Y-99258571D01*
X98142857Y-98472857D02*
X97928571Y-98544285D01*
X97857142Y-98615714D01*
X97785714Y-98758571D01*
X97785714Y-98972857D01*
X97857142Y-99115714D01*
X97928571Y-99187142D01*
X98071428Y-99258571D01*
X98642857Y-99258571D01*
X98642857Y-97758571D01*
X98142857Y-97758571D01*
X98000000Y-97830000D01*
X97928571Y-97901428D01*
X97857142Y-98044285D01*
X97857142Y-98187142D01*
X97928571Y-98330000D01*
X98000000Y-98401428D01*
X98142857Y-98472857D01*
X98642857Y-98472857D01*
X97142857Y-97758571D02*
X97142857Y-98972857D01*
X97071428Y-99115714D01*
X97000000Y-99187142D01*
X96857142Y-99258571D01*
X96571428Y-99258571D01*
X96428571Y-99187142D01*
X96357142Y-99115714D01*
X96285714Y-98972857D01*
X96285714Y-97758571D01*
X94714285Y-99258571D02*
X95214285Y-98544285D01*
X95571428Y-99258571D02*
X95571428Y-97758571D01*
X95000000Y-97758571D01*
X94857142Y-97830000D01*
X94785714Y-97901428D01*
X94714285Y-98044285D01*
X94714285Y-98258571D01*
X94785714Y-98401428D01*
X94857142Y-98472857D01*
X95000000Y-98544285D01*
X95571428Y-98544285D01*
X94071428Y-99258571D02*
X94071428Y-97758571D01*
X93214285Y-99258571D01*
X93214285Y-97758571D01*
X92500000Y-99115714D02*
X92428571Y-99187142D01*
X92500000Y-99258571D01*
X92571428Y-99187142D01*
X92500000Y-99115714D01*
X92500000Y-99258571D01*
X92500000Y-98687142D02*
X92571428Y-97830000D01*
X92500000Y-97758571D01*
X92428571Y-97830000D01*
X92500000Y-98687142D01*
X92500000Y-97758571D01*
D11*
%TO.C,R1*%
X128101600Y-103025771D02*
X128304800Y-102735485D01*
X128449942Y-103025771D02*
X128449942Y-102416171D01*
X128217714Y-102416171D01*
X128159657Y-102445200D01*
X128130628Y-102474228D01*
X128101600Y-102532285D01*
X128101600Y-102619371D01*
X128130628Y-102677428D01*
X128159657Y-102706457D01*
X128217714Y-102735485D01*
X128449942Y-102735485D01*
X127521028Y-103025771D02*
X127869371Y-103025771D01*
X127695200Y-103025771D02*
X127695200Y-102416171D01*
X127753257Y-102503257D01*
X127811314Y-102561314D01*
X127869371Y-102590342D01*
D12*
%TO.C,JP1*%
X127608333Y-99702380D02*
X127608333Y-100416666D01*
X127655952Y-100559523D01*
X127751190Y-100654761D01*
X127894047Y-100702380D01*
X127989285Y-100702380D01*
X127132142Y-100702380D02*
X127132142Y-99702380D01*
X126751190Y-99702380D01*
X126655952Y-99750000D01*
X126608333Y-99797619D01*
X126560714Y-99892857D01*
X126560714Y-100035714D01*
X126608333Y-100130952D01*
X126655952Y-100178571D01*
X126751190Y-100226190D01*
X127132142Y-100226190D01*
X125608333Y-100702380D02*
X126179761Y-100702380D01*
X125894047Y-100702380D02*
X125894047Y-99702380D01*
X125989285Y-99845238D01*
X126084523Y-99940476D01*
X126179761Y-99988095D01*
%TO.C,X1*%
X118306828Y-120042000D02*
X118378257Y-120006285D01*
X118485400Y-120006285D01*
X118592542Y-120042000D01*
X118663971Y-120113428D01*
X118699685Y-120184857D01*
X118735400Y-120327714D01*
X118735400Y-120434857D01*
X118699685Y-120577714D01*
X118663971Y-120649142D01*
X118592542Y-120720571D01*
X118485400Y-120756285D01*
X118413971Y-120756285D01*
X118306828Y-120720571D01*
X118271114Y-120684857D01*
X118271114Y-120434857D01*
X118413971Y-120434857D01*
X117949685Y-120756285D02*
X117949685Y-120006285D01*
X117521114Y-120756285D01*
X117521114Y-120006285D01*
X117163971Y-120756285D02*
X117163971Y-120006285D01*
X116985400Y-120006285D01*
X116878257Y-120042000D01*
X116806828Y-120113428D01*
X116771114Y-120184857D01*
X116735400Y-120327714D01*
X116735400Y-120434857D01*
X116771114Y-120577714D01*
X116806828Y-120649142D01*
X116878257Y-120720571D01*
X116985400Y-120756285D01*
X117163971Y-120756285D01*
X121117457Y-120720571D02*
X121010314Y-120756285D01*
X120831742Y-120756285D01*
X120760314Y-120720571D01*
X120724600Y-120684857D01*
X120688885Y-120613428D01*
X120688885Y-120542000D01*
X120724600Y-120470571D01*
X120760314Y-120434857D01*
X120831742Y-120399142D01*
X120974600Y-120363428D01*
X121046028Y-120327714D01*
X121081742Y-120292000D01*
X121117457Y-120220571D01*
X121117457Y-120149142D01*
X121081742Y-120077714D01*
X121046028Y-120042000D01*
X120974600Y-120006285D01*
X120796028Y-120006285D01*
X120688885Y-120042000D01*
X119938885Y-120684857D02*
X119974600Y-120720571D01*
X120081742Y-120756285D01*
X120153171Y-120756285D01*
X120260314Y-120720571D01*
X120331742Y-120649142D01*
X120367457Y-120577714D01*
X120403171Y-120434857D01*
X120403171Y-120327714D01*
X120367457Y-120184857D01*
X120331742Y-120113428D01*
X120260314Y-120042000D01*
X120153171Y-120006285D01*
X120081742Y-120006285D01*
X119974600Y-120042000D01*
X119938885Y-120077714D01*
X119260314Y-120756285D02*
X119617457Y-120756285D01*
X119617457Y-120006285D01*
X125268742Y-114377800D02*
X125340171Y-114342085D01*
X125447314Y-114342085D01*
X125554457Y-114377800D01*
X125625885Y-114449228D01*
X125661600Y-114520657D01*
X125697314Y-114663514D01*
X125697314Y-114770657D01*
X125661600Y-114913514D01*
X125625885Y-114984942D01*
X125554457Y-115056371D01*
X125447314Y-115092085D01*
X125375885Y-115092085D01*
X125268742Y-115056371D01*
X125233028Y-115020657D01*
X125233028Y-114770657D01*
X125375885Y-114770657D01*
X124911600Y-115092085D02*
X124911600Y-114342085D01*
X124625885Y-114342085D01*
X124554457Y-114377800D01*
X124518742Y-114413514D01*
X124483028Y-114484942D01*
X124483028Y-114592085D01*
X124518742Y-114663514D01*
X124554457Y-114699228D01*
X124625885Y-114734942D01*
X124911600Y-114734942D01*
X124161600Y-115092085D02*
X124161600Y-114342085D01*
X123661600Y-114342085D02*
X123518742Y-114342085D01*
X123447314Y-114377800D01*
X123375885Y-114449228D01*
X123340171Y-114592085D01*
X123340171Y-114842085D01*
X123375885Y-114984942D01*
X123447314Y-115056371D01*
X123518742Y-115092085D01*
X123661600Y-115092085D01*
X123733028Y-115056371D01*
X123804457Y-114984942D01*
X123840171Y-114842085D01*
X123840171Y-114592085D01*
X123804457Y-114449228D01*
X123733028Y-114377800D01*
X123661600Y-114342085D01*
X122625885Y-115092085D02*
X123054457Y-115092085D01*
X122840171Y-115092085D02*
X122840171Y-114342085D01*
X122911600Y-114449228D01*
X122983028Y-114520657D01*
X123054457Y-114556371D01*
X118684600Y-114367485D02*
X118434600Y-115117485D01*
X118184600Y-114367485D01*
X117506028Y-115046057D02*
X117541742Y-115081771D01*
X117648885Y-115117485D01*
X117720314Y-115117485D01*
X117827457Y-115081771D01*
X117898885Y-115010342D01*
X117934600Y-114938914D01*
X117970314Y-114796057D01*
X117970314Y-114688914D01*
X117934600Y-114546057D01*
X117898885Y-114474628D01*
X117827457Y-114403200D01*
X117720314Y-114367485D01*
X117648885Y-114367485D01*
X117541742Y-114403200D01*
X117506028Y-114438914D01*
X116756028Y-115046057D02*
X116791742Y-115081771D01*
X116898885Y-115117485D01*
X116970314Y-115117485D01*
X117077457Y-115081771D01*
X117148885Y-115010342D01*
X117184600Y-114938914D01*
X117220314Y-114796057D01*
X117220314Y-114688914D01*
X117184600Y-114546057D01*
X117148885Y-114474628D01*
X117077457Y-114403200D01*
X116970314Y-114367485D01*
X116898885Y-114367485D01*
X116791742Y-114403200D01*
X116756028Y-114438914D01*
X121389314Y-115056371D02*
X121282171Y-115092085D01*
X121103600Y-115092085D01*
X121032171Y-115056371D01*
X120996457Y-115020657D01*
X120960742Y-114949228D01*
X120960742Y-114877800D01*
X120996457Y-114806371D01*
X121032171Y-114770657D01*
X121103600Y-114734942D01*
X121246457Y-114699228D01*
X121317885Y-114663514D01*
X121353600Y-114627800D01*
X121389314Y-114556371D01*
X121389314Y-114484942D01*
X121353600Y-114413514D01*
X121317885Y-114377800D01*
X121246457Y-114342085D01*
X121067885Y-114342085D01*
X120960742Y-114377800D01*
X120639314Y-115092085D02*
X120639314Y-114342085D01*
X120460742Y-114342085D01*
X120353600Y-114377800D01*
X120282171Y-114449228D01*
X120246457Y-114520657D01*
X120210742Y-114663514D01*
X120210742Y-114770657D01*
X120246457Y-114913514D01*
X120282171Y-114984942D01*
X120353600Y-115056371D01*
X120460742Y-115092085D01*
X120639314Y-115092085D01*
X119925028Y-114877800D02*
X119567885Y-114877800D01*
X119996457Y-115092085D02*
X119746457Y-114342085D01*
X119496457Y-115092085D01*
X125446542Y-120016600D02*
X125517971Y-119980885D01*
X125625114Y-119980885D01*
X125732257Y-120016600D01*
X125803685Y-120088028D01*
X125839400Y-120159457D01*
X125875114Y-120302314D01*
X125875114Y-120409457D01*
X125839400Y-120552314D01*
X125803685Y-120623742D01*
X125732257Y-120695171D01*
X125625114Y-120730885D01*
X125553685Y-120730885D01*
X125446542Y-120695171D01*
X125410828Y-120659457D01*
X125410828Y-120409457D01*
X125553685Y-120409457D01*
X125089400Y-120730885D02*
X125089400Y-119980885D01*
X124803685Y-119980885D01*
X124732257Y-120016600D01*
X124696542Y-120052314D01*
X124660828Y-120123742D01*
X124660828Y-120230885D01*
X124696542Y-120302314D01*
X124732257Y-120338028D01*
X124803685Y-120373742D01*
X125089400Y-120373742D01*
X124339400Y-120730885D02*
X124339400Y-119980885D01*
X123839400Y-119980885D02*
X123696542Y-119980885D01*
X123625114Y-120016600D01*
X123553685Y-120088028D01*
X123517971Y-120230885D01*
X123517971Y-120480885D01*
X123553685Y-120623742D01*
X123625114Y-120695171D01*
X123696542Y-120730885D01*
X123839400Y-120730885D01*
X123910828Y-120695171D01*
X123982257Y-120623742D01*
X124017971Y-120480885D01*
X124017971Y-120230885D01*
X123982257Y-120088028D01*
X123910828Y-120016600D01*
X123839400Y-119980885D01*
X123232257Y-120052314D02*
X123196542Y-120016600D01*
X123125114Y-119980885D01*
X122946542Y-119980885D01*
X122875114Y-120016600D01*
X122839400Y-120052314D01*
X122803685Y-120123742D01*
X122803685Y-120195171D01*
X122839400Y-120302314D01*
X123267971Y-120730885D01*
X122803685Y-120730885D01*
%TO.C,D1*%
X121218095Y-84992380D02*
X121218095Y-83992380D01*
X120980000Y-83992380D01*
X120837142Y-84040000D01*
X120741904Y-84135238D01*
X120694285Y-84230476D01*
X120646666Y-84420952D01*
X120646666Y-84563809D01*
X120694285Y-84754285D01*
X120741904Y-84849523D01*
X120837142Y-84944761D01*
X120980000Y-84992380D01*
X121218095Y-84992380D01*
X119694285Y-84992380D02*
X120265714Y-84992380D01*
X119980000Y-84992380D02*
X119980000Y-83992380D01*
X120075238Y-84135238D01*
X120170476Y-84230476D01*
X120265714Y-84278095D01*
D13*
%TO.C,JP1*%
X128875000Y-98750000D02*
X128875000Y-100750000D01*
X131675000Y-98750000D02*
X128875000Y-98750000D01*
X131675000Y-100750000D02*
X131675000Y-98750000D01*
X128875000Y-100750000D02*
X131675000Y-100750000D01*
D14*
%TO.C,X1*%
X122663000Y-113889200D02*
X122663000Y-113381200D01*
X113900000Y-121128200D02*
X127235000Y-121128200D01*
X122663000Y-113381200D02*
X118345000Y-113381200D01*
X118345000Y-113381200D02*
X118345000Y-113889200D01*
X113900000Y-114016200D02*
X113900000Y-121128200D01*
X127108000Y-114016200D02*
X113900000Y-114016200D01*
X118345000Y-113762200D02*
X122663000Y-113762200D01*
X127235000Y-121128200D02*
X127235000Y-114016200D01*
X113630000Y-112305000D02*
G75*
G03*
X113630000Y-112305000I-1000000J0D01*
G01*
%TO.C,kibuzzard-61DF9C8F*%
G36*
X104683837Y-77257812D02*
G01*
X109316163Y-77257812D01*
X109316163Y-79242188D01*
X104683837Y-79242188D01*
X104683837Y-78333344D01*
X104783056Y-78333344D01*
X105033087Y-78333344D01*
X105033087Y-78059500D01*
X105097381Y-78052356D01*
X105218230Y-78080634D01*
X105309312Y-78165466D01*
X105366462Y-78305662D01*
X105385512Y-78500031D01*
X105363486Y-78700056D01*
X105297406Y-78842931D01*
X105193227Y-78928656D01*
X105056900Y-78957231D01*
X104928312Y-78939967D01*
X104794962Y-78888175D01*
X104794962Y-79083438D01*
X104938433Y-79128086D01*
X105087856Y-79142969D01*
X105253750Y-79124977D01*
X105392656Y-79071002D01*
X105504575Y-78981044D01*
X105586596Y-78855631D01*
X105635808Y-78695294D01*
X105652212Y-78500031D01*
X105640792Y-78329456D01*
X105606531Y-78185123D01*
X105549430Y-78067033D01*
X105469488Y-77975184D01*
X105366705Y-77909578D01*
X105241082Y-77870215D01*
X105092619Y-77857094D01*
X105961775Y-77857094D01*
X105961775Y-78054737D01*
X106144073Y-78062410D01*
X106319492Y-78085429D01*
X106488031Y-78123794D01*
X106485650Y-79119156D01*
X106747588Y-79119156D01*
X106747588Y-78250000D01*
X107097631Y-78250000D01*
X107103849Y-78461270D01*
X107122502Y-78641054D01*
X107153591Y-78789353D01*
X107220563Y-78957827D01*
X107309563Y-79065578D01*
X107425648Y-79123621D01*
X107573881Y-79142969D01*
X107722114Y-79123621D01*
X107731044Y-79119156D01*
X108312069Y-79119156D01*
X108569244Y-79119156D01*
X108569244Y-78273813D01*
X108616869Y-78099981D01*
X108793081Y-78052356D01*
X108955006Y-78104744D01*
X108955006Y-79119156D01*
X109216944Y-79119156D01*
X109216944Y-77957106D01*
X109092325Y-77901544D01*
X108953419Y-77868206D01*
X108800225Y-77857094D01*
X108627849Y-77866883D01*
X108498071Y-77896252D01*
X108410891Y-77945200D01*
X108336774Y-78074383D01*
X108312069Y-78285719D01*
X108312069Y-79119156D01*
X107731044Y-79119156D01*
X107838200Y-79065578D01*
X107927199Y-78957827D01*
X107994172Y-78789353D01*
X108025260Y-78641054D01*
X108043914Y-78461270D01*
X108050131Y-78250000D01*
X108043914Y-78038730D01*
X108025260Y-77858946D01*
X107994172Y-77710647D01*
X107927199Y-77542173D01*
X107838200Y-77434422D01*
X107722114Y-77376379D01*
X107573881Y-77357031D01*
X107425648Y-77376379D01*
X107309563Y-77434422D01*
X107220563Y-77542173D01*
X107153591Y-77710647D01*
X107122502Y-77858946D01*
X107103849Y-78038730D01*
X107097631Y-78250000D01*
X106747588Y-78250000D01*
X106747588Y-77980919D01*
X106595759Y-77936342D01*
X106441263Y-77901671D01*
X106284101Y-77876906D01*
X106124271Y-77862047D01*
X105961775Y-77857094D01*
X105092619Y-77857094D01*
X104929503Y-77869000D01*
X104783056Y-77904719D01*
X104783056Y-78333344D01*
X104683837Y-78333344D01*
X104683837Y-77257812D01*
G37*
G36*
X107698897Y-77611825D02*
G01*
X107740866Y-77691597D01*
X107773906Y-77821375D01*
X107789781Y-77937792D01*
X107799306Y-78080667D01*
X107802481Y-78250000D01*
X107797719Y-78447644D01*
X107390525Y-77740412D01*
X107461963Y-77598728D01*
X107573881Y-77557056D01*
X107698897Y-77611825D01*
G37*
G36*
X107766763Y-78726250D02*
G01*
X107692944Y-78894128D01*
X107573881Y-78942944D01*
X107448866Y-78888175D01*
X107406896Y-78808403D01*
X107373856Y-78678625D01*
X107357981Y-78562208D01*
X107348456Y-78419333D01*
X107345281Y-78250000D01*
X107347067Y-78120817D01*
X107352425Y-78009494D01*
X107766763Y-78726250D01*
G37*
D13*
%TO.C,D1*%
X121750000Y-90250000D02*
X121750000Y-90250000D01*
X117520000Y-90250000D02*
X117520000Y-91370000D01*
X123040000Y-90250000D02*
X117920000Y-90250000D01*
X119210000Y-90250000D02*
X119210000Y-87580000D01*
X121750000Y-90250000D02*
X121750000Y-87580000D01*
X117920000Y-90250000D02*
X117920000Y-96410000D01*
X117920000Y-90250000D02*
X117520000Y-90250000D01*
X123040000Y-90250000D02*
X123040000Y-96410000D01*
X117920000Y-91370000D02*
X117920000Y-90250000D01*
X119210000Y-87580000D02*
X119210000Y-90250000D01*
X119210000Y-90250000D02*
X119210000Y-90250000D01*
X119210000Y-87580000D02*
X119210000Y-87580000D01*
X121750000Y-87580000D02*
X121750000Y-87580000D01*
X117520000Y-91370000D02*
X117920000Y-91370000D01*
X121750000Y-87580000D02*
X121750000Y-90250000D01*
X117920000Y-96410000D02*
G75*
G03*
X123040000Y-96410000I2560000J0D01*
G01*
%TD*%
M02*
