%TF.GenerationSoftware,KiCad,Pcbnew,(6.0.0)*%
%TF.CreationDate,2022-01-13T20:13:23-06:00*%
%TF.ProjectId,DieHardSAO,44696548-6172-4645-9341-4f2e6b696361,rev?*%
%TF.SameCoordinates,Original*%
%TF.FileFunction,Legend,Bot*%
%TF.FilePolarity,Positive*%
%FSLAX46Y46*%
G04 Gerber Fmt 4.6, Leading zero omitted, Abs format (unit mm)*
G04 Created by KiCad (PCBNEW (6.0.0)) date 2022-01-13 20:13:23*
%MOMM*%
%LPD*%
G01*
G04 APERTURE LIST*
%ADD10C,0.300000*%
%ADD11C,0.127000*%
%ADD12C,0.150000*%
%ADD13C,0.120000*%
%ADD14C,0.500000*%
G04 APERTURE END LIST*
D10*
X110928571Y-89527142D02*
X110714285Y-89598571D01*
X110357142Y-89598571D01*
X110214285Y-89527142D01*
X110142857Y-89455714D01*
X110071428Y-89312857D01*
X110071428Y-89170000D01*
X110142857Y-89027142D01*
X110214285Y-88955714D01*
X110357142Y-88884285D01*
X110642857Y-88812857D01*
X110785714Y-88741428D01*
X110857142Y-88670000D01*
X110928571Y-88527142D01*
X110928571Y-88384285D01*
X110857142Y-88241428D01*
X110785714Y-88170000D01*
X110642857Y-88098571D01*
X110285714Y-88098571D01*
X110071428Y-88170000D01*
X109428571Y-89598571D02*
X109428571Y-88098571D01*
X109428571Y-88812857D02*
X108571428Y-88812857D01*
X108571428Y-89598571D02*
X108571428Y-88098571D01*
X107571428Y-88098571D02*
X107285714Y-88098571D01*
X107142857Y-88170000D01*
X107000000Y-88312857D01*
X106928571Y-88598571D01*
X106928571Y-89098571D01*
X107000000Y-89384285D01*
X107142857Y-89527142D01*
X107285714Y-89598571D01*
X107571428Y-89598571D01*
X107714285Y-89527142D01*
X107857142Y-89384285D01*
X107928571Y-89098571D01*
X107928571Y-88598571D01*
X107857142Y-88312857D01*
X107714285Y-88170000D01*
X107571428Y-88098571D01*
X105428571Y-89598571D02*
X105928571Y-88884285D01*
X106285714Y-89598571D02*
X106285714Y-88098571D01*
X105714285Y-88098571D01*
X105571428Y-88170000D01*
X105500000Y-88241428D01*
X105428571Y-88384285D01*
X105428571Y-88598571D01*
X105500000Y-88741428D01*
X105571428Y-88812857D01*
X105714285Y-88884285D01*
X106285714Y-88884285D01*
X105000000Y-88098571D02*
X104142857Y-88098571D01*
X104571428Y-89598571D02*
X104571428Y-88098571D01*
X102071428Y-88098571D02*
X102071428Y-89170000D01*
X102142857Y-89384285D01*
X102285714Y-89527142D01*
X102500000Y-89598571D01*
X102642857Y-89598571D01*
X101357142Y-89598571D02*
X101357142Y-88098571D01*
X100785714Y-88098571D01*
X100642857Y-88170000D01*
X100571428Y-88241428D01*
X100500000Y-88384285D01*
X100500000Y-88598571D01*
X100571428Y-88741428D01*
X100642857Y-88812857D01*
X100785714Y-88884285D01*
X101357142Y-88884285D01*
X99071428Y-89598571D02*
X99928571Y-89598571D01*
X99500000Y-89598571D02*
X99500000Y-88098571D01*
X99642857Y-88312857D01*
X99785714Y-88455714D01*
X99928571Y-88527142D01*
X97500000Y-88098571D02*
X96642857Y-88098571D01*
X97071428Y-89598571D02*
X97071428Y-88098571D01*
X95857142Y-88098571D02*
X95571428Y-88098571D01*
X95428571Y-88170000D01*
X95285714Y-88312857D01*
X95214285Y-88598571D01*
X95214285Y-89098571D01*
X95285714Y-89384285D01*
X95428571Y-89527142D01*
X95571428Y-89598571D01*
X95857142Y-89598571D01*
X96000000Y-89527142D01*
X96142857Y-89384285D01*
X96214285Y-89098571D01*
X96214285Y-88598571D01*
X96142857Y-88312857D01*
X96000000Y-88170000D01*
X95857142Y-88098571D01*
X107892857Y-91227857D02*
X107678571Y-91299285D01*
X107607142Y-91370714D01*
X107535714Y-91513571D01*
X107535714Y-91727857D01*
X107607142Y-91870714D01*
X107678571Y-91942142D01*
X107821428Y-92013571D01*
X108392857Y-92013571D01*
X108392857Y-90513571D01*
X107892857Y-90513571D01*
X107750000Y-90585000D01*
X107678571Y-90656428D01*
X107607142Y-90799285D01*
X107607142Y-90942142D01*
X107678571Y-91085000D01*
X107750000Y-91156428D01*
X107892857Y-91227857D01*
X108392857Y-91227857D01*
X106607142Y-91299285D02*
X106607142Y-92013571D01*
X107107142Y-90513571D02*
X106607142Y-91299285D01*
X106107142Y-90513571D01*
X105607142Y-92013571D02*
X105607142Y-90513571D01*
X105035714Y-90513571D01*
X104892857Y-90585000D01*
X104821428Y-90656428D01*
X104750000Y-90799285D01*
X104750000Y-91013571D01*
X104821428Y-91156428D01*
X104892857Y-91227857D01*
X105035714Y-91299285D01*
X105607142Y-91299285D01*
X104178571Y-91585000D02*
X103464285Y-91585000D01*
X104321428Y-92013571D02*
X103821428Y-90513571D01*
X103321428Y-92013571D01*
X102892857Y-91942142D02*
X102678571Y-92013571D01*
X102321428Y-92013571D01*
X102178571Y-91942142D01*
X102107142Y-91870714D01*
X102035714Y-91727857D01*
X102035714Y-91585000D01*
X102107142Y-91442142D01*
X102178571Y-91370714D01*
X102321428Y-91299285D01*
X102607142Y-91227857D01*
X102750000Y-91156428D01*
X102821428Y-91085000D01*
X102892857Y-90942142D01*
X102892857Y-90799285D01*
X102821428Y-90656428D01*
X102750000Y-90585000D01*
X102607142Y-90513571D01*
X102250000Y-90513571D01*
X102035714Y-90585000D01*
X101464285Y-91942142D02*
X101250000Y-92013571D01*
X100892857Y-92013571D01*
X100750000Y-91942142D01*
X100678571Y-91870714D01*
X100607142Y-91727857D01*
X100607142Y-91585000D01*
X100678571Y-91442142D01*
X100750000Y-91370714D01*
X100892857Y-91299285D01*
X101178571Y-91227857D01*
X101321428Y-91156428D01*
X101392857Y-91085000D01*
X101464285Y-90942142D01*
X101464285Y-90799285D01*
X101392857Y-90656428D01*
X101321428Y-90585000D01*
X101178571Y-90513571D01*
X100821428Y-90513571D01*
X100607142Y-90585000D01*
X97964285Y-92013571D02*
X98464285Y-91299285D01*
X98821428Y-92013571D02*
X98821428Y-90513571D01*
X98250000Y-90513571D01*
X98107142Y-90585000D01*
X98035714Y-90656428D01*
X97964285Y-90799285D01*
X97964285Y-91013571D01*
X98035714Y-91156428D01*
X98107142Y-91227857D01*
X98250000Y-91299285D01*
X98821428Y-91299285D01*
X96535714Y-92013571D02*
X97392857Y-92013571D01*
X96964285Y-92013571D02*
X96964285Y-90513571D01*
X97107142Y-90727857D01*
X97250000Y-90870714D01*
X97392857Y-90942142D01*
X111178571Y-93642857D02*
X110964285Y-93714285D01*
X110892857Y-93785714D01*
X110821428Y-93928571D01*
X110821428Y-94142857D01*
X110892857Y-94285714D01*
X110964285Y-94357142D01*
X111107142Y-94428571D01*
X111678571Y-94428571D01*
X111678571Y-92928571D01*
X111178571Y-92928571D01*
X111035714Y-93000000D01*
X110964285Y-93071428D01*
X110892857Y-93214285D01*
X110892857Y-93357142D01*
X110964285Y-93500000D01*
X111035714Y-93571428D01*
X111178571Y-93642857D01*
X111678571Y-93642857D01*
X110178571Y-93642857D02*
X109678571Y-93642857D01*
X109464285Y-94428571D02*
X110178571Y-94428571D01*
X110178571Y-92928571D01*
X109464285Y-92928571D01*
X107964285Y-94285714D02*
X108035714Y-94357142D01*
X108250000Y-94428571D01*
X108392857Y-94428571D01*
X108607142Y-94357142D01*
X108750000Y-94214285D01*
X108821428Y-94071428D01*
X108892857Y-93785714D01*
X108892857Y-93571428D01*
X108821428Y-93285714D01*
X108750000Y-93142857D01*
X108607142Y-93000000D01*
X108392857Y-92928571D01*
X108250000Y-92928571D01*
X108035714Y-93000000D01*
X107964285Y-93071428D01*
X107392857Y-94000000D02*
X106678571Y-94000000D01*
X107535714Y-94428571D02*
X107035714Y-92928571D01*
X106535714Y-94428571D01*
X106035714Y-92928571D02*
X106035714Y-94142857D01*
X105964285Y-94285714D01*
X105892857Y-94357142D01*
X105750000Y-94428571D01*
X105464285Y-94428571D01*
X105321428Y-94357142D01*
X105250000Y-94285714D01*
X105178571Y-94142857D01*
X105178571Y-92928571D01*
X104535714Y-94357142D02*
X104321428Y-94428571D01*
X103964285Y-94428571D01*
X103821428Y-94357142D01*
X103750000Y-94285714D01*
X103678571Y-94142857D01*
X103678571Y-94000000D01*
X103750000Y-93857142D01*
X103821428Y-93785714D01*
X103964285Y-93714285D01*
X104250000Y-93642857D01*
X104392857Y-93571428D01*
X104464285Y-93500000D01*
X104535714Y-93357142D01*
X104535714Y-93214285D01*
X104464285Y-93071428D01*
X104392857Y-93000000D01*
X104250000Y-92928571D01*
X103892857Y-92928571D01*
X103678571Y-93000000D01*
X103035714Y-93642857D02*
X102535714Y-93642857D01*
X102321428Y-94428571D02*
X103035714Y-94428571D01*
X103035714Y-92928571D01*
X102321428Y-92928571D01*
X99678571Y-94428571D02*
X100178571Y-93714285D01*
X100535714Y-94428571D02*
X100535714Y-92928571D01*
X99964285Y-92928571D01*
X99821428Y-93000000D01*
X99750000Y-93071428D01*
X99678571Y-93214285D01*
X99678571Y-93428571D01*
X99750000Y-93571428D01*
X99821428Y-93642857D01*
X99964285Y-93714285D01*
X100535714Y-93714285D01*
X99035714Y-94428571D02*
X99035714Y-92928571D01*
X98464285Y-92928571D02*
X97464285Y-94428571D01*
X97464285Y-92928571D02*
X98464285Y-94428571D01*
X96607142Y-92928571D02*
X96321428Y-92928571D01*
X96178571Y-93000000D01*
X96035714Y-93142857D01*
X95964285Y-93428571D01*
X95964285Y-93928571D01*
X96035714Y-94214285D01*
X96178571Y-94357142D01*
X96321428Y-94428571D01*
X96607142Y-94428571D01*
X96750000Y-94357142D01*
X96892857Y-94214285D01*
X96964285Y-93928571D01*
X96964285Y-93428571D01*
X96892857Y-93142857D01*
X96750000Y-93000000D01*
X96607142Y-92928571D01*
X95321428Y-94428571D02*
X95321428Y-92928571D01*
X94464285Y-94428571D01*
X94464285Y-92928571D01*
X111000000Y-95343571D02*
X110642857Y-96843571D01*
X110357142Y-95772142D01*
X110071428Y-96843571D01*
X109714285Y-95343571D01*
X109214285Y-96415000D02*
X108500000Y-96415000D01*
X109357142Y-96843571D02*
X108857142Y-95343571D01*
X108357142Y-96843571D01*
X107857142Y-96843571D02*
X107857142Y-95343571D01*
X107000000Y-96843571D01*
X107000000Y-95343571D01*
X106500000Y-95343571D02*
X105642857Y-95343571D01*
X106071428Y-96843571D02*
X106071428Y-95343571D01*
X105214285Y-96772142D02*
X105000000Y-96843571D01*
X104642857Y-96843571D01*
X104500000Y-96772142D01*
X104428571Y-96700714D01*
X104357142Y-96557857D01*
X104357142Y-96415000D01*
X104428571Y-96272142D01*
X104500000Y-96200714D01*
X104642857Y-96129285D01*
X104928571Y-96057857D01*
X105071428Y-95986428D01*
X105142857Y-95915000D01*
X105214285Y-95772142D01*
X105214285Y-95629285D01*
X105142857Y-95486428D01*
X105071428Y-95415000D01*
X104928571Y-95343571D01*
X104571428Y-95343571D01*
X104357142Y-95415000D01*
X102785714Y-95343571D02*
X101928571Y-95343571D01*
X102357142Y-96843571D02*
X102357142Y-95343571D01*
X101142857Y-95343571D02*
X100857142Y-95343571D01*
X100714285Y-95415000D01*
X100571428Y-95557857D01*
X100500000Y-95843571D01*
X100500000Y-96343571D01*
X100571428Y-96629285D01*
X100714285Y-96772142D01*
X100857142Y-96843571D01*
X101142857Y-96843571D01*
X101285714Y-96772142D01*
X101428571Y-96629285D01*
X101500000Y-96343571D01*
X101500000Y-95843571D01*
X101428571Y-95557857D01*
X101285714Y-95415000D01*
X101142857Y-95343571D01*
X98785714Y-96772142D02*
X98571428Y-96843571D01*
X98214285Y-96843571D01*
X98071428Y-96772142D01*
X98000000Y-96700714D01*
X97928571Y-96557857D01*
X97928571Y-96415000D01*
X98000000Y-96272142D01*
X98071428Y-96200714D01*
X98214285Y-96129285D01*
X98500000Y-96057857D01*
X98642857Y-95986428D01*
X98714285Y-95915000D01*
X98785714Y-95772142D01*
X98785714Y-95629285D01*
X98714285Y-95486428D01*
X98642857Y-95415000D01*
X98500000Y-95343571D01*
X98142857Y-95343571D01*
X97928571Y-95415000D01*
X97285714Y-96057857D02*
X96785714Y-96057857D01*
X96571428Y-96843571D02*
X97285714Y-96843571D01*
X97285714Y-95343571D01*
X96571428Y-95343571D01*
X95928571Y-96057857D02*
X95428571Y-96057857D01*
X95214285Y-96843571D02*
X95928571Y-96843571D01*
X95928571Y-95343571D01*
X95214285Y-95343571D01*
X112714285Y-97758571D02*
X111857142Y-97758571D01*
X112285714Y-99258571D02*
X112285714Y-97758571D01*
X111357142Y-99258571D02*
X111357142Y-97758571D01*
X111357142Y-98472857D02*
X110500000Y-98472857D01*
X110500000Y-99258571D02*
X110500000Y-97758571D01*
X109785714Y-98472857D02*
X109285714Y-98472857D01*
X109071428Y-99258571D02*
X109785714Y-99258571D01*
X109785714Y-97758571D01*
X109071428Y-97758571D01*
X107428571Y-97758571D02*
X107071428Y-99258571D01*
X106785714Y-98187142D01*
X106500000Y-99258571D01*
X106142857Y-97758571D01*
X105285714Y-97758571D02*
X105000000Y-97758571D01*
X104857142Y-97830000D01*
X104714285Y-97972857D01*
X104642857Y-98258571D01*
X104642857Y-98758571D01*
X104714285Y-99044285D01*
X104857142Y-99187142D01*
X105000000Y-99258571D01*
X105285714Y-99258571D01*
X105428571Y-99187142D01*
X105571428Y-99044285D01*
X105642857Y-98758571D01*
X105642857Y-98258571D01*
X105571428Y-97972857D01*
X105428571Y-97830000D01*
X105285714Y-97758571D01*
X103142857Y-99258571D02*
X103642857Y-98544285D01*
X104000000Y-99258571D02*
X104000000Y-97758571D01*
X103428571Y-97758571D01*
X103285714Y-97830000D01*
X103214285Y-97901428D01*
X103142857Y-98044285D01*
X103142857Y-98258571D01*
X103214285Y-98401428D01*
X103285714Y-98472857D01*
X103428571Y-98544285D01*
X104000000Y-98544285D01*
X101785714Y-99258571D02*
X102500000Y-99258571D01*
X102500000Y-97758571D01*
X101285714Y-99258571D02*
X101285714Y-97758571D01*
X100928571Y-97758571D01*
X100714285Y-97830000D01*
X100571428Y-97972857D01*
X100500000Y-98115714D01*
X100428571Y-98401428D01*
X100428571Y-98615714D01*
X100500000Y-98901428D01*
X100571428Y-99044285D01*
X100714285Y-99187142D01*
X100928571Y-99258571D01*
X101285714Y-99258571D01*
X98142857Y-98472857D02*
X97928571Y-98544285D01*
X97857142Y-98615714D01*
X97785714Y-98758571D01*
X97785714Y-98972857D01*
X97857142Y-99115714D01*
X97928571Y-99187142D01*
X98071428Y-99258571D01*
X98642857Y-99258571D01*
X98642857Y-97758571D01*
X98142857Y-97758571D01*
X98000000Y-97830000D01*
X97928571Y-97901428D01*
X97857142Y-98044285D01*
X97857142Y-98187142D01*
X97928571Y-98330000D01*
X98000000Y-98401428D01*
X98142857Y-98472857D01*
X98642857Y-98472857D01*
X97142857Y-97758571D02*
X97142857Y-98972857D01*
X97071428Y-99115714D01*
X97000000Y-99187142D01*
X96857142Y-99258571D01*
X96571428Y-99258571D01*
X96428571Y-99187142D01*
X96357142Y-99115714D01*
X96285714Y-98972857D01*
X96285714Y-97758571D01*
X94714285Y-99258571D02*
X95214285Y-98544285D01*
X95571428Y-99258571D02*
X95571428Y-97758571D01*
X95000000Y-97758571D01*
X94857142Y-97830000D01*
X94785714Y-97901428D01*
X94714285Y-98044285D01*
X94714285Y-98258571D01*
X94785714Y-98401428D01*
X94857142Y-98472857D01*
X95000000Y-98544285D01*
X95571428Y-98544285D01*
X94071428Y-99258571D02*
X94071428Y-97758571D01*
X93214285Y-99258571D01*
X93214285Y-97758571D01*
X92500000Y-99115714D02*
X92428571Y-99187142D01*
X92500000Y-99258571D01*
X92571428Y-99187142D01*
X92500000Y-99115714D01*
X92500000Y-99258571D01*
X92500000Y-98687142D02*
X92571428Y-97830000D01*
X92500000Y-97758571D01*
X92428571Y-97830000D01*
X92500000Y-98687142D01*
X92500000Y-97758571D01*
D11*
%TO.C,R1*%
X117101600Y-104025771D02*
X117304800Y-103735485D01*
X117449942Y-104025771D02*
X117449942Y-103416171D01*
X117217714Y-103416171D01*
X117159657Y-103445200D01*
X117130628Y-103474228D01*
X117101600Y-103532285D01*
X117101600Y-103619371D01*
X117130628Y-103677428D01*
X117159657Y-103706457D01*
X117217714Y-103735485D01*
X117449942Y-103735485D01*
X116521028Y-104025771D02*
X116869371Y-104025771D01*
X116695200Y-104025771D02*
X116695200Y-103416171D01*
X116753257Y-103503257D01*
X116811314Y-103561314D01*
X116869371Y-103590342D01*
D12*
%TO.C,D1*%
X121483095Y-108412380D02*
X121483095Y-107412380D01*
X121245000Y-107412380D01*
X121102142Y-107460000D01*
X121006904Y-107555238D01*
X120959285Y-107650476D01*
X120911666Y-107840952D01*
X120911666Y-107983809D01*
X120959285Y-108174285D01*
X121006904Y-108269523D01*
X121102142Y-108364761D01*
X121245000Y-108412380D01*
X121483095Y-108412380D01*
X119959285Y-108412380D02*
X120530714Y-108412380D01*
X120245000Y-108412380D02*
X120245000Y-107412380D01*
X120340238Y-107555238D01*
X120435476Y-107650476D01*
X120530714Y-107698095D01*
%TO.C,JP1*%
X115583333Y-101502380D02*
X115583333Y-102216666D01*
X115630952Y-102359523D01*
X115726190Y-102454761D01*
X115869047Y-102502380D01*
X115964285Y-102502380D01*
X115107142Y-102502380D02*
X115107142Y-101502380D01*
X114726190Y-101502380D01*
X114630952Y-101550000D01*
X114583333Y-101597619D01*
X114535714Y-101692857D01*
X114535714Y-101835714D01*
X114583333Y-101930952D01*
X114630952Y-101978571D01*
X114726190Y-102026190D01*
X115107142Y-102026190D01*
X113583333Y-102502380D02*
X114154761Y-102502380D01*
X113869047Y-102502380D02*
X113869047Y-101502380D01*
X113964285Y-101645238D01*
X114059523Y-101740476D01*
X114154761Y-101788095D01*
%TO.C,X1*%
X113946542Y-110516600D02*
X114017971Y-110480885D01*
X114125114Y-110480885D01*
X114232257Y-110516600D01*
X114303685Y-110588028D01*
X114339400Y-110659457D01*
X114375114Y-110802314D01*
X114375114Y-110909457D01*
X114339400Y-111052314D01*
X114303685Y-111123742D01*
X114232257Y-111195171D01*
X114125114Y-111230885D01*
X114053685Y-111230885D01*
X113946542Y-111195171D01*
X113910828Y-111159457D01*
X113910828Y-110909457D01*
X114053685Y-110909457D01*
X113589400Y-111230885D02*
X113589400Y-110480885D01*
X113303685Y-110480885D01*
X113232257Y-110516600D01*
X113196542Y-110552314D01*
X113160828Y-110623742D01*
X113160828Y-110730885D01*
X113196542Y-110802314D01*
X113232257Y-110838028D01*
X113303685Y-110873742D01*
X113589400Y-110873742D01*
X112839400Y-111230885D02*
X112839400Y-110480885D01*
X112339400Y-110480885D02*
X112196542Y-110480885D01*
X112125114Y-110516600D01*
X112053685Y-110588028D01*
X112017971Y-110730885D01*
X112017971Y-110980885D01*
X112053685Y-111123742D01*
X112125114Y-111195171D01*
X112196542Y-111230885D01*
X112339400Y-111230885D01*
X112410828Y-111195171D01*
X112482257Y-111123742D01*
X112517971Y-110980885D01*
X112517971Y-110730885D01*
X112482257Y-110588028D01*
X112410828Y-110516600D01*
X112339400Y-110480885D01*
X111732257Y-110552314D02*
X111696542Y-110516600D01*
X111625114Y-110480885D01*
X111446542Y-110480885D01*
X111375114Y-110516600D01*
X111339400Y-110552314D01*
X111303685Y-110623742D01*
X111303685Y-110695171D01*
X111339400Y-110802314D01*
X111767971Y-111230885D01*
X111303685Y-111230885D01*
X109889314Y-105556371D02*
X109782171Y-105592085D01*
X109603600Y-105592085D01*
X109532171Y-105556371D01*
X109496457Y-105520657D01*
X109460742Y-105449228D01*
X109460742Y-105377800D01*
X109496457Y-105306371D01*
X109532171Y-105270657D01*
X109603600Y-105234942D01*
X109746457Y-105199228D01*
X109817885Y-105163514D01*
X109853600Y-105127800D01*
X109889314Y-105056371D01*
X109889314Y-104984942D01*
X109853600Y-104913514D01*
X109817885Y-104877800D01*
X109746457Y-104842085D01*
X109567885Y-104842085D01*
X109460742Y-104877800D01*
X109139314Y-105592085D02*
X109139314Y-104842085D01*
X108960742Y-104842085D01*
X108853600Y-104877800D01*
X108782171Y-104949228D01*
X108746457Y-105020657D01*
X108710742Y-105163514D01*
X108710742Y-105270657D01*
X108746457Y-105413514D01*
X108782171Y-105484942D01*
X108853600Y-105556371D01*
X108960742Y-105592085D01*
X109139314Y-105592085D01*
X108425028Y-105377800D02*
X108067885Y-105377800D01*
X108496457Y-105592085D02*
X108246457Y-104842085D01*
X107996457Y-105592085D01*
X107184600Y-104867485D02*
X106934600Y-105617485D01*
X106684600Y-104867485D01*
X106006028Y-105546057D02*
X106041742Y-105581771D01*
X106148885Y-105617485D01*
X106220314Y-105617485D01*
X106327457Y-105581771D01*
X106398885Y-105510342D01*
X106434600Y-105438914D01*
X106470314Y-105296057D01*
X106470314Y-105188914D01*
X106434600Y-105046057D01*
X106398885Y-104974628D01*
X106327457Y-104903200D01*
X106220314Y-104867485D01*
X106148885Y-104867485D01*
X106041742Y-104903200D01*
X106006028Y-104938914D01*
X105256028Y-105546057D02*
X105291742Y-105581771D01*
X105398885Y-105617485D01*
X105470314Y-105617485D01*
X105577457Y-105581771D01*
X105648885Y-105510342D01*
X105684600Y-105438914D01*
X105720314Y-105296057D01*
X105720314Y-105188914D01*
X105684600Y-105046057D01*
X105648885Y-104974628D01*
X105577457Y-104903200D01*
X105470314Y-104867485D01*
X105398885Y-104867485D01*
X105291742Y-104903200D01*
X105256028Y-104938914D01*
X113768742Y-104877800D02*
X113840171Y-104842085D01*
X113947314Y-104842085D01*
X114054457Y-104877800D01*
X114125885Y-104949228D01*
X114161600Y-105020657D01*
X114197314Y-105163514D01*
X114197314Y-105270657D01*
X114161600Y-105413514D01*
X114125885Y-105484942D01*
X114054457Y-105556371D01*
X113947314Y-105592085D01*
X113875885Y-105592085D01*
X113768742Y-105556371D01*
X113733028Y-105520657D01*
X113733028Y-105270657D01*
X113875885Y-105270657D01*
X113411600Y-105592085D02*
X113411600Y-104842085D01*
X113125885Y-104842085D01*
X113054457Y-104877800D01*
X113018742Y-104913514D01*
X112983028Y-104984942D01*
X112983028Y-105092085D01*
X113018742Y-105163514D01*
X113054457Y-105199228D01*
X113125885Y-105234942D01*
X113411600Y-105234942D01*
X112661600Y-105592085D02*
X112661600Y-104842085D01*
X112161600Y-104842085D02*
X112018742Y-104842085D01*
X111947314Y-104877800D01*
X111875885Y-104949228D01*
X111840171Y-105092085D01*
X111840171Y-105342085D01*
X111875885Y-105484942D01*
X111947314Y-105556371D01*
X112018742Y-105592085D01*
X112161600Y-105592085D01*
X112233028Y-105556371D01*
X112304457Y-105484942D01*
X112340171Y-105342085D01*
X112340171Y-105092085D01*
X112304457Y-104949228D01*
X112233028Y-104877800D01*
X112161600Y-104842085D01*
X111125885Y-105592085D02*
X111554457Y-105592085D01*
X111340171Y-105592085D02*
X111340171Y-104842085D01*
X111411600Y-104949228D01*
X111483028Y-105020657D01*
X111554457Y-105056371D01*
X109617457Y-111220571D02*
X109510314Y-111256285D01*
X109331742Y-111256285D01*
X109260314Y-111220571D01*
X109224600Y-111184857D01*
X109188885Y-111113428D01*
X109188885Y-111042000D01*
X109224600Y-110970571D01*
X109260314Y-110934857D01*
X109331742Y-110899142D01*
X109474600Y-110863428D01*
X109546028Y-110827714D01*
X109581742Y-110792000D01*
X109617457Y-110720571D01*
X109617457Y-110649142D01*
X109581742Y-110577714D01*
X109546028Y-110542000D01*
X109474600Y-110506285D01*
X109296028Y-110506285D01*
X109188885Y-110542000D01*
X108438885Y-111184857D02*
X108474600Y-111220571D01*
X108581742Y-111256285D01*
X108653171Y-111256285D01*
X108760314Y-111220571D01*
X108831742Y-111149142D01*
X108867457Y-111077714D01*
X108903171Y-110934857D01*
X108903171Y-110827714D01*
X108867457Y-110684857D01*
X108831742Y-110613428D01*
X108760314Y-110542000D01*
X108653171Y-110506285D01*
X108581742Y-110506285D01*
X108474600Y-110542000D01*
X108438885Y-110577714D01*
X107760314Y-111256285D02*
X108117457Y-111256285D01*
X108117457Y-110506285D01*
X106806828Y-110542000D02*
X106878257Y-110506285D01*
X106985400Y-110506285D01*
X107092542Y-110542000D01*
X107163971Y-110613428D01*
X107199685Y-110684857D01*
X107235400Y-110827714D01*
X107235400Y-110934857D01*
X107199685Y-111077714D01*
X107163971Y-111149142D01*
X107092542Y-111220571D01*
X106985400Y-111256285D01*
X106913971Y-111256285D01*
X106806828Y-111220571D01*
X106771114Y-111184857D01*
X106771114Y-110934857D01*
X106913971Y-110934857D01*
X106449685Y-111256285D02*
X106449685Y-110506285D01*
X106021114Y-111256285D01*
X106021114Y-110506285D01*
X105663971Y-111256285D02*
X105663971Y-110506285D01*
X105485400Y-110506285D01*
X105378257Y-110542000D01*
X105306828Y-110613428D01*
X105271114Y-110684857D01*
X105235400Y-110827714D01*
X105235400Y-110934857D01*
X105271114Y-111077714D01*
X105306828Y-111149142D01*
X105378257Y-111220571D01*
X105485400Y-111256285D01*
X105663971Y-111256285D01*
%TO.C,kibuzzard-61DF9C8F*%
G36*
X104683837Y-77257812D02*
G01*
X109316163Y-77257812D01*
X109316163Y-79242188D01*
X104683837Y-79242188D01*
X104683837Y-78333344D01*
X104783056Y-78333344D01*
X105033087Y-78333344D01*
X105033087Y-78059500D01*
X105097381Y-78052356D01*
X105218230Y-78080634D01*
X105309312Y-78165466D01*
X105366462Y-78305662D01*
X105385512Y-78500031D01*
X105363486Y-78700056D01*
X105297406Y-78842931D01*
X105193227Y-78928656D01*
X105056900Y-78957231D01*
X104928312Y-78939967D01*
X104794962Y-78888175D01*
X104794962Y-79083438D01*
X104938433Y-79128086D01*
X105087856Y-79142969D01*
X105253750Y-79124977D01*
X105392656Y-79071002D01*
X105504575Y-78981044D01*
X105586596Y-78855631D01*
X105635808Y-78695294D01*
X105652212Y-78500031D01*
X105640792Y-78329456D01*
X105606531Y-78185123D01*
X105549430Y-78067033D01*
X105469488Y-77975184D01*
X105366705Y-77909578D01*
X105241082Y-77870215D01*
X105092619Y-77857094D01*
X105961775Y-77857094D01*
X105961775Y-78054737D01*
X106144073Y-78062410D01*
X106319492Y-78085429D01*
X106488031Y-78123794D01*
X106485650Y-79119156D01*
X106747588Y-79119156D01*
X106747588Y-78250000D01*
X107097631Y-78250000D01*
X107103849Y-78461270D01*
X107122502Y-78641054D01*
X107153591Y-78789353D01*
X107220563Y-78957827D01*
X107309563Y-79065578D01*
X107425648Y-79123621D01*
X107573881Y-79142969D01*
X107722114Y-79123621D01*
X107731044Y-79119156D01*
X108312069Y-79119156D01*
X108569244Y-79119156D01*
X108569244Y-78273813D01*
X108616869Y-78099981D01*
X108793081Y-78052356D01*
X108955006Y-78104744D01*
X108955006Y-79119156D01*
X109216944Y-79119156D01*
X109216944Y-77957106D01*
X109092325Y-77901544D01*
X108953419Y-77868206D01*
X108800225Y-77857094D01*
X108627849Y-77866883D01*
X108498071Y-77896252D01*
X108410891Y-77945200D01*
X108336774Y-78074383D01*
X108312069Y-78285719D01*
X108312069Y-79119156D01*
X107731044Y-79119156D01*
X107838200Y-79065578D01*
X107927199Y-78957827D01*
X107994172Y-78789353D01*
X108025260Y-78641054D01*
X108043914Y-78461270D01*
X108050131Y-78250000D01*
X108043914Y-78038730D01*
X108025260Y-77858946D01*
X107994172Y-77710647D01*
X107927199Y-77542173D01*
X107838200Y-77434422D01*
X107722114Y-77376379D01*
X107573881Y-77357031D01*
X107425648Y-77376379D01*
X107309563Y-77434422D01*
X107220563Y-77542173D01*
X107153591Y-77710647D01*
X107122502Y-77858946D01*
X107103849Y-78038730D01*
X107097631Y-78250000D01*
X106747588Y-78250000D01*
X106747588Y-77980919D01*
X106595759Y-77936342D01*
X106441263Y-77901671D01*
X106284101Y-77876906D01*
X106124271Y-77862047D01*
X105961775Y-77857094D01*
X105092619Y-77857094D01*
X104929503Y-77869000D01*
X104783056Y-77904719D01*
X104783056Y-78333344D01*
X104683837Y-78333344D01*
X104683837Y-77257812D01*
G37*
G36*
X107766763Y-78726250D02*
G01*
X107692944Y-78894128D01*
X107573881Y-78942944D01*
X107448866Y-78888175D01*
X107406896Y-78808403D01*
X107373856Y-78678625D01*
X107357981Y-78562208D01*
X107348456Y-78419333D01*
X107345281Y-78250000D01*
X107347067Y-78120817D01*
X107352425Y-78009494D01*
X107766763Y-78726250D01*
G37*
G36*
X107698897Y-77611825D02*
G01*
X107740866Y-77691597D01*
X107773906Y-77821375D01*
X107789781Y-77937792D01*
X107799306Y-78080667D01*
X107802481Y-78250000D01*
X107797719Y-78447644D01*
X107390525Y-77740412D01*
X107461963Y-77598728D01*
X107573881Y-77557056D01*
X107698897Y-77611825D01*
G37*
D13*
%TO.C,D1*%
X122015000Y-104920000D02*
X122015000Y-104920000D01*
X122015000Y-102250000D02*
X122015000Y-104920000D01*
X122015000Y-102250000D02*
X122015000Y-102250000D01*
X122015000Y-104920000D02*
X122015000Y-102250000D01*
X119475000Y-104920000D02*
X119475000Y-104920000D01*
X119475000Y-102250000D02*
X119475000Y-104920000D01*
X119475000Y-102250000D02*
X119475000Y-102250000D01*
X119475000Y-104920000D02*
X119475000Y-102250000D01*
X123305000Y-102250000D02*
X123705000Y-102250000D01*
X123305000Y-101130000D02*
X123305000Y-102250000D01*
X123705000Y-101130000D02*
X123305000Y-101130000D01*
X123705000Y-102250000D02*
X123705000Y-101130000D01*
X118185000Y-102250000D02*
X123305000Y-102250000D01*
X123305000Y-102250000D02*
X123305000Y-96090000D01*
X118185000Y-102250000D02*
X118185000Y-96090000D01*
X123305000Y-96090000D02*
G75*
G03*
X118185000Y-96090000I-2560000J0D01*
G01*
%TO.C,JP1*%
X114050000Y-101250000D02*
X115450000Y-101250000D01*
X116150000Y-100550000D02*
X116150000Y-99950000D01*
X115450000Y-99250000D02*
X114050000Y-99250000D01*
X113350000Y-99950000D02*
X113350000Y-100550000D01*
X113350000Y-100550000D02*
G75*
G03*
X114050000Y-101250000I700000J0D01*
G01*
X114050000Y-99250000D02*
G75*
G03*
X113350000Y-99950000I0J-700000D01*
G01*
X116150000Y-99950000D02*
G75*
G03*
X115450000Y-99250000I-700000J0D01*
G01*
X115450000Y-101250000D02*
G75*
G03*
X116150000Y-100550000I0J700000D01*
G01*
D14*
%TO.C,X1*%
X102130000Y-102805000D02*
G75*
G03*
X102130000Y-102805000I-1000000J0D01*
G01*
X102400000Y-111628200D02*
X115735000Y-111628200D01*
X106845000Y-104262200D02*
X111163000Y-104262200D01*
X115735000Y-111628200D02*
X115735000Y-104516200D01*
X115608000Y-104516200D02*
X102400000Y-104516200D01*
X102400000Y-104516200D02*
X102400000Y-111628200D01*
X106845000Y-103881200D02*
X106845000Y-104389200D01*
X111163000Y-104389200D02*
X111163000Y-103881200D01*
X111163000Y-103881200D02*
X106845000Y-103881200D01*
%TD*%
M02*
