%TF.GenerationSoftware,KiCad,Pcbnew,(6.0.0)*%
%TF.CreationDate,2022-06-30T21:17:56-05:00*%
%TF.ProjectId,DieHardSAO,44696548-6172-4645-9341-4f2e6b696361,rev?*%
%TF.SameCoordinates,Original*%
%TF.FileFunction,Profile,NP*%
%FSLAX46Y46*%
G04 Gerber Fmt 4.6, Leading zero omitted, Abs format (unit mm)*
G04 Created by KiCad (PCBNEW (6.0.0)) date 2022-06-30 21:17:56*
%MOMM*%
%LPD*%
G01*
G04 APERTURE LIST*
%TA.AperFunction,Profile*%
%ADD10C,0.100000*%
%TD*%
G04 APERTURE END LIST*
D10*
X79250000Y-71722473D02*
X78402068Y-100341089D01*
X92948920Y-59376015D02*
X97698386Y-58125733D01*
X90786576Y-60790781D02*
X92300593Y-59802637D01*
X86754604Y-66986050D02*
X87086732Y-65960365D01*
X103349767Y-57969788D02*
X103988516Y-58013386D01*
X112185257Y-61226386D02*
X113357068Y-62653165D01*
X79250000Y-70750000D02*
X79250000Y-71722473D01*
X92300593Y-59802637D02*
X92948920Y-59376015D01*
X147921752Y-76246739D02*
X146982561Y-80837800D01*
X86328340Y-69488880D02*
X86599879Y-67541743D01*
X87417566Y-65206706D02*
X88249731Y-63428732D01*
X101508330Y-57950383D02*
X100261481Y-57943768D01*
X147921752Y-76246739D02*
X134741441Y-70408936D01*
X85259091Y-70720404D02*
X86159221Y-70621441D01*
X111230008Y-60510823D02*
X112185257Y-61226386D01*
X85259091Y-70720404D02*
X79250000Y-70750000D01*
X86599879Y-67541743D02*
X86754604Y-66986050D01*
X89807512Y-120322173D02*
X88880522Y-120325375D01*
X88880522Y-120325375D02*
X87858501Y-120333056D01*
X88249731Y-63428732D02*
X88752526Y-62786403D01*
X114722704Y-65250185D02*
X115547429Y-67605060D01*
X109232552Y-59215589D02*
X109815318Y-59512119D01*
X98923261Y-57991927D02*
X100261481Y-57943768D01*
X122082581Y-133359869D02*
X137025586Y-127995495D01*
X116750939Y-130661323D02*
X122082581Y-133359869D01*
X88976893Y-62540781D02*
X89454517Y-62040781D01*
X107560396Y-58722339D02*
X109232552Y-59215589D01*
X81030725Y-113496426D02*
X78226161Y-110576455D01*
X83412551Y-118062761D02*
X81030725Y-113496426D01*
X93088822Y-118784407D02*
X89807512Y-120322173D01*
X113357068Y-62653165D02*
X114207484Y-63910337D01*
X87858501Y-120333056D02*
X83412551Y-118062761D01*
X78227219Y-108339988D02*
X78402068Y-100341089D01*
X88752526Y-62786403D02*
X88976893Y-62540781D01*
X78226452Y-109267059D02*
X78227219Y-108339988D01*
X116505477Y-70888879D02*
X116052661Y-69314686D01*
X116052661Y-69314686D02*
X115547429Y-67605060D01*
X89454517Y-62040781D02*
X90786576Y-60790781D01*
X121959256Y-70812761D02*
X116505477Y-70888879D01*
X105320778Y-58139142D02*
X106954517Y-58540781D01*
X106954517Y-58540781D02*
X107560396Y-58722339D01*
X114643049Y-65060553D02*
X114722704Y-65250185D01*
X114207484Y-63910337D02*
X114423606Y-64403515D01*
X104825433Y-58089909D02*
X105320778Y-58139142D01*
X109815318Y-59512119D02*
X111230008Y-60510823D01*
X146982561Y-80837800D02*
X137025586Y-127995495D01*
X114423606Y-64403515D02*
X114643049Y-65060553D01*
X134741441Y-70408936D02*
X121959256Y-70812761D01*
X98383271Y-58040781D02*
X98923261Y-57991927D01*
X78226161Y-110576455D02*
X78226452Y-109267059D01*
X116750939Y-130661323D02*
X93088822Y-118784407D01*
X86159221Y-70621441D02*
X86328340Y-69488880D01*
X104825433Y-58089909D02*
X103988516Y-58013386D01*
X87086732Y-65960365D02*
X87417566Y-65206706D01*
X97698386Y-58125733D02*
X98383271Y-58040781D01*
X101508330Y-57950383D02*
X103349767Y-57969788D01*
M02*
