%TF.GenerationSoftware,KiCad,Pcbnew,(6.0.0)*%
%TF.CreationDate,2022-06-30T21:17:56-05:00*%
%TF.ProjectId,DieHardSAO,44696548-6172-4645-9341-4f2e6b696361,rev?*%
%TF.SameCoordinates,Original*%
%TF.FileFunction,Copper,L2,Bot*%
%TF.FilePolarity,Positive*%
%FSLAX46Y46*%
G04 Gerber Fmt 4.6, Leading zero omitted, Abs format (unit mm)*
G04 Created by KiCad (PCBNEW (6.0.0)) date 2022-06-30 21:17:56*
%MOMM*%
%LPD*%
G01*
G04 APERTURE LIST*
%TA.AperFunction,EtchedComponent*%
%ADD10C,0.254000*%
%TD*%
%TA.AperFunction,SMDPad,CuDef*%
%ADD11R,0.797560X1.198880*%
%TD*%
%TA.AperFunction,SMDPad,CuDef*%
%ADD12R,0.635000X1.270000*%
%TD*%
%TA.AperFunction,ComponentPad*%
%ADD13C,1.727200*%
%TD*%
%TA.AperFunction,ComponentPad*%
%ADD14O,1.727200X1.727200*%
%TD*%
%TA.AperFunction,ComponentPad*%
%ADD15R,1.727200X1.727200*%
%TD*%
%TA.AperFunction,ComponentPad*%
%ADD16C,1.800000*%
%TD*%
%TA.AperFunction,ComponentPad*%
%ADD17R,1.800000X1.800000*%
%TD*%
%TA.AperFunction,Conductor*%
%ADD18C,0.300000*%
%TD*%
G04 APERTURE END LIST*
D10*
%TO.C,JP1*%
X114492000Y-100000000D02*
X115508000Y-100000000D01*
%TD*%
D11*
%TO.P,R1,1,1*%
%TO.N,Net-(R1-Pad1)*%
X114100840Y-103000000D03*
%TO.P,R1,2,2*%
%TO.N,Net-(D1-Pad2)*%
X115899160Y-103000000D03*
%TD*%
D12*
%TO.P,JP1,1,1*%
%TO.N,Net-(R1-Pad1)*%
X114492000Y-100000000D03*
%TO.P,JP1,2,2*%
%TO.N,Net-(D1-Pad2)*%
X115508000Y-100000000D03*
%TD*%
D13*
%TO.P,X1,6,GPIO2*%
%TO.N,unconnected-(X1-Pad6)*%
X123180200Y-118938400D03*
%TO.P,X1,5,GPIO1*%
%TO.N,unconnected-(X1-Pad5)*%
X123180200Y-116398400D03*
D14*
%TO.P,X1,4,SCL*%
%TO.N,unconnected-(X1-Pad4)*%
X120640200Y-118938400D03*
%TO.P,X1,3,SDA*%
%TO.N,unconnected-(X1-Pad3)*%
X120640200Y-116398400D03*
D15*
%TO.P,X1,2,GND*%
%TO.N,Net-(D1-Pad1)*%
X118100200Y-118938400D03*
D14*
%TO.P,X1,1,VCC*%
%TO.N,Net-(R1-Pad1)*%
X118100200Y-116398400D03*
%TD*%
D16*
%TO.P,D1,2,A*%
%TO.N,Net-(D1-Pad2)*%
X119210000Y-86500000D03*
D17*
%TO.P,D1,1,C*%
%TO.N,Net-(D1-Pad1)*%
X121750000Y-86500000D03*
%TD*%
D18*
%TO.N,Net-(D1-Pad1)*%
X118100200Y-120100200D02*
X118100200Y-118938400D01*
X119000000Y-121000000D02*
X118100200Y-120100200D01*
X125250000Y-118584199D02*
X122834199Y-121000000D01*
X122834199Y-121000000D02*
X119000000Y-121000000D01*
X124250000Y-86500000D02*
X125250000Y-87500000D01*
X121750000Y-86500000D02*
X124250000Y-86500000D01*
X125250000Y-87500000D02*
X125250000Y-118584199D01*
%TO.N,Net-(D1-Pad2)*%
X117750000Y-86500000D02*
X119210000Y-86500000D01*
X116250000Y-88000000D02*
X117750000Y-86500000D01*
X116250000Y-100000000D02*
X116250000Y-88000000D01*
X117000000Y-100750000D02*
X116250000Y-100000000D01*
X117000000Y-102500000D02*
X117000000Y-100750000D01*
X116500000Y-103000000D02*
X117000000Y-102500000D01*
X116250000Y-100000000D02*
X115750000Y-100000000D01*
X115899160Y-103000000D02*
X116500000Y-103000000D01*
%TO.N,Net-(R1-Pad1)*%
X113000000Y-100750000D02*
X113552619Y-100197381D01*
X113552619Y-100197381D02*
X114200000Y-100197381D01*
X113000000Y-102750000D02*
X113000000Y-100750000D01*
X113250000Y-103000000D02*
X113000000Y-102750000D01*
X114100840Y-103000000D02*
X113250000Y-103000000D01*
X118100200Y-110600200D02*
X114100840Y-106600840D01*
X114100840Y-106600840D02*
X114100840Y-103000000D01*
X118100200Y-116398400D02*
X118100200Y-110600200D01*
%TD*%
M02*
